<?xml version="1.0" encoding="UTF-8" standalone="no"?>
<svg
   xmlns:dc="http://purl.org/dc/elements/1.1/"
   xmlns:cc="http://creativecommons.org/ns#"
   xmlns:rdf="http://www.w3.org/1999/02/22-rdf-syntax-ns#"
   xmlns:svg="http://www.w3.org/2000/svg"
   xmlns="http://www.w3.org/2000/svg"
   xmlns:sodipodi="http://sodipodi.sourceforge.net/DTD/sodipodi-0.dtd"
   xmlns:inkscape="http://www.inkscape.org/namespaces/inkscape"
   inkscape:version="1.0 (4035a4f, 2020-05-01)"
   sodipodi:docname="app_icon_header.svg"
   xml:space="preserve"
   style="enable-background:new 0 0 1384.9 644;"
   viewBox="0 0 1384.9 644"
   y="0px"
   x="0px"
   id="svg8"
   version="1.1"><metadata
   id="metadata865"><rdf:RDF><cc:Work
       rdf:about=""><dc:format>image/svg+xml</dc:format><dc:type
         rdf:resource="http://purl.org/dc/dcmitype/StillImage" /></cc:Work></rdf:RDF></metadata><defs
   id="defs863" />
<style
   id="style833"
   type="text/css">
	.st0{fill:#FFFFFF;}
	.st1{fill:#050505;}
	.st2{font-family:'Ubuntu-Bold';}
	.st3{font-size:200px;}
</style>
<sodipodi:namedview
   units="px"
   showgrid="false"
   pagecolor="#ff28ff"
   inkscape:zoom="0.54083529"
   inkscape:window-y="23"
   inkscape:window-x="0"
   inkscape:window-width="1743"
   inkscape:window-maximized="1"
   inkscape:window-height="1075"
   inkscape:pageshadow="2"
   inkscape:pageopacity="0"
   inkscape:document-units="mm"
   inkscape:document-rotation="0"
   inkscape:cy="1025.2898"
   inkscape:cx="347.21882"
   inkscape:current-layer="svg8"
   id="base"
   borderopacity="1.0"
   bordercolor="#666666">
	</sodipodi:namedview>
<path
   d="M345.6,52.4c-62.2,0-112.9,50.6-112.9,112.9s50.6,112.9,112.9,112.9s113.6-50.6,113.6-112.9  S407.8,52.4,345.6,52.4z M379.5,120.1c6.2,0,11.3,5.1,11.3,11.3c0,6.2-5,11.3-11.3,11.3c-6.2,0-11.3-5.1-11.3-11.3  C368.2,125.1,373.2,120.1,379.5,120.1z M311.8,120.1c6.2,0,11.3,5.1,11.3,11.3c0,6.2-5.1,11.3-11.3,11.3s-11.3-5.1-11.3-11.3  C300.5,125.1,305.5,120.1,311.8,120.1z M399.7,183.3c-12.8,17-33,27.1-54.1,27.1s-41.4-10.1-54.1-27.1c-3.8-5-2.8-12.1,2.2-15.8  c5-3.8,12.1-2.7,15.8,2.2c17.3,23,54.9,23,72.2,0c3.7-5,10.8-6,15.8-2.2C402.5,171.3,403.5,178.3,399.7,183.3z"
   id="path878" />
<path
   id="path837"
   d="M344.9,299.5c-74.2,0-134.3-60.1-134.3-134.3c0-11.3,1.4-22.3,4-32.8c0-0.1,0-0.2,0.1-0.2c1-4,2.2-7.9,3.6-11.8H80.6  c-17.4,0-31.5,14.1-31.5,31.5V498c0,53.1,43.1,96.2,96.2,96.2h195.3c17.4,0,31.5-14.1,31.5-31.5v-11.7c-2.5-4.9-3.9-10.5-3.9-16.4  V354.8c0-5.9,1.4-11.4,3.9-16.3v-38.9H344.9z M91.2,291c2.7-2.7,6.5-4.4,10.7-4.4h138c8.4,0,15.2,6.8,15.2,15.2  c0,4.2-1.7,8-4.5,10.7c-2.7,2.8-6.5,4.5-10.7,4.5h-138c-8.4,0-15.2-6.8-15.2-15.2C86.7,297.6,88.4,293.8,91.2,291z M318.6,508.9  c-2.8,2.7-6.5,4.4-10.7,4.4h-206c-8.4,0-15.2-6.8-15.2-15.2c0-4.2,1.7-8,4.5-10.7c2.7-2.7,6.5-4.4,10.7-4.4h206  c8.4,0,15.2,6.8,15.2,15.2C323,502.4,321.3,506.2,318.6,508.9z M318.6,440.3c-2.8,2.7-6.5,4.4-10.7,4.4h-206  c-8.4,0-15.2-6.8-15.2-15.2c0-4.2,1.7-8,4.5-10.7c2.7-2.7,6.5-4.4,10.7-4.4h206c8.4,0,15.2,6.8,15.2,15.2  C323,433.8,321.3,437.6,318.6,440.3z M318.6,380.3c-2.8,2.7-6.5,4.4-10.7,4.4h-206c-8.4,0-15.2-6.8-15.2-15.2c0-4.2,1.7-8,4.5-10.7  c2.7-2.7,6.5-4.4,10.7-4.4h206c8.4,0,15.2,6.8,15.2,15.2C323,373.8,321.3,377.6,318.6,380.3z" />
<path
   id="path839"
   d="M409.2,300.5L409.2,300.5c-0.3,0-0.6-0.1-0.9-0.2c0,0,0,0,0,0c0,0,0,0,0,0c0,0,0,0,0,0c0,0,0,0,0,0c-0.1,0-0.2,0-0.3,0  c-0.2,0-0.3-0.1-0.5-0.1c-0.4-0.1-0.7-0.1-1.1-0.2c-0.3,0-0.6-0.1-0.9-0.1c-0.3,0-0.6-0.1-0.8-0.1c-0.7-0.1-1.5-0.1-2.2-0.2  c-0.3,0-0.6,0-0.9-0.1c-0.4,0-0.8,0-1.1-0.1c-0.9,0-1.8,0-2.7,0h-95.4c-32.7,0-59.8,23.8-65.1,54.9h70.6c8.4,0,15.2,6.8,15.2,15.2  c0,4.2-1.7,8-4.5,10.7c-2.8,2.7-6.5,4.4-10.7,4.4h-71.5v29.6h71.5c8.4,0,15.2,6.8,15.2,15.2c0,4.2-1.7,8-4.5,10.7  c-2.8,2.7-6.5,4.4-10.7,4.4h-71.5V483h71.5c8.4,0,15.2,6.8,15.2,15.2c0,4.2-1.7,8-4.5,10.7c-2.8,2.7-6.5,4.4-10.7,4.4h-71.5v15  c0,36.4,29.5,66,66,66h95.4c36.4,0,66-29.5,66-66V365.5C463.7,333,440.2,305.9,409.2,300.5z M439.8,534.7c0,19.8-16,35.8-35.8,35.8  c-9.9,0-18.8-4-25.3-10.5c-2.6-2.6-4.8-5.6-6.5-9c-2.5-4.9-3.9-10.5-3.9-16.4V354.8c0-5.9,1.4-11.4,3.9-16.3  c5.9-11.5,18-19.4,31.8-19.4c9.9,0,18.8,4,25.3,10.5c6.5,6.5,10.5,15.4,10.5,25.3V534.7z" />
<path
   id="path841"
   d="M463.7,351.3v34.2c0,10.8-10.2,19.8-23.9,22.1v-52.8c0-9.9-4-18.8-10.5-25.3C422.8,323,413.9,319,404,319  c-13.9,0-25.9,7.9-31.8,19.4c-2.5,4.9-3.9,10.5-3.9,16.3v-32.6c0-3.1,0.8-6,2.3-8.7c0.5-0.4,1.1-0.9,1.6-1.3  c8.5-6.6,19-10.9,30.5-11.8c1.4-0.1,2.9-0.2,4.4-0.2c0.4,0,0.8,0,1.2,0c0,0,0,0,0,0c0,0,0,0,0,0c0,0,0,0,0,0c0,0,0,0,0,0  C437.1,301,460.7,323.1,463.7,351.3z" />
<path
   id="path843"
   d="M214.7,132.4c-2.6,10.5-4,21.5-4,32.8v-3.4C210.6,151.7,212,141.8,214.7,132.4z" />
<path
   id="path845"
   d="M372.1,299.5h25.6c3.9,0,7.7,0.3,11.5,1h-37h-53c-5,0-9.9-0.3-14.7-1c-53-7.2-93.8-52.6-93.8-107.5v-26.8  c0,74.2,60.1,134.3,134.3,134.3H372.1z" />
<path
   d="M333.6,34.6c-62.2,0-112.9,50.6-112.9,112.9s50.6,112.9,112.9,112.9s113.6-50.6,113.6-112.9  S395.8,34.6,333.6,34.6z M367.4,102.3c6.2,0,11.3,5.1,11.3,11.3s-5,11.3-11.3,11.3c-6.2,0-11.3-5.1-11.3-11.3  S361.2,102.3,367.4,102.3z M299.7,102.3c6.2,0,11.3,5.1,11.3,11.3s-5.1,11.3-11.3,11.3s-11.3-5.1-11.3-11.3S293.5,102.3,299.7,102.3  z M387.7,165.6c-12.8,17-33,27.1-54.1,27.1s-41.4-10.1-54.1-27.1c-3.8-5-2.8-12.1,2.2-15.8c5-3.8,12.1-2.7,15.8,2.2  c17.3,23,54.9,23,72.2,0c3.7-5,10.8-6,15.8-2.2C390.4,153.5,391.4,160.6,387.7,165.6z"
   class="st0"
   id="path878_1_" />
<path
   id="path848"
   d="M332.8,281.8c-74.2,0-134.3-60.1-134.3-134.3c0-11.3,1.4-22.3,4-32.8c0-0.1,0-0.2,0.1-0.2c1-4,2.2-7.9,3.6-11.8  H68.6c-17.4,0-31.5,14.1-31.5,31.5v346.2c0,53.1,43.1,96.2,96.2,96.2h195.3c17.4,0,31.5-14.1,31.5-31.5v-11.7  c-2.5-4.9-3.9-10.5-3.9-16.4V337c0-5.9,1.4-11.4,3.9-16.3v-38.9H332.8z M79.1,273.3c2.7-2.7,6.5-4.4,10.7-4.4h138  c8.4,0,15.2,6.8,15.2,15.2c0,4.2-1.7,8-4.5,10.7c-2.7,2.8-6.5,4.5-10.7,4.5h-138c-8.4,0-15.2-6.8-15.2-15.2  C74.7,279.8,76.4,276,79.1,273.3z M306.5,491.2c-2.8,2.7-6.5,4.4-10.7,4.4h-206c-8.4,0-15.2-6.8-15.2-15.2c0-4.2,1.7-8,4.5-10.7  c2.7-2.7,6.5-4.4,10.7-4.4h206c8.4,0,15.2,6.8,15.2,15.2C311,484.6,309.3,488.4,306.5,491.2z M306.5,422.6  c-2.8,2.7-6.5,4.4-10.7,4.4h-206c-8.4,0-15.2-6.8-15.2-15.2c0-4.2,1.7-8,4.5-10.7c2.7-2.7,6.5-4.4,10.7-4.4h206  c8.4,0,15.2,6.8,15.2,15.2C311,416,309.3,419.8,306.5,422.6z M306.5,362.6c-2.8,2.7-6.5,4.4-10.7,4.4h-206  c-8.4,0-15.2-6.8-15.2-15.2c0-4.2,1.7-8,4.5-10.7c2.7-2.7,6.5-4.4,10.7-4.4h206c8.4,0,15.2,6.8,15.2,15.2  C311,356.1,309.3,359.8,306.5,362.6z"
   class="st0" />
<path
   id="path850"
   d="M397.1,282.8L397.1,282.8c-0.3,0-0.6-0.1-0.9-0.2c0,0,0,0,0,0c0,0,0,0,0,0c0,0,0,0,0,0c0,0,0,0,0,0  c-0.1,0-0.2,0-0.3,0c-0.2,0-0.3-0.1-0.5-0.1c-0.4-0.1-0.7-0.1-1.1-0.2c-0.3,0-0.6-0.1-0.9-0.1c-0.3,0-0.6-0.1-0.8-0.1  c-0.7-0.1-1.5-0.1-2.2-0.2c-0.3,0-0.6,0-0.9-0.1c-0.4,0-0.8,0-1.1-0.1c-0.9,0-1.8,0-2.7,0h-95.4c-32.7,0-59.8,23.8-65,54.9h70.6  c8.4,0,15.2,6.8,15.2,15.2c0,4.2-1.7,8-4.5,10.7c-2.8,2.7-6.5,4.4-10.7,4.4h-71.5v29.6h71.5c8.4,0,15.2,6.8,15.2,15.2  c0,4.2-1.7,8-4.5,10.7c-2.8,2.7-6.5,4.4-10.7,4.4h-71.5v38.2h71.5c8.4,0,15.2,6.8,15.2,15.2c0,4.2-1.7,8-4.5,10.7  c-2.8,2.7-6.5,4.4-10.7,4.4h-71.5v15c0,36.4,29.5,66,66,66h95.4c36.4,0,66-29.5,66-66V347.7C451.6,315.2,428.1,288.2,397.1,282.8z   M427.7,517c0,19.8-16,35.8-35.8,35.8c-9.9,0-18.8-4-25.3-10.5c-2.6-2.6-4.8-5.6-6.5-9c-2.5-4.9-3.9-10.5-3.9-16.4V337  c0-5.9,1.4-11.4,3.9-16.3c5.9-11.5,18-19.4,31.8-19.4c9.9,0,18.8,4,25.3,10.5c6.5,6.5,10.5,15.4,10.5,25.3V517z"
   class="st0" />
<path
   id="path852"
   d="M451.6,333.6v34.2c0,10.8-10.2,19.8-23.9,22.1V337c0-9.9-4-18.8-10.5-25.3c-6.5-6.5-15.4-10.5-25.3-10.5  c-13.9,0-25.9,7.9-31.8,19.4c-2.5,4.9-3.9,10.5-3.9,16.3v-32.6c0-3.1,0.8-6,2.3-8.7c0.5-0.4,1.1-0.9,1.6-1.3  c8.5-6.6,19-10.9,30.5-11.8c1.4-0.1,2.9-0.2,4.4-0.2c0.4,0,0.8,0,1.2,0c0,0,0,0,0,0c0,0,0,0,0,0c0,0,0,0,0,0c0,0,0,0,0,0  C425.1,283.2,448.7,305.3,451.6,333.6z"
   class="st0" />
<path
   id="path854"
   d="M202.6,114.7c-2.6,10.5-4,21.5-4,32.8v-3.4C198.6,133.9,200,124,202.6,114.7z"
   class="st0" />
<path
   id="path856"
   d="M360.1,281.8h25.6c3.9,0,7.7,0.3,11.5,1h-37.1h-53c-5,0-9.9-0.3-14.7-1c-52.9-7.2-93.8-52.6-93.8-107.5v-26.8  c0,74.2,60.1,134.3,134.3,134.3H360.1z"
   class="st0" />
<g
   class="st1 st2 st3"
   style="font-size:200px;font-family:Ubuntu-Bold;fill:#050505"
   id="text858"
   transform="matrix(1 0 0 1 517.5013 433.3069)"
   aria-label="Newsent"><path
     id="path882"
     style="font-size:200px;font-family:Ubuntu-Bold;fill:#050505"
     d="M 130.46875,0 H 106.54297 L 37.597656,-130.07812 V 0 H 19.53125 V -145.41016 H 49.511719 L 112.40234,-26.660156 V -145.41016 h 18.06641 z" /><path
     id="path884"
     style="font-size:200px;font-family:Ubuntu-Bold;fill:#050505"
     d="m 258.98437,-52.636719 h -80.37109 q 0,10.058594 3.02734,17.578125 3.02735,7.421875 8.30079,12.207032 5.07812,4.6875 12.01171,7.031249 7.03125,2.34375 15.42969,2.34375 11.13281,0 22.36328,-4.394531 11.32813,-4.492187 16.11328,-8.789062 h 0.97657 v 20.019531 q -9.27735,3.90625 -18.94532,6.54296875 -9.66796,2.63671875 -20.3125,2.63671875 -27.14843,0 -42.38281,-14.6484375 -15.23437,-14.746094 -15.23437,-41.796875 0,-26.757812 14.55078,-42.480469 14.64844,-15.722661 38.47656,-15.722661 22.07031,0 33.98438,12.89063 12.01171,12.890625 12.01171,36.621094 z m -17.87109,-14.0625 q -0.0977,-14.453125 -7.32422,-22.363281 -7.1289,-7.910156 -21.77734,-7.910156 -14.7461,0 -23.53516,8.691406 -8.6914,8.691406 -9.86328,21.582031 z" /><path
     id="path886"
     style="font-size:200px;font-family:Ubuntu-Bold;fill:#050505"
     d="M 424.02344,-109.08203 395.60547,0 H 378.61328 L 350.58594,-84.082031 322.75391,0 h -16.89454 l -28.71093,-109.08203 h 19.14062 l 20.01953,84.472655 27.2461,-84.472655 h 15.13672 l 27.92968,84.472655 18.94532,-84.472655 z" /><path
     id="path888"
     style="font-size:200px;font-family:Ubuntu-Bold;fill:#050505"
     d="m 528.41797,-31.445312 q 0,14.941406 -12.40235,24.5117183 -12.30468,9.5703125 -33.6914,9.5703125 -12.10938,0 -22.26563,-2.8320313 Q 450,-3.125 443.16406,-6.5429687 V -27.148437 h 0.97656 q 8.69141,6.542968 19.33594,10.449218 10.64453,3.808594 20.41016,3.808594 12.10937,0 18.94531,-3.90625 6.83594,-3.90625 6.83594,-12.304687 0,-6.445313 -3.71094,-9.765625 -3.71094,-3.320313 -14.25781,-5.664063 -3.90625,-0.878906 -10.25391,-2.050781 -6.25,-1.171875 -11.42578,-2.539063 -14.35547,-3.808593 -20.41016,-11.132812 -5.95703,-7.421875 -5.95703,-18.164063 0,-6.738281 2.73438,-12.695312 2.83203,-5.957031 8.49609,-10.644529 5.46875,-4.58985 13.86719,-7.22657 8.49609,-2.73437 18.94531,-2.73437 9.76563,0 19.72656,2.44141 10.0586,2.34375 16.69922,5.76171 v 19.628911 h -0.97656 q -7.03125,-5.175781 -17.08984,-8.691406 -10.0586,-3.613281 -19.72657,-3.613281 -10.05859,0 -16.99218,3.90625 -6.9336,3.808594 -6.9336,11.425781 0,6.738281 4.19922,10.15625 4.10156,3.417969 13.28125,5.566406 5.07813,1.171875 11.32813,2.34375 6.34765,1.171875 10.54687,2.148438 12.79297,2.929687 19.72656,10.058594 6.9336,7.226562 6.9336,19.140625 z" /><path
     id="path890"
     style="font-size:200px;font-family:Ubuntu-Bold;fill:#050505"
     d="m 646.09375,-52.636719 h -80.37109 q 0,10.058594 3.02734,17.578125 3.02734,7.421875 8.30078,12.207032 5.07813,4.6875 12.01172,7.031249 7.03125,2.34375 15.42969,2.34375 11.13281,0 22.36328,-4.394531 11.32812,-4.492187 16.11328,-8.789062 h 0.97656 V -6.640625 Q 634.66797,-2.734375 625,-0.09765625 615.33203,2.5390625 604.6875,2.5390625 q -27.14844,0 -42.38281,-14.6484375 -15.23438,-14.746094 -15.23438,-41.796875 0,-26.757812 14.55078,-42.480469 14.64844,-15.722661 38.47657,-15.722661 22.07031,0 33.98437,12.89063 12.01172,12.890625 12.01172,36.621094 z m -17.87109,-14.0625 q -0.0977,-14.453125 -7.32422,-22.363281 -7.12891,-7.910156 -21.77735,-7.910156 -14.74609,0 -23.53515,8.691406 -8.69141,8.691406 -9.86328,21.582031 z" /><path
     id="path892"
     style="font-size:200px;font-family:Ubuntu-Bold;fill:#050505"
     d="m 765.13672,0 h -18.35938 v -62.109375 q 0,-7.519531 -0.8789,-14.0625 -0.87891,-6.640625 -3.22266,-10.351562 -2.44141,-4.101563 -7.03125,-6.054688 -4.58984,-2.050781 -11.91406,-2.050781 -7.51953,0 -15.72266,3.710937 -8.20312,3.710938 -15.72265,9.472657 V 0 h -18.35938 v -109.08203 h 18.35938 v 12.109374 q 8.59375,-7.128904 17.77343,-11.132814 9.17969,-4.00391 18.84766,-4.00391 17.67578,0 26.95312,10.64454 9.27735,10.644528 9.27735,30.664059 z" /><path
     id="path894"
     style="font-size:200px;font-family:Ubuntu-Bold;fill:#050505"
     d="m 857.12891,-0.9765625 q -5.17579,1.3671875 -11.32813,2.2460937 -6.05469,0.8789063 -10.83984,0.8789063 -16.69922,0 -25.39063,-8.984375 -8.6914,-8.9843755 -8.6914,-28.8085935 v -58.007813 h -12.40235 v -15.429686 h 12.40235 v -31.34766 h 18.35937 v 31.34766 h 37.89063 v 15.429686 h -37.89063 v 49.707032 q 0,8.59375 0.39063,13.476562 0.39062,4.785156 2.73437,8.984375 2.14844,3.90625 5.85938,5.761719 3.80859,1.757812 11.52343,1.757812 4.49219,0 9.375,-1.269531 4.88282,-1.367187 7.03125,-2.246094 h 0.97657 z" /></g>
<g
   class="st0 st2 st3"
   style="font-size:200px;font-family:Ubuntu-Bold;fill:#ffffff"
   id="text860"
   transform="matrix(1 0 0 1 504.2664 420.7094)"
   aria-label="Newsent"><path
     id="path867"
     style="font-size:200px;font-family:Ubuntu-Bold;fill:#ffffff"
     d="M 130.46875,0 H 106.54297 L 37.597656,-130.07812 V 0 H 19.53125 V -145.41016 H 49.511719 L 112.40234,-26.660156 V -145.41016 h 18.06641 z" /><path
     id="path869"
     style="font-size:200px;font-family:Ubuntu-Bold;fill:#ffffff"
     d="m 258.98437,-52.636719 h -80.37109 q 0,10.058594 3.02734,17.578125 3.02735,7.421875 8.30079,12.207032 5.07812,4.6875 12.01171,7.031249 7.03125,2.34375 15.42969,2.34375 11.13281,0 22.36328,-4.394531 11.32813,-4.492187 16.11328,-8.789062 h 0.97657 v 20.019531 q -9.27735,3.90625 -18.94532,6.54296875 -9.66796,2.63671875 -20.3125,2.63671875 -27.14843,0 -42.38281,-14.6484375 -15.23437,-14.746094 -15.23437,-41.796875 0,-26.757812 14.55078,-42.480469 14.64844,-15.722661 38.47656,-15.722661 22.07031,0 33.98438,12.89063 12.01171,12.890625 12.01171,36.621094 z m -17.87109,-14.0625 q -0.0977,-14.453125 -7.32422,-22.363281 -7.1289,-7.910156 -21.77734,-7.910156 -14.7461,0 -23.53516,8.691406 -8.6914,8.691406 -9.86328,21.582031 z" /><path
     id="path871"
     style="font-size:200px;font-family:Ubuntu-Bold;fill:#ffffff"
     d="M 424.02344,-109.08203 395.60547,0 H 378.61328 L 350.58594,-84.082031 322.75391,0 h -16.89454 l -28.71093,-109.08203 h 19.14062 l 20.01953,84.472655 27.2461,-84.472655 h 15.13672 l 27.92968,84.472655 18.94532,-84.472655 z" /><path
     id="path873"
     style="font-size:200px;font-family:Ubuntu-Bold;fill:#ffffff"
     d="m 528.41797,-31.445312 q 0,14.941406 -12.40235,24.5117183 -12.30468,9.5703125 -33.6914,9.5703125 -12.10938,0 -22.26563,-2.8320313 Q 450,-3.125 443.16406,-6.5429687 V -27.148437 h 0.97656 q 8.69141,6.542968 19.33594,10.449218 10.64453,3.808594 20.41016,3.808594 12.10937,0 18.94531,-3.90625 6.83594,-3.90625 6.83594,-12.304687 0,-6.445313 -3.71094,-9.765625 -3.71094,-3.320313 -14.25781,-5.664063 -3.90625,-0.878906 -10.25391,-2.050781 -6.25,-1.171875 -11.42578,-2.539063 -14.35547,-3.808593 -20.41016,-11.132812 -5.95703,-7.421875 -5.95703,-18.164063 0,-6.738281 2.73438,-12.695312 2.83203,-5.957031 8.49609,-10.644529 5.46875,-4.58985 13.86719,-7.22657 8.49609,-2.73437 18.94531,-2.73437 9.76563,0 19.72656,2.44141 10.0586,2.34375 16.69922,5.76171 v 19.628911 h -0.97656 q -7.03125,-5.175781 -17.08984,-8.691406 -10.0586,-3.613281 -19.72657,-3.613281 -10.05859,0 -16.99218,3.90625 -6.9336,3.808594 -6.9336,11.425781 0,6.738281 4.19922,10.15625 4.10156,3.417969 13.28125,5.566406 5.07813,1.171875 11.32813,2.34375 6.34765,1.171875 10.54687,2.148438 12.79297,2.929687 19.72656,10.058594 6.9336,7.226562 6.9336,19.140625 z" /><path
     id="path875"
     style="font-size:200px;font-family:Ubuntu-Bold;fill:#ffffff"
     d="m 646.09375,-52.636719 h -80.37109 q 0,10.058594 3.02734,17.578125 3.02734,7.421875 8.30078,12.207032 5.07813,4.6875 12.01172,7.031249 7.03125,2.34375 15.42969,2.34375 11.13281,0 22.36328,-4.394531 11.32812,-4.492187 16.11328,-8.789062 h 0.97656 V -6.640625 Q 634.66797,-2.734375 625,-0.09765625 615.33203,2.5390625 604.6875,2.5390625 q -27.14844,0 -42.38281,-14.6484375 -15.23438,-14.746094 -15.23438,-41.796875 0,-26.757812 14.55078,-42.480469 14.64844,-15.722661 38.47657,-15.722661 22.07031,0 33.98437,12.89063 12.01172,12.890625 12.01172,36.621094 z m -17.87109,-14.0625 q -0.0977,-14.453125 -7.32422,-22.363281 -7.12891,-7.910156 -21.77735,-7.910156 -14.74609,0 -23.53515,8.691406 -8.69141,8.691406 -9.86328,21.582031 z" /><path
     id="path877"
     style="font-size:200px;font-family:Ubuntu-Bold;fill:#ffffff"
     d="m 765.13672,0 h -18.35938 v -62.109375 q 0,-7.519531 -0.8789,-14.0625 -0.87891,-6.640625 -3.22266,-10.351562 -2.44141,-4.101563 -7.03125,-6.054688 -4.58984,-2.050781 -11.91406,-2.050781 -7.51953,0 -15.72266,3.710937 -8.20312,3.710938 -15.72265,9.472657 V 0 h -18.35938 v -109.08203 h 18.35938 v 12.109374 q 8.59375,-7.128904 17.77343,-11.132814 9.17969,-4.00391 18.84766,-4.00391 17.67578,0 26.95312,10.64454 9.27735,10.644528 9.27735,30.664059 z" /><path
     id="path879"
     style="font-size:200px;font-family:Ubuntu-Bold;fill:#ffffff"
     d="m 857.12891,-0.9765625 q -5.17579,1.3671875 -11.32813,2.2460937 -6.05469,0.8789063 -10.83984,0.8789063 -16.69922,0 -25.39063,-8.984375 -8.6914,-8.9843755 -8.6914,-28.8085935 v -58.007813 h -12.40235 v -15.429686 h 12.40235 v -31.34766 h 18.35937 v 31.34766 h 37.89063 v 15.429686 h -37.89063 v 49.707032 q 0,8.59375 0.39063,13.476562 0.39062,4.785156 2.73437,8.984375 2.14844,3.90625 5.85938,5.761719 3.80859,1.757812 11.52343,1.757812 4.49219,0 9.375,-1.269531 4.88282,-1.367187 7.03125,-2.246094 h 0.97657 z" /></g>
</svg>
