<?xml version="1.0" encoding="utf-8"?>
<!-- Generator: Adobe Illustrator 24.0.2, SVG Export Plug-In . SVG Version: 6.00 Build 0)  -->
<svg version="1.1"
	 id="svg8" xmlns:cc="http://creativecommons.org/ns#" xmlns:dc="http://purl.org/dc/elements/1.1/" xmlns:inkscape="http://www.inkscape.org/namespaces/inkscape" xmlns:rdf="http://www.w3.org/1999/02/22-rdf-syntax-ns#" xmlns:sodipodi="http://sodipodi.sourceforge.net/DTD/sodipodi-0.dtd" xmlns:svg="http://www.w3.org/2000/svg"
	 xmlns="http://www.w3.org/2000/svg" xmlns:xlink="http://www.w3.org/1999/xlink" x="0px" y="0px" viewBox="0 0 2048 850"
	 style="enable-background:new 0 0 2048 850;" xml:space="preserve">
<style type="text/css">
	.st0{fill:#FFFFFF;}
	.st1{fill:#050505;}
	.st2{font-family:'Ubuntu-Bold';}
	.st3{font-size:200px;}
	.st4{font-family:'Ubuntu-Medium';}
	.st5{font-size:100px;}
</style>
<sodipodi:namedview  bordercolor="#666666" borderopacity="1.0" id="base" inkscape:current-layer="layer1" inkscape:cx="1026.25" inkscape:cy="767.5" inkscape:document-rotation="0" inkscape:document-units="mm" inkscape:pageopacity="0" inkscape:pageshadow="2" inkscape:window-height="1075" inkscape:window-maximized="1" inkscape:window-width="1741" inkscape:window-x="0" inkscape:window-y="23" inkscape:zoom="0.81839864" pagecolor="#ff28ff" showgrid="false" units="px">
	</sodipodi:namedview>
<path id="path878" d="M665.5,35.9c-62.2,0-112.9,50.6-112.9,112.9c0,62.2,50.6,112.9,112.9,112.9S779.1,211,779.1,148.8
	C779.1,86.5,727.7,35.9,665.5,35.9z M699.4,103.6c6.2,0,11.3,5.1,11.3,11.3s-5,11.3-11.3,11.3c-6.2,0-11.3-5.1-11.3-11.3
	S693.1,103.6,699.4,103.6z M631.6,103.6c6.2,0,11.3,5.1,11.3,11.3s-5.1,11.3-11.3,11.3s-11.3-5.1-11.3-11.3S625.4,103.6,631.6,103.6
	z M719.6,166.8c-12.8,17-33,27.1-54.1,27.1s-41.4-10.1-54.1-27.1c-3.8-5-2.8-12.1,2.2-15.8c5-3.8,12.1-2.7,15.8,2.2
	c17.3,23,54.9,23,72.2,0c3.7-5,10.8-6,15.8-2.2C722.4,154.8,723.4,161.9,719.6,166.8z"/>
<path d="M664.8,283c-74.2,0-134.3-60.1-134.3-134.3c0-11.3,1.4-22.3,4-32.8c0-0.1,0-0.2,0.1-0.2c1-4,2.2-7.9,3.6-11.8H400.5
	c-17.4,0-31.5,14.1-31.5,31.5v346.2c0,53.1,43.1,96.2,96.2,96.2h195.3c17.4,0,31.5-14.1,31.5-31.5v-11.7c-2.5-4.9-3.9-10.5-3.9-16.4
	V338.3c0-5.9,1.4-11.4,3.9-16.3V283H664.8z M411.1,274.6c2.7-2.7,6.5-4.4,10.7-4.4h138c8.4,0,15.2,6.8,15.2,15.2
	c0,4.2-1.7,8-4.5,10.7c-2.7,2.8-6.5,4.5-10.7,4.5h-138c-8.4,0-15.2-6.8-15.2-15.2C406.6,281.1,408.3,277.3,411.1,274.6z
	 M638.5,492.4c-2.8,2.7-6.5,4.4-10.7,4.4h-206c-8.4,0-15.2-6.8-15.2-15.2c0-4.2,1.7-8,4.5-10.7c2.7-2.7,6.5-4.4,10.7-4.4h206
	c8.4,0,15.2,6.8,15.2,15.2C642.9,485.9,641.2,489.7,638.5,492.4z M638.5,423.8c-2.8,2.7-6.5,4.4-10.7,4.4h-206
	c-8.4,0-15.2-6.8-15.2-15.2c0-4.2,1.7-8,4.5-10.7c2.7-2.7,6.5-4.4,10.7-4.4h206c8.4,0,15.2,6.8,15.2,15.2
	C642.9,417.3,641.2,421.1,638.5,423.8z M638.5,363.9c-2.8,2.7-6.5,4.4-10.7,4.4h-206c-8.4,0-15.2-6.8-15.2-15.2
	c0-4.2,1.7-8,4.5-10.7c2.7-2.7,6.5-4.4,10.7-4.4h206c8.4,0,15.2,6.8,15.2,15.2C642.9,357.3,641.2,361.1,638.5,363.9z"/>
<path d="M729.1,284L729.1,284c-0.3,0-0.6-0.1-0.9-0.2c0,0,0,0,0,0c0,0,0,0,0,0c0,0,0,0,0,0c0,0,0,0,0,0c-0.1,0-0.2,0-0.3,0
	c-0.2,0-0.3-0.1-0.5-0.1c-0.4-0.1-0.7-0.1-1.1-0.2c-0.3,0-0.6-0.1-0.9-0.1c-0.3,0-0.6-0.1-0.8-0.1c-0.7-0.1-1.5-0.1-2.2-0.2
	c-0.3,0-0.6,0-0.9-0.1c-0.4,0-0.8,0-1.1-0.1c-0.9,0-1.8,0-2.7,0h-95.4c-32.7,0-59.8,23.8-65,54.9h70.6c8.4,0,15.2,6.8,15.2,15.2
	c0,4.2-1.7,8-4.5,10.7c-2.8,2.7-6.5,4.4-10.7,4.4h-71.5v29.6h71.5c8.4,0,15.2,6.8,15.2,15.2c0,4.2-1.7,8-4.5,10.7
	c-2.8,2.7-6.5,4.4-10.7,4.4h-71.5v38.2h71.5c8.4,0,15.2,6.8,15.2,15.2c0,4.2-1.7,8-4.5,10.7c-2.8,2.7-6.5,4.4-10.7,4.4h-71.5v15
	c0,36.4,29.5,66,66,66h95.4c36.4,0,66-29.5,66-66V349C783.6,316.5,760,289.5,729.1,284z M759.6,518.3c0,19.8-16,35.8-35.8,35.8
	c-9.9,0-18.8-4-25.3-10.5c-2.6-2.6-4.8-5.6-6.5-9c-2.5-4.9-3.9-10.5-3.9-16.4V338.3c0-5.9,1.4-11.4,3.9-16.3
	c5.9-11.5,18-19.4,31.8-19.4c9.9,0,18.8,4,25.3,10.5c6.5,6.5,10.5,15.4,10.5,25.3V518.3z"/>
<path d="M783.6,334.8V369c0,10.8-10.2,19.8-23.9,22.1v-52.8c0-9.9-4-18.8-10.5-25.3c-6.5-6.5-15.4-10.5-25.3-10.5
	c-13.9,0-25.9,7.9-31.8,19.4c-2.5,4.9-3.9,10.5-3.9,16.3v-32.6c0-3.1,0.8-6,2.3-8.7c0.5-0.4,1.1-0.9,1.6-1.3
	c8.5-6.6,19-10.9,30.5-11.8c1.4-0.1,2.9-0.2,4.4-0.2c0.4,0,0.8,0,1.2,0c0,0,0,0,0,0c0,0,0,0,0,0c0,0,0,0,0,0c0,0,0,0,0,0
	C757,284.5,780.6,306.6,783.6,334.8z"/>
<path d="M534.6,115.9c-2.6,10.5-4,21.5-4,32.8v-3.4C530.5,135.2,531.9,125.3,534.6,115.9z"/>
<path d="M692,283h25.6c3.9,0,7.7,0.3,11.5,1h-37h-53c-5,0-9.9-0.3-14.7-1c-53-7.2-93.8-52.6-93.8-107.5v-26.8
	c0,74.2,60.1,134.3,134.3,134.3H692z"/>
<path id="path878_1_" class="st0" d="M653.4,18.1c-62.2,0-112.9,50.6-112.9,112.9s50.6,112.9,112.9,112.9S767.1,193.2,767.1,131
	S715.7,18.1,653.4,18.1z M687.3,85.9c6.2,0,11.3,5.1,11.3,11.3s-5,11.3-11.3,11.3c-6.2,0-11.3-5.1-11.3-11.3S681.1,85.9,687.3,85.9z
	 M619.6,85.9c6.2,0,11.3,5.1,11.3,11.3s-5.1,11.3-11.3,11.3s-11.3-5.1-11.3-11.3S613.3,85.9,619.6,85.9z M707.6,149.1
	c-12.8,17-33,27.1-54.1,27.1s-41.4-10.1-54.1-27.1c-3.8-5-2.8-12.1,2.2-15.8c5-3.8,12.1-2.7,15.8,2.2c17.3,23,54.9,23,72.2,0
	c3.7-5,10.8-6,15.8-2.2C710.3,137,711.3,144.1,707.6,149.1z"/>
<path class="st0" d="M652.7,265.3c-74.2,0-134.3-60.1-134.3-134.3c0-11.3,1.4-22.3,4-32.8c0-0.1,0-0.2,0.1-0.2c1-4,2.2-7.9,3.6-11.8
	H388.4c-17.4,0-31.5,14.1-31.5,31.5v346.2c0,53.1,43.1,96.2,96.2,96.2h195.3c17.4,0,31.5-14.1,31.5-31.5v-11.7
	c-2.5-4.9-3.9-10.5-3.9-16.4V320.6c0-5.9,1.4-11.4,3.9-16.3v-38.9H652.7z M399,256.8c2.7-2.7,6.5-4.4,10.7-4.4h138
	c8.4,0,15.2,6.8,15.2,15.2c0,4.2-1.7,8-4.5,10.7c-2.7,2.8-6.5,4.5-10.7,4.5h-138c-8.4,0-15.2-6.8-15.2-15.2
	C394.6,263.4,396.3,259.6,399,256.8z M626.4,474.7c-2.8,2.7-6.5,4.4-10.7,4.4h-206c-8.4,0-15.2-6.8-15.2-15.2c0-4.2,1.7-8,4.5-10.7
	c2.7-2.7,6.5-4.4,10.7-4.4h206c8.4,0,15.2,6.8,15.2,15.2C630.9,468.1,629.2,471.9,626.4,474.7z M626.4,406.1
	c-2.8,2.7-6.5,4.4-10.7,4.4h-206c-8.4,0-15.2-6.8-15.2-15.2c0-4.2,1.7-8,4.5-10.7c2.7-2.7,6.5-4.4,10.7-4.4h206
	c8.4,0,15.2,6.8,15.2,15.2C630.9,399.6,629.2,403.3,626.4,406.1z M626.4,346.1c-2.8,2.7-6.5,4.4-10.7,4.4h-206
	c-8.4,0-15.2-6.8-15.2-15.2c0-4.2,1.7-8,4.5-10.7c2.7-2.7,6.5-4.4,10.7-4.4h206c8.4,0,15.2,6.8,15.2,15.2
	C630.9,339.6,629.2,343.4,626.4,346.1z"/>
<path class="st0" d="M717,266.3L717,266.3c-0.3,0-0.6-0.1-0.9-0.2c0,0,0,0,0,0c0,0,0,0,0,0c0,0,0,0,0,0c0,0,0,0,0,0
	c-0.1,0-0.2,0-0.3,0c-0.2,0-0.3-0.1-0.5-0.1c-0.4-0.1-0.7-0.1-1.1-0.2c-0.3,0-0.6-0.1-0.9-0.1c-0.3,0-0.6-0.1-0.8-0.1
	c-0.7-0.1-1.5-0.1-2.2-0.2c-0.3,0-0.6,0-0.9-0.1c-0.4,0-0.8,0-1.1-0.1c-0.9,0-1.8,0-2.7,0h-95.4c-32.7,0-59.8,23.8-65,54.9h70.6
	c8.4,0,15.2,6.8,15.2,15.2c0,4.2-1.7,8-4.5,10.7c-2.8,2.7-6.5,4.4-10.7,4.4h-71.5v29.6h71.5c8.4,0,15.2,6.8,15.2,15.2
	c0,4.2-1.7,8-4.5,10.7c-2.8,2.7-6.5,4.4-10.7,4.4h-71.5v38.2h71.5c8.4,0,15.2,6.8,15.2,15.2c0,4.2-1.7,8-4.5,10.7
	c-2.8,2.7-6.5,4.4-10.7,4.4h-71.5v15c0,36.4,29.5,66,66,66h95.4c36.4,0,66-29.5,66-66V331.3C771.5,298.7,748,271.7,717,266.3z
	 M747.6,500.5c0,19.8-16,35.8-35.8,35.8c-9.9,0-18.8-4-25.3-10.5c-2.6-2.6-4.8-5.6-6.5-9c-2.5-4.9-3.9-10.5-3.9-16.4V320.6
	c0-5.9,1.4-11.4,3.9-16.3c5.9-11.5,18-19.4,31.8-19.4c9.9,0,18.8,4,25.3,10.5c6.5,6.5,10.5,15.4,10.5,25.3V500.5z"/>
<path class="st0" d="M771.5,317.1v34.2c0,10.8-10.2,19.8-23.9,22.1v-52.8c0-9.9-4-18.8-10.5-25.3c-6.5-6.5-15.4-10.5-25.3-10.5
	c-13.9,0-25.9,7.9-31.8,19.4c-2.5,4.9-3.9,10.5-3.9,16.3V288c0-3.1,0.8-6,2.3-8.7c0.5-0.4,1.1-0.9,1.6-1.3
	c8.5-6.6,19-10.9,30.5-11.8c1.4-0.1,2.9-0.2,4.4-0.2c0.4,0,0.8,0,1.2,0c0,0,0,0,0,0c0,0,0,0,0,0c0,0,0,0,0,0c0,0,0,0,0,0
	C745,266.8,768.5,288.9,771.5,317.1z"/>
<path class="st0" d="M522.5,98.2c-2.6,10.5-4,21.5-4,32.8v-3.4C518.4,117.4,519.9,107.6,522.5,98.2z"/>
<path class="st0" d="M679.9,265.3h25.6c3.9,0,7.7,0.3,11.5,1h-37h-53c-5,0-9.9-0.3-14.7-1c-53-7.2-93.8-52.6-93.8-107.5V131
	c0,74.2,60.1,134.3,134.3,134.3H679.9z"/>
<text transform="matrix(1 0 0 1 815.2937 566.3666)" class="st1 st2 st3">Newsent</text>
<text transform="matrix(1 0 0 1 802.0587 553.7691)" class="st0 st2 st3">Newsent</text>
<text transform="matrix(1 0 0 1 597.036 797.2371)" class="st4 st5">Find Calm In Chaos</text>
<path d="M1711.1,642.2H349.4c-7.8,0-14.2-6.3-14.2-14.2v0c0-7.8,6.3-14.2,14.2-14.2h1361.8c7.8,0,14.2,6.3,14.2,14.2v0
	C1725.3,635.9,1719,642.2,1711.1,642.2z"/>
<path class="st0" d="M1698.6,627.6H336.9c-7.8,0-14.2-6.3-14.2-14.2v0c0-7.8,6.3-14.2,14.2-14.2h1361.8c7.8,0,14.2,6.3,14.2,14.2v0
	C1712.8,621.2,1706.5,627.6,1698.6,627.6z"/>
<text transform="matrix(1 0 0 1 591.5389 793.2368)" class="st0 st4 st5">Find Calm In Chaos</text>
</svg>
