<?xml version="1.0" encoding="utf-8"?>
<!-- Generator: Adobe Illustrator 24.0.2, SVG Export Plug-In . SVG Version: 6.00 Build 0)  -->
<svg version="1.1"
	 id="svg8" xmlns:cc="http://creativecommons.org/ns#" xmlns:dc="http://purl.org/dc/elements/1.1/" xmlns:inkscape="http://www.inkscape.org/namespaces/inkscape" xmlns:rdf="http://www.w3.org/1999/02/22-rdf-syntax-ns#" xmlns:sodipodi="http://sodipodi.sourceforge.net/DTD/sodipodi-0.dtd" xmlns:svg="http://www.w3.org/2000/svg"
	 xmlns="http://www.w3.org/2000/svg" xmlns:xlink="http://www.w3.org/1999/xlink" x="0px" y="0px" viewBox="0 0 1384.9 644"
	 style="enable-background:new 0 0 1384.9 644;" xml:space="preserve">
<style type="text/css">
	.st0{fill:#FFFFFF;}
</style>
<sodipodi:namedview  bordercolor="#666666" borderopacity="1.0" id="base" inkscape:current-layer="svg8" inkscape:cx="347.21882" inkscape:cy="1025.2898" inkscape:document-rotation="0" inkscape:document-units="mm" inkscape:pageopacity="0" inkscape:pageshadow="2" inkscape:window-height="1075" inkscape:window-maximized="1" inkscape:window-width="1743" inkscape:window-x="0" inkscape:window-y="23" inkscape:zoom="0.54083529" pagecolor="#ff28ff" showgrid="false" units="px">
	</sodipodi:namedview>
<path id="path878" d="M828,53.3c-62.2,0-112.9,50.6-112.9,112.9S765.7,279.1,828,279.1s113.6-50.6,113.6-112.9S890.2,53.3,828,53.3z
	 M861.9,121c6.2,0,11.3,5.1,11.3,11.3s-5,11.3-11.3,11.3c-6.2,0-11.3-5.1-11.3-11.3C850.6,126,855.6,121,861.9,121z M794.2,121
	c6.2,0,11.3,5.1,11.3,11.3s-5.1,11.3-11.3,11.3c-6.2,0-11.3-5.1-11.3-11.3C782.9,126,787.9,121,794.2,121z M882.1,184.2
	c-12.8,17-33,27.1-54.1,27.1c-21.1,0-41.4-10.1-54.1-27.1c-3.8-5-2.8-12.1,2.2-15.8c5-3.8,12.1-2.7,15.8,2.2c17.3,23,54.9,23,72.2,0
	c3.7-5,10.8-6,15.8-2.2S885.9,179.2,882.1,184.2z"/>
<path id="path837" d="M827.3,300.4c-74.2,0-134.3-60.1-134.3-134.3c0-11.3,1.4-22.3,4-32.8c0-0.1,0-0.2,0.1-0.2
	c1-4,2.2-7.9,3.6-11.8H563c-17.4,0-31.5,14.1-31.5,31.5v346.1c0,53.1,43.1,96.2,96.2,96.2H823c17.4,0,31.5-14.1,31.5-31.5v-11.7
	c-2.5-4.9-3.9-10.5-3.9-16.4V355.7c0-5.9,1.4-11.4,3.9-16.3v-38.9h-27.2V300.4z M573.6,291.9c2.7-2.7,6.5-4.4,10.7-4.4h138
	c8.4,0,15.2,6.8,15.2,15.2c0,4.2-1.7,8-4.5,10.7c-2.7,2.8-6.5,4.5-10.7,4.5h-138c-8.4,0-15.2-6.8-15.2-15.2
	C569.1,298.5,570.8,294.7,573.6,291.9z M801,509.8c-2.8,2.7-6.5,4.4-10.7,4.4h-206c-8.4,0-15.2-6.8-15.2-15.2c0-4.2,1.7-8,4.5-10.7
	c2.7-2.7,6.5-4.4,10.7-4.4h206c8.4,0,15.2,6.8,15.2,15.2C805.4,503.3,803.7,507.1,801,509.8z M801,441.2c-2.8,2.7-6.5,4.4-10.7,4.4
	h-206c-8.4,0-15.2-6.8-15.2-15.2c0-4.2,1.7-8,4.5-10.7c2.7-2.7,6.5-4.4,10.7-4.4h206c8.4,0,15.2,6.8,15.2,15.2
	C805.4,434.7,803.7,438.5,801,441.2z M801,381.2c-2.8,2.7-6.5,4.4-10.7,4.4h-206c-8.4,0-15.2-6.8-15.2-15.2c0-4.2,1.7-8,4.5-10.7
	c2.7-2.7,6.5-4.4,10.7-4.4h206c8.4,0,15.2,6.8,15.2,15.2C805.4,374.7,803.7,378.5,801,381.2z"/>
<path id="path839" d="M891.6,301.4L891.6,301.4c-0.3,0-0.6-0.1-0.9-0.2l0,0l0,0l0,0l0,0c-0.1,0-0.2,0-0.3,0c-0.2,0-0.3-0.1-0.5-0.1
	c-0.4-0.1-0.7-0.1-1.1-0.2c-0.3,0-0.6-0.1-0.9-0.1s-0.6-0.1-0.8-0.1c-0.7-0.1-1.5-0.1-2.2-0.2c-0.3,0-0.6,0-0.9-0.1
	c-0.4,0-0.8,0-1.1-0.1c-0.9,0-1.8,0-2.7,0h-95.4c-32.7,0-59.8,23.8-65.1,54.9h70.6c8.4,0,15.2,6.8,15.2,15.2c0,4.2-1.7,8-4.5,10.7
	s-6.5,4.4-10.7,4.4h-71.5v29.6h71.5c8.4,0,15.2,6.8,15.2,15.2c0,4.2-1.7,8-4.5,10.7s-6.5,4.4-10.7,4.4h-71.5v38.5h71.5
	c8.4,0,15.2,6.8,15.2,15.2c0,4.2-1.7,8-4.5,10.7c-2.8,2.7-6.5,4.4-10.7,4.4h-71.5v15c0,36.4,29.5,66,66,66h95.4
	c36.4,0,66-29.5,66-66V366.4C946.1,333.9,922.6,306.8,891.6,301.4z M922.2,535.6c0,19.8-16,35.8-35.8,35.8c-9.9,0-18.8-4-25.3-10.5
	c-2.6-2.6-4.8-5.6-6.5-9c-2.5-4.9-3.9-10.5-3.9-16.4V355.7c0-5.9,1.4-11.4,3.9-16.3c5.9-11.5,18-19.4,31.8-19.4
	c9.9,0,18.8,4,25.3,10.5s10.5,15.4,10.5,25.3V535.6z"/>
<path id="path841" d="M946.1,352.2v34.2c0,10.8-10.2,19.8-23.9,22.1v-52.8c0-9.9-4-18.8-10.5-25.3c-6.5-6.5-15.4-10.5-25.3-10.5
	c-13.9,0-25.9,7.9-31.8,19.4c-2.5,4.9-3.9,10.5-3.9,16.3V323c0-3.1,0.8-6,2.3-8.7c0.5-0.4,1.1-0.9,1.6-1.3
	c8.5-6.6,19-10.9,30.5-11.8c1.4-0.1,2.9-0.2,4.4-0.2c0.4,0,0.8,0,1.2,0l0,0l0,0l0,0l0,0C919.5,301.9,943.1,324,946.1,352.2z"/>
<path id="path843" d="M697.1,133.3c-2.6,10.5-4,21.5-4,32.8v-3.4C693,152.6,694.4,142.7,697.1,133.3z"/>
<path id="path845" d="M854.5,300.4h25.6c3.9,0,7.7,0.3,11.5,1h-37h-53c-5,0-9.9-0.3-14.7-1c-53-7.2-93.8-52.6-93.8-107.5v-26.8
	c0,74.2,60.1,134.3,134.3,134.3H854.5z"/>
<path id="path878_1_" class="st0" d="M816,35.5c-62.2,0-112.9,50.6-112.9,112.9S753.7,261.3,816,261.3s113.6-50.6,113.6-112.9
	S878.2,35.5,816,35.5z M849.8,103.2c6.2,0,11.3,5.1,11.3,11.3s-5,11.3-11.3,11.3c-6.2,0-11.3-5.1-11.3-11.3S843.6,103.2,849.8,103.2
	z M782.1,103.2c6.2,0,11.3,5.1,11.3,11.3s-5.1,11.3-11.3,11.3c-6.2,0-11.3-5.1-11.3-11.3S775.9,103.2,782.1,103.2z M870.1,166.5
	c-12.8,17-33,27.1-54.1,27.1c-21.1,0-41.4-10.1-54.1-27.1c-3.8-5-2.8-12.1,2.2-15.8c5-3.8,12.1-2.7,15.8,2.2c17.3,23,54.9,23,72.2,0
	c3.7-5,10.8-6,15.8-2.2C872.8,154.4,873.8,161.5,870.1,166.5z"/>
<path id="path848" class="st0" d="M815.2,282.7c-74.2,0-134.3-60.1-134.3-134.3c0-11.3,1.4-22.3,4-32.8c0-0.1,0-0.2,0.1-0.2
	c1-4,2.2-7.9,3.6-11.8H551c-17.4,0-31.5,14.1-31.5,31.5v346.2c0,53.1,43.1,96.2,96.2,96.2H811c17.4,0,31.5-14.1,31.5-31.5v-11.7
	c-2.5-4.9-3.9-10.5-3.9-16.4v-180c0-5.9,1.4-11.4,3.9-16.3v-38.9L815.2,282.7L815.2,282.7z M561.5,274.2c2.7-2.7,6.5-4.4,10.7-4.4
	h138c8.4,0,15.2,6.8,15.2,15.2c0,4.2-1.7,8-4.5,10.7c-2.7,2.8-6.5,4.5-10.7,4.5h-138c-8.4,0-15.2-6.8-15.2-15.2
	C557.1,280.7,558.8,276.9,561.5,274.2z M788.9,492.1c-2.8,2.7-6.5,4.4-10.7,4.4h-206c-8.4,0-15.2-6.8-15.2-15.2
	c0-4.2,1.7-8,4.5-10.7c2.7-2.7,6.5-4.4,10.7-4.4h206c8.4,0,15.2,6.8,15.2,15.2C793.4,485.5,791.7,489.3,788.9,492.1z M788.9,423.5
	c-2.8,2.7-6.5,4.4-10.7,4.4h-206c-8.4,0-15.2-6.8-15.2-15.2c0-4.2,1.7-8,4.5-10.7c2.7-2.7,6.5-4.4,10.7-4.4h206
	c8.4,0,15.2,6.8,15.2,15.2C793.4,416.9,791.7,420.7,788.9,423.5z M788.9,363.5c-2.8,2.7-6.5,4.4-10.7,4.4h-206
	c-8.4,0-15.2-6.8-15.2-15.2c0-4.2,1.7-8,4.5-10.7c2.7-2.7,6.5-4.4,10.7-4.4h206c8.4,0,15.2,6.8,15.2,15.2
	C793.4,357,791.7,360.7,788.9,363.5z"/>
<path id="path850" class="st0" d="M879.5,283.7L879.5,283.7c-0.3,0-0.6-0.1-0.9-0.2l0,0l0,0l0,0l0,0c-0.1,0-0.2,0-0.3,0
	c-0.2,0-0.3-0.1-0.5-0.1c-0.4-0.1-0.7-0.1-1.1-0.2c-0.3,0-0.6-0.1-0.9-0.1s-0.6-0.1-0.8-0.1c-0.7-0.1-1.5-0.1-2.2-0.2
	c-0.3,0-0.6,0-0.9-0.1c-0.4,0-0.8,0-1.1-0.1c-0.9,0-1.8,0-2.7,0h-95.4c-32.7,0-59.8,23.8-65,54.9h70.6c8.4,0,15.2,6.8,15.2,15.2
	c0,4.2-1.7,8-4.5,10.7s-6.5,4.4-10.7,4.4h-71.5v29.6h71.5c8.4,0,15.2,6.8,15.2,15.2c0,4.2-1.7,8-4.5,10.7s-6.5,4.4-10.7,4.4h-71.5
	v38.2h71.5c8.4,0,15.2,6.8,15.2,15.2c0,4.2-1.7,8-4.5,10.7s-6.5,4.4-10.7,4.4h-71.5v15c0,36.4,29.5,66,66,66h95.4
	c36.4,0,66-29.5,66-66V348.6C934,316.1,910.5,289.1,879.5,283.7z M910.1,517.9c0,19.8-16,35.8-35.8,35.8c-9.9,0-18.8-4-25.3-10.5
	c-2.6-2.6-4.8-5.6-6.5-9c-2.5-4.9-3.9-10.5-3.9-16.4V337.9c0-5.9,1.4-11.4,3.9-16.3c5.9-11.5,18-19.4,31.8-19.4
	c9.9,0,18.8,4,25.3,10.5s10.5,15.4,10.5,25.3V517.9z"/>
<path id="path852" class="st0" d="M934,334.5v34.2c0,10.8-10.2,19.8-23.9,22.1v-52.9c0-9.9-4-18.8-10.5-25.3s-15.4-10.5-25.3-10.5
	c-13.9,0-25.9,7.9-31.8,19.4c-2.5,4.9-3.9,10.5-3.9,16.3v-32.6c0-3.1,0.8-6,2.3-8.7c0.5-0.4,1.1-0.9,1.6-1.3
	c8.5-6.6,19-10.9,30.5-11.8c1.4-0.1,2.9-0.2,4.4-0.2c0.4,0,0.8,0,1.2,0l0,0l0,0l0,0l0,0C907.5,284.1,931.1,306.2,934,334.5z"/>
<path id="path854" class="st0" d="M685,115.6c-2.6,10.5-4,21.5-4,32.8V145C681,134.8,682.4,124.9,685,115.6z"/>
<path id="path856" class="st0" d="M842.5,282.7h25.6c3.9,0,7.7,0.3,11.5,1h-37.1h-53c-5,0-9.9-0.3-14.7-1
	c-52.9-7.2-93.8-52.6-93.8-107.5v-26.8c0,74.2,60.1,134.3,134.3,134.3H842.5z"/>
</svg>
