<?xml version="1.0" encoding="UTF-8" standalone="no"?>
<svg
   xmlns:dc="http://purl.org/dc/elements/1.1/"
   xmlns:cc="http://creativecommons.org/ns#"
   xmlns:rdf="http://www.w3.org/1999/02/22-rdf-syntax-ns#"
   xmlns:svg="http://www.w3.org/2000/svg"
   xmlns="http://www.w3.org/2000/svg"
   xmlns:sodipodi="http://sodipodi.sourceforge.net/DTD/sodipodi-0.dtd"
   xmlns:inkscape="http://www.inkscape.org/namespaces/inkscape"
   inkscape:version="1.0 (4035a4f, 2020-05-01)"
   sodipodi:docname="app_icon.svg"
   xml:space="preserve"
   style="enable-background:new 0 0 2048 850;"
   viewBox="0 0 2048 850"
   y="0px"
   x="0px"
   id="svg8"
   version="1.1"><metadata
   id="metadata873"><rdf:RDF><cc:Work
       rdf:about=""><dc:format>image/svg+xml</dc:format><dc:type
         rdf:resource="http://purl.org/dc/dcmitype/StillImage" /></cc:Work></rdf:RDF></metadata><defs
   id="defs871" />
<style
   id="style833"
   type="text/css">
	.st0{fill:#FFFFFF;}
	.st1{fill:#050505;}
	.st2{font-family:'Ubuntu-Bold';}
	.st3{font-size:200px;}
	.st4{font-family:'Ubuntu-Medium';}
	.st5{font-size:100px;}
</style>
<sodipodi:namedview
   units="px"
   showgrid="false"
   pagecolor="#ff28ff"
   inkscape:zoom="0.81839864"
   inkscape:window-y="23"
   inkscape:window-x="0"
   inkscape:window-width="1743"
   inkscape:window-maximized="1"
   inkscape:window-height="1075"
   inkscape:pageshadow="2"
   inkscape:pageopacity="0"
   inkscape:document-units="mm"
   inkscape:document-rotation="0"
   inkscape:cy="767.5"
   inkscape:cx="1026.25"
   inkscape:current-layer="svg8"
   id="base"
   borderopacity="1.0"
   bordercolor="#666666">
	</sodipodi:namedview>
<path
   d="M665.5,35.9c-62.2,0-112.9,50.6-112.9,112.9c0,62.2,50.6,112.9,112.9,112.9S779.1,211,779.1,148.8  C779.1,86.5,727.7,35.9,665.5,35.9z M699.4,103.6c6.2,0,11.3,5.1,11.3,11.3s-5,11.3-11.3,11.3c-6.2,0-11.3-5.1-11.3-11.3  S693.1,103.6,699.4,103.6z M631.6,103.6c6.2,0,11.3,5.1,11.3,11.3s-5.1,11.3-11.3,11.3s-11.3-5.1-11.3-11.3S625.4,103.6,631.6,103.6  z M719.6,166.8c-12.8,17-33,27.1-54.1,27.1s-41.4-10.1-54.1-27.1c-3.8-5-2.8-12.1,2.2-15.8c5-3.8,12.1-2.7,15.8,2.2  c17.3,23,54.9,23,72.2,0c3.7-5,10.8-6,15.8-2.2C722.4,154.8,723.4,161.9,719.6,166.8z"
   id="path878" />
<path
   id="path837"
   d="M664.8,283c-74.2,0-134.3-60.1-134.3-134.3c0-11.3,1.4-22.3,4-32.8c0-0.1,0-0.2,0.1-0.2c1-4,2.2-7.9,3.6-11.8H400.5  c-17.4,0-31.5,14.1-31.5,31.5v346.2c0,53.1,43.1,96.2,96.2,96.2h195.3c17.4,0,31.5-14.1,31.5-31.5v-11.7c-2.5-4.9-3.9-10.5-3.9-16.4  V338.3c0-5.9,1.4-11.4,3.9-16.3V283H664.8z M411.1,274.6c2.7-2.7,6.5-4.4,10.7-4.4h138c8.4,0,15.2,6.8,15.2,15.2  c0,4.2-1.7,8-4.5,10.7c-2.7,2.8-6.5,4.5-10.7,4.5h-138c-8.4,0-15.2-6.8-15.2-15.2C406.6,281.1,408.3,277.3,411.1,274.6z   M638.5,492.4c-2.8,2.7-6.5,4.4-10.7,4.4h-206c-8.4,0-15.2-6.8-15.2-15.2c0-4.2,1.7-8,4.5-10.7c2.7-2.7,6.5-4.4,10.7-4.4h206  c8.4,0,15.2,6.8,15.2,15.2C642.9,485.9,641.2,489.7,638.5,492.4z M638.5,423.8c-2.8,2.7-6.5,4.4-10.7,4.4h-206  c-8.4,0-15.2-6.8-15.2-15.2c0-4.2,1.7-8,4.5-10.7c2.7-2.7,6.5-4.4,10.7-4.4h206c8.4,0,15.2,6.8,15.2,15.2  C642.9,417.3,641.2,421.1,638.5,423.8z M638.5,363.9c-2.8,2.7-6.5,4.4-10.7,4.4h-206c-8.4,0-15.2-6.8-15.2-15.2  c0-4.2,1.7-8,4.5-10.7c2.7-2.7,6.5-4.4,10.7-4.4h206c8.4,0,15.2,6.8,15.2,15.2C642.9,357.3,641.2,361.1,638.5,363.9z" />
<path
   id="path839"
   d="M729.1,284L729.1,284c-0.3,0-0.6-0.1-0.9-0.2c0,0,0,0,0,0c0,0,0,0,0,0c0,0,0,0,0,0c0,0,0,0,0,0c-0.1,0-0.2,0-0.3,0  c-0.2,0-0.3-0.1-0.5-0.1c-0.4-0.1-0.7-0.1-1.1-0.2c-0.3,0-0.6-0.1-0.9-0.1c-0.3,0-0.6-0.1-0.8-0.1c-0.7-0.1-1.5-0.1-2.2-0.2  c-0.3,0-0.6,0-0.9-0.1c-0.4,0-0.8,0-1.1-0.1c-0.9,0-1.8,0-2.7,0h-95.4c-32.7,0-59.8,23.8-65,54.9h70.6c8.4,0,15.2,6.8,15.2,15.2  c0,4.2-1.7,8-4.5,10.7c-2.8,2.7-6.5,4.4-10.7,4.4h-71.5v29.6h71.5c8.4,0,15.2,6.8,15.2,15.2c0,4.2-1.7,8-4.5,10.7  c-2.8,2.7-6.5,4.4-10.7,4.4h-71.5v38.2h71.5c8.4,0,15.2,6.8,15.2,15.2c0,4.2-1.7,8-4.5,10.7c-2.8,2.7-6.5,4.4-10.7,4.4h-71.5v15  c0,36.4,29.5,66,66,66h95.4c36.4,0,66-29.5,66-66V349C783.6,316.5,760,289.5,729.1,284z M759.6,518.3c0,19.8-16,35.8-35.8,35.8  c-9.9,0-18.8-4-25.3-10.5c-2.6-2.6-4.8-5.6-6.5-9c-2.5-4.9-3.9-10.5-3.9-16.4V338.3c0-5.9,1.4-11.4,3.9-16.3  c5.9-11.5,18-19.4,31.8-19.4c9.9,0,18.8,4,25.3,10.5c6.5,6.5,10.5,15.4,10.5,25.3V518.3z" />
<path
   id="path841"
   d="M783.6,334.8V369c0,10.8-10.2,19.8-23.9,22.1v-52.8c0-9.9-4-18.8-10.5-25.3c-6.5-6.5-15.4-10.5-25.3-10.5  c-13.9,0-25.9,7.9-31.8,19.4c-2.5,4.9-3.9,10.5-3.9,16.3v-32.6c0-3.1,0.8-6,2.3-8.7c0.5-0.4,1.1-0.9,1.6-1.3  c8.5-6.6,19-10.9,30.5-11.8c1.4-0.1,2.9-0.2,4.4-0.2c0.4,0,0.8,0,1.2,0c0,0,0,0,0,0c0,0,0,0,0,0c0,0,0,0,0,0c0,0,0,0,0,0  C757,284.5,780.6,306.6,783.6,334.8z" />
<path
   id="path843"
   d="M534.6,115.9c-2.6,10.5-4,21.5-4,32.8v-3.4C530.5,135.2,531.9,125.3,534.6,115.9z" />
<path
   id="path845"
   d="M692,283h25.6c3.9,0,7.7,0.3,11.5,1h-37h-53c-5,0-9.9-0.3-14.7-1c-53-7.2-93.8-52.6-93.8-107.5v-26.8  c0,74.2,60.1,134.3,134.3,134.3H692z" />
<path
   d="M653.4,18.1c-62.2,0-112.9,50.6-112.9,112.9s50.6,112.9,112.9,112.9S767.1,193.2,767.1,131  S715.7,18.1,653.4,18.1z M687.3,85.9c6.2,0,11.3,5.1,11.3,11.3s-5,11.3-11.3,11.3c-6.2,0-11.3-5.1-11.3-11.3S681.1,85.9,687.3,85.9z   M619.6,85.9c6.2,0,11.3,5.1,11.3,11.3s-5.1,11.3-11.3,11.3s-11.3-5.1-11.3-11.3S613.3,85.9,619.6,85.9z M707.6,149.1  c-12.8,17-33,27.1-54.1,27.1s-41.4-10.1-54.1-27.1c-3.8-5-2.8-12.1,2.2-15.8c5-3.8,12.1-2.7,15.8,2.2c17.3,23,54.9,23,72.2,0  c3.7-5,10.8-6,15.8-2.2C710.3,137,711.3,144.1,707.6,149.1z"
   class="st0"
   id="path878_1_" />
<path
   id="path848"
   d="M652.7,265.3c-74.2,0-134.3-60.1-134.3-134.3c0-11.3,1.4-22.3,4-32.8c0-0.1,0-0.2,0.1-0.2c1-4,2.2-7.9,3.6-11.8  H388.4c-17.4,0-31.5,14.1-31.5,31.5v346.2c0,53.1,43.1,96.2,96.2,96.2h195.3c17.4,0,31.5-14.1,31.5-31.5v-11.7  c-2.5-4.9-3.9-10.5-3.9-16.4V320.6c0-5.9,1.4-11.4,3.9-16.3v-38.9H652.7z M399,256.8c2.7-2.7,6.5-4.4,10.7-4.4h138  c8.4,0,15.2,6.8,15.2,15.2c0,4.2-1.7,8-4.5,10.7c-2.7,2.8-6.5,4.5-10.7,4.5h-138c-8.4,0-15.2-6.8-15.2-15.2  C394.6,263.4,396.3,259.6,399,256.8z M626.4,474.7c-2.8,2.7-6.5,4.4-10.7,4.4h-206c-8.4,0-15.2-6.8-15.2-15.2c0-4.2,1.7-8,4.5-10.7  c2.7-2.7,6.5-4.4,10.7-4.4h206c8.4,0,15.2,6.8,15.2,15.2C630.9,468.1,629.2,471.9,626.4,474.7z M626.4,406.1  c-2.8,2.7-6.5,4.4-10.7,4.4h-206c-8.4,0-15.2-6.8-15.2-15.2c0-4.2,1.7-8,4.5-10.7c2.7-2.7,6.5-4.4,10.7-4.4h206  c8.4,0,15.2,6.8,15.2,15.2C630.9,399.6,629.2,403.3,626.4,406.1z M626.4,346.1c-2.8,2.7-6.5,4.4-10.7,4.4h-206  c-8.4,0-15.2-6.8-15.2-15.2c0-4.2,1.7-8,4.5-10.7c2.7-2.7,6.5-4.4,10.7-4.4h206c8.4,0,15.2,6.8,15.2,15.2  C630.9,339.6,629.2,343.4,626.4,346.1z"
   class="st0" />
<path
   id="path850"
   d="M717,266.3L717,266.3c-0.3,0-0.6-0.1-0.9-0.2c0,0,0,0,0,0c0,0,0,0,0,0c0,0,0,0,0,0c0,0,0,0,0,0  c-0.1,0-0.2,0-0.3,0c-0.2,0-0.3-0.1-0.5-0.1c-0.4-0.1-0.7-0.1-1.1-0.2c-0.3,0-0.6-0.1-0.9-0.1c-0.3,0-0.6-0.1-0.8-0.1  c-0.7-0.1-1.5-0.1-2.2-0.2c-0.3,0-0.6,0-0.9-0.1c-0.4,0-0.8,0-1.1-0.1c-0.9,0-1.8,0-2.7,0h-95.4c-32.7,0-59.8,23.8-65,54.9h70.6  c8.4,0,15.2,6.8,15.2,15.2c0,4.2-1.7,8-4.5,10.7c-2.8,2.7-6.5,4.4-10.7,4.4h-71.5v29.6h71.5c8.4,0,15.2,6.8,15.2,15.2  c0,4.2-1.7,8-4.5,10.7c-2.8,2.7-6.5,4.4-10.7,4.4h-71.5v38.2h71.5c8.4,0,15.2,6.8,15.2,15.2c0,4.2-1.7,8-4.5,10.7  c-2.8,2.7-6.5,4.4-10.7,4.4h-71.5v15c0,36.4,29.5,66,66,66h95.4c36.4,0,66-29.5,66-66V331.3C771.5,298.7,748,271.7,717,266.3z   M747.6,500.5c0,19.8-16,35.8-35.8,35.8c-9.9,0-18.8-4-25.3-10.5c-2.6-2.6-4.8-5.6-6.5-9c-2.5-4.9-3.9-10.5-3.9-16.4V320.6  c0-5.9,1.4-11.4,3.9-16.3c5.9-11.5,18-19.4,31.8-19.4c9.9,0,18.8,4,25.3,10.5c6.5,6.5,10.5,15.4,10.5,25.3V500.5z"
   class="st0" />
<path
   id="path852"
   d="M771.5,317.1v34.2c0,10.8-10.2,19.8-23.9,22.1v-52.8c0-9.9-4-18.8-10.5-25.3c-6.5-6.5-15.4-10.5-25.3-10.5  c-13.9,0-25.9,7.9-31.8,19.4c-2.5,4.9-3.9,10.5-3.9,16.3V288c0-3.1,0.8-6,2.3-8.7c0.5-0.4,1.1-0.9,1.6-1.3  c8.5-6.6,19-10.9,30.5-11.8c1.4-0.1,2.9-0.2,4.4-0.2c0.4,0,0.8,0,1.2,0c0,0,0,0,0,0c0,0,0,0,0,0c0,0,0,0,0,0c0,0,0,0,0,0  C745,266.8,768.5,288.9,771.5,317.1z"
   class="st0" />
<path
   id="path854"
   d="M522.5,98.2c-2.6,10.5-4,21.5-4,32.8v-3.4C518.4,117.4,519.9,107.6,522.5,98.2z"
   class="st0" />
<path
   id="path856"
   d="M679.9,265.3h25.6c3.9,0,7.7,0.3,11.5,1h-37h-53c-5,0-9.9-0.3-14.7-1c-53-7.2-93.8-52.6-93.8-107.5V131  c0,74.2,60.1,134.3,134.3,134.3H679.9z"
   class="st0" />
<g
   class="st1 st2 st3"
   style="font-size:200px;font-family:Ubuntu-Bold;fill:#050505"
   id="text858"
   transform="matrix(1 0 0 1 815.2937 566.3666)"
   aria-label="Newsent"><path
     id="path952"
     style="font-size:200px;font-family:Ubuntu-Bold;fill:#050505"
     d="M 130.46875,0 H 106.54297 L 37.597656,-130.07812 V 0 H 19.53125 V -145.41016 H 49.511719 L 112.40234,-26.660156 V -145.41016 h 18.06641 z" /><path
     id="path954"
     style="font-size:200px;font-family:Ubuntu-Bold;fill:#050505"
     d="m 258.98437,-52.636719 h -80.37109 q 0,10.058594 3.02734,17.578125 3.02735,7.421875 8.30079,12.207032 5.07812,4.6875 12.01171,7.031249 7.03125,2.34375 15.42969,2.34375 11.13281,0 22.36328,-4.394531 11.32813,-4.492187 16.11328,-8.789062 h 0.97657 v 20.019531 q -9.27735,3.90625 -18.94532,6.54296875 -9.66796,2.63671875 -20.3125,2.63671875 -27.14843,0 -42.38281,-14.6484375 -15.23437,-14.746094 -15.23437,-41.796875 0,-26.757812 14.55078,-42.480469 14.64844,-15.722661 38.47656,-15.722661 22.07031,0 33.98438,12.89063 12.01171,12.890625 12.01171,36.621094 z m -17.87109,-14.0625 q -0.0977,-14.453125 -7.32422,-22.363281 -7.1289,-7.910156 -21.77734,-7.910156 -14.7461,0 -23.53516,8.691406 -8.6914,8.691406 -9.86328,21.582031 z" /><path
     id="path956"
     style="font-size:200px;font-family:Ubuntu-Bold;fill:#050505"
     d="M 424.02344,-109.08203 395.60547,0 H 378.61328 L 350.58594,-84.082031 322.75391,0 h -16.89454 l -28.71093,-109.08203 h 19.14062 l 20.01953,84.472655 27.2461,-84.472655 h 15.13672 l 27.92968,84.472655 18.94532,-84.472655 z" /><path
     id="path958"
     style="font-size:200px;font-family:Ubuntu-Bold;fill:#050505"
     d="m 528.41797,-31.445312 q 0,14.941406 -12.40235,24.5117183 -12.30468,9.5703125 -33.6914,9.5703125 -12.10938,0 -22.26563,-2.8320313 Q 450,-3.125 443.16406,-6.5429687 V -27.148437 h 0.97656 q 8.69141,6.542968 19.33594,10.449218 10.64453,3.808594 20.41016,3.808594 12.10937,0 18.94531,-3.90625 6.83594,-3.90625 6.83594,-12.304687 0,-6.445313 -3.71094,-9.765625 -3.71094,-3.320313 -14.25781,-5.664063 -3.90625,-0.878906 -10.25391,-2.050781 -6.25,-1.171875 -11.42578,-2.539063 -14.35547,-3.808593 -20.41016,-11.132812 -5.95703,-7.421875 -5.95703,-18.164063 0,-6.738281 2.73438,-12.695312 2.83203,-5.957031 8.49609,-10.644529 5.46875,-4.58985 13.86719,-7.22657 8.49609,-2.73437 18.94531,-2.73437 9.76563,0 19.72656,2.44141 10.0586,2.34375 16.69922,5.76171 v 19.628911 h -0.97656 q -7.03125,-5.175781 -17.08984,-8.691406 -10.0586,-3.613281 -19.72657,-3.613281 -10.05859,0 -16.99218,3.90625 -6.9336,3.808594 -6.9336,11.425781 0,6.738281 4.19922,10.15625 4.10156,3.417969 13.28125,5.566406 5.07813,1.171875 11.32813,2.34375 6.34765,1.171875 10.54687,2.148438 12.79297,2.929687 19.72656,10.058594 6.9336,7.226562 6.9336,19.140625 z" /><path
     id="path960"
     style="font-size:200px;font-family:Ubuntu-Bold;fill:#050505"
     d="m 646.09375,-52.636719 h -80.37109 q 0,10.058594 3.02734,17.578125 3.02734,7.421875 8.30078,12.207032 5.07813,4.6875 12.01172,7.031249 7.03125,2.34375 15.42969,2.34375 11.13281,0 22.36328,-4.394531 11.32812,-4.492187 16.11328,-8.789062 h 0.97656 V -6.640625 Q 634.66797,-2.734375 625,-0.09765625 615.33203,2.5390625 604.6875,2.5390625 q -27.14844,0 -42.38281,-14.6484375 -15.23438,-14.746094 -15.23438,-41.796875 0,-26.757812 14.55078,-42.480469 14.64844,-15.722661 38.47657,-15.722661 22.07031,0 33.98437,12.89063 12.01172,12.890625 12.01172,36.621094 z m -17.87109,-14.0625 q -0.0977,-14.453125 -7.32422,-22.363281 -7.12891,-7.910156 -21.77735,-7.910156 -14.74609,0 -23.53515,8.691406 -8.69141,8.691406 -9.86328,21.582031 z" /><path
     id="path962"
     style="font-size:200px;font-family:Ubuntu-Bold;fill:#050505"
     d="m 765.13672,0 h -18.35938 v -62.109375 q 0,-7.519531 -0.8789,-14.0625 -0.87891,-6.640625 -3.22266,-10.351562 -2.44141,-4.101563 -7.03125,-6.054688 -4.58984,-2.050781 -11.91406,-2.050781 -7.51953,0 -15.72266,3.710937 -8.20312,3.710938 -15.72265,9.472657 V 0 h -18.35938 v -109.08203 h 18.35938 v 12.109374 q 8.59375,-7.128904 17.77343,-11.132814 9.17969,-4.00391 18.84766,-4.00391 17.67578,0 26.95312,10.64454 9.27735,10.644528 9.27735,30.664059 z" /><path
     id="path964"
     style="font-size:200px;font-family:Ubuntu-Bold;fill:#050505"
     d="m 857.12891,-0.9765625 q -5.17579,1.3671875 -11.32813,2.2460937 -6.05469,0.8789063 -10.83984,0.8789063 -16.69922,0 -25.39063,-8.984375 -8.6914,-8.9843755 -8.6914,-28.8085935 v -58.007813 h -12.40235 v -15.429686 h 12.40235 v -31.34766 h 18.35937 v 31.34766 h 37.89063 v 15.429686 h -37.89063 v 49.707032 q 0,8.59375 0.39063,13.476562 0.39062,4.785156 2.73437,8.984375 2.14844,3.90625 5.85938,5.761719 3.80859,1.757812 11.52343,1.757812 4.49219,0 9.375,-1.269531 4.88282,-1.367187 7.03125,-2.246094 h 0.97657 z" /></g>
<g
   class="st0 st2 st3"
   style="font-size:200px;font-family:Ubuntu-Bold;fill:#ffffff"
   id="text860"
   transform="matrix(1 0 0 1 802.0587 553.7691)"
   aria-label="Newsent"><path
     id="path937"
     style="font-size:200px;font-family:Ubuntu-Bold;fill:#ffffff"
     d="M 130.46875,0 H 106.54297 L 37.597656,-130.07812 V 0 H 19.53125 V -145.41016 H 49.511719 L 112.40234,-26.660156 V -145.41016 h 18.06641 z" /><path
     id="path939"
     style="font-size:200px;font-family:Ubuntu-Bold;fill:#ffffff"
     d="m 258.98437,-52.636719 h -80.37109 q 0,10.058594 3.02734,17.578125 3.02735,7.421875 8.30079,12.207032 5.07812,4.6875 12.01171,7.031249 7.03125,2.34375 15.42969,2.34375 11.13281,0 22.36328,-4.394531 11.32813,-4.492187 16.11328,-8.789062 h 0.97657 v 20.019531 q -9.27735,3.90625 -18.94532,6.54296875 -9.66796,2.63671875 -20.3125,2.63671875 -27.14843,0 -42.38281,-14.6484375 -15.23437,-14.746094 -15.23437,-41.796875 0,-26.757812 14.55078,-42.480469 14.64844,-15.722661 38.47656,-15.722661 22.07031,0 33.98438,12.89063 12.01171,12.890625 12.01171,36.621094 z m -17.87109,-14.0625 q -0.0977,-14.453125 -7.32422,-22.363281 -7.1289,-7.910156 -21.77734,-7.910156 -14.7461,0 -23.53516,8.691406 -8.6914,8.691406 -9.86328,21.582031 z" /><path
     id="path941"
     style="font-size:200px;font-family:Ubuntu-Bold;fill:#ffffff"
     d="M 424.02344,-109.08203 395.60547,0 H 378.61328 L 350.58594,-84.082031 322.75391,0 h -16.89454 l -28.71093,-109.08203 h 19.14062 l 20.01953,84.472655 27.2461,-84.472655 h 15.13672 l 27.92968,84.472655 18.94532,-84.472655 z" /><path
     id="path943"
     style="font-size:200px;font-family:Ubuntu-Bold;fill:#ffffff"
     d="m 528.41797,-31.445312 q 0,14.941406 -12.40235,24.5117183 -12.30468,9.5703125 -33.6914,9.5703125 -12.10938,0 -22.26563,-2.8320313 Q 450,-3.125 443.16406,-6.5429687 V -27.148437 h 0.97656 q 8.69141,6.542968 19.33594,10.449218 10.64453,3.808594 20.41016,3.808594 12.10937,0 18.94531,-3.90625 6.83594,-3.90625 6.83594,-12.304687 0,-6.445313 -3.71094,-9.765625 -3.71094,-3.320313 -14.25781,-5.664063 -3.90625,-0.878906 -10.25391,-2.050781 -6.25,-1.171875 -11.42578,-2.539063 -14.35547,-3.808593 -20.41016,-11.132812 -5.95703,-7.421875 -5.95703,-18.164063 0,-6.738281 2.73438,-12.695312 2.83203,-5.957031 8.49609,-10.644529 5.46875,-4.58985 13.86719,-7.22657 8.49609,-2.73437 18.94531,-2.73437 9.76563,0 19.72656,2.44141 10.0586,2.34375 16.69922,5.76171 v 19.628911 h -0.97656 q -7.03125,-5.175781 -17.08984,-8.691406 -10.0586,-3.613281 -19.72657,-3.613281 -10.05859,0 -16.99218,3.90625 -6.9336,3.808594 -6.9336,11.425781 0,6.738281 4.19922,10.15625 4.10156,3.417969 13.28125,5.566406 5.07813,1.171875 11.32813,2.34375 6.34765,1.171875 10.54687,2.148438 12.79297,2.929687 19.72656,10.058594 6.9336,7.226562 6.9336,19.140625 z" /><path
     id="path945"
     style="font-size:200px;font-family:Ubuntu-Bold;fill:#ffffff"
     d="m 646.09375,-52.636719 h -80.37109 q 0,10.058594 3.02734,17.578125 3.02734,7.421875 8.30078,12.207032 5.07813,4.6875 12.01172,7.031249 7.03125,2.34375 15.42969,2.34375 11.13281,0 22.36328,-4.394531 11.32812,-4.492187 16.11328,-8.789062 h 0.97656 V -6.640625 Q 634.66797,-2.734375 625,-0.09765625 615.33203,2.5390625 604.6875,2.5390625 q -27.14844,0 -42.38281,-14.6484375 -15.23438,-14.746094 -15.23438,-41.796875 0,-26.757812 14.55078,-42.480469 14.64844,-15.722661 38.47657,-15.722661 22.07031,0 33.98437,12.89063 12.01172,12.890625 12.01172,36.621094 z m -17.87109,-14.0625 q -0.0977,-14.453125 -7.32422,-22.363281 -7.12891,-7.910156 -21.77735,-7.910156 -14.74609,0 -23.53515,8.691406 -8.69141,8.691406 -9.86328,21.582031 z" /><path
     id="path947"
     style="font-size:200px;font-family:Ubuntu-Bold;fill:#ffffff"
     d="m 765.13672,0 h -18.35938 v -62.109375 q 0,-7.519531 -0.8789,-14.0625 -0.87891,-6.640625 -3.22266,-10.351562 -2.44141,-4.101563 -7.03125,-6.054688 -4.58984,-2.050781 -11.91406,-2.050781 -7.51953,0 -15.72266,3.710937 -8.20312,3.710938 -15.72265,9.472657 V 0 h -18.35938 v -109.08203 h 18.35938 v 12.109374 q 8.59375,-7.128904 17.77343,-11.132814 9.17969,-4.00391 18.84766,-4.00391 17.67578,0 26.95312,10.64454 9.27735,10.644528 9.27735,30.664059 z" /><path
     id="path949"
     style="font-size:200px;font-family:Ubuntu-Bold;fill:#ffffff"
     d="m 857.12891,-0.9765625 q -5.17579,1.3671875 -11.32813,2.2460937 -6.05469,0.8789063 -10.83984,0.8789063 -16.69922,0 -25.39063,-8.984375 -8.6914,-8.9843755 -8.6914,-28.8085935 v -58.007813 h -12.40235 v -15.429686 h 12.40235 v -31.34766 h 18.35937 v 31.34766 h 37.89063 v 15.429686 h -37.89063 v 49.707032 q 0,8.59375 0.39063,13.476562 0.39062,4.785156 2.73437,8.984375 2.14844,3.90625 5.85938,5.761719 3.80859,1.757812 11.52343,1.757812 4.49219,0 9.375,-1.269531 4.88282,-1.367187 7.03125,-2.246094 h 0.97657 z" /></g>
<g
   class="st4 st5"
   style="font-size:100px;font-family:Ubuntu-Medium"
   id="text862"
   transform="matrix(1 0 0 1 597.036 797.2371)"
   aria-label="Find Calm In Chaos"><path
     id="path906"
     style="font-size:100px;font-family:Ubuntu-Medium"
     d="M 56.201172,-64.111328 H 19.433594 v 20.507812 h 31.591797 v 8.59375 H 19.433594 V 0 H 9.765625 v -72.705078 h 46.435547 z" /><path
     id="path908"
     style="font-size:100px;font-family:Ubuntu-Medium"
     d="M 76.318359,-63.671875 H 65.966797 v -9.521484 H 76.318359 Z M 75.732422,0 h -9.179688 v -54.541016 h 9.179688 z" /><path
     id="path910"
     style="font-size:100px;font-family:Ubuntu-Medium"
     d="m 139.59961,0 h -9.17969 v -31.054687 q 0,-3.759766 -0.43945,-7.03125 -0.43945,-3.320313 -1.61133,-5.175782 -1.2207,-2.050781 -3.51562,-3.027343 -2.29493,-1.025391 -5.95704,-1.025391 -3.75976,0 -7.86132,1.855469 -4.10157,1.855468 -7.86133,4.736328 V 0 h -9.179689 v -54.541016 h 9.179689 v 6.054688 q 4.29687,-3.564453 8.88672,-5.566406 4.58984,-2.001953 9.42383,-2.001953 8.83789,0 13.47656,5.322265 4.63867,5.322266 4.63867,15.332031 z" /><path
     id="path912"
     style="font-size:100px;font-family:Ubuntu-Medium"
     d="m 201.51367,0 h -9.17969 v -5.7128906 q -3.95507,3.4179687 -8.25195,5.3222656 -4.29687,1.9042969 -9.32617,1.9042969 -9.76563,0 -15.52734,-7.5195313 -5.7129,-7.5195316 -5.7129,-20.8496096 0,-6.933593 1.95313,-12.353515 2.00195,-5.419922 5.37109,-9.228516 3.32032,-3.710937 7.71485,-5.664062 4.44336,-1.953125 9.17968,-1.953125 4.29688,0 7.61719,0.927734 3.32031,0.878906 6.98242,2.783203 v -23.632812 h 9.17969 z m -9.17969,-13.427734 v -31.298828 q -3.71093,-1.660157 -6.64062,-2.294922 -2.92969,-0.634766 -6.39649,-0.634766 -7.71484,0 -12.01171,5.371094 -4.29688,5.371094 -4.29688,15.234375 0,9.716797 3.32031,14.794922 3.32032,5.0292965 10.64453,5.0292965 3.90625,0 7.91016,-1.7089844 4.00391,-1.7578121 7.4707,-4.4921871 z" /><path
     id="path914"
     style="font-size:100px;font-family:Ubuntu-Medium"
     d="m 311.62109,-5.2734375 q -2.68554,1.171875 -4.88281,2.1972656 -2.14844,1.0253906 -5.66406,2.14843752 -2.97852,0.92773438 -6.49414,1.5625 -3.4668,0.68359378 -7.66602,0.68359378 -7.91015,0 -14.40429,-2.19726565 Q 266.06445,-3.125 261.2793,-7.8613281 256.5918,-12.5 253.95508,-19.628906 q -2.63672,-7.177735 -2.63672,-16.650391 0,-8.984375 2.53906,-16.064453 2.53906,-7.080078 7.32422,-11.962891 4.63867,-4.736328 11.18164,-7.226562 6.5918,-2.490234 14.59961,-2.490234 5.85938,0 11.66992,1.416015 5.85938,1.416016 12.98828,4.980469 v 11.474609 h -0.73242 q -6.00586,-5.029297 -11.91406,-7.324218 -5.9082,-2.294922 -12.64649,-2.294922 -5.51757,0 -9.96093,1.80664 -4.39453,1.757813 -7.86133,5.517578 -3.36914,3.66211 -5.27344,9.277344 -1.85547,5.566406 -1.85547,12.890625 0,7.666016 2.05078,13.183594 2.09961,5.517578 5.3711,8.984375 3.41797,3.613281 7.95898,5.3710936 4.58985,1.7089844 9.66797,1.7089844 6.98242,0 13.08594,-2.3925781 6.10351,-2.3925779 11.42578,-7.1777339 h 0.68359 z" /><path
     id="path916"
     style="font-size:100px;font-family:Ubuntu-Medium"
     d="m 367.04102,0 h -9.13086 v -5.8105469 q -1.22071,0.8300782 -3.32032,2.34375 -2.05078,1.4648438 -4.0039,2.34375 Q 348.29102,0 345.3125,0.73242187 q -2.97852,0.78125003 -6.98242,0.78125003 -7.37305,0 -12.5,-4.8828125 -5.12696,-4.8828125 -5.12696,-12.4511724 0,-6.201171 2.63672,-10.009765 2.68555,-3.857422 7.61719,-6.054688 4.98047,-2.197265 11.96289,-2.978515 6.98242,-0.78125 14.99024,-1.171875 v -1.416016 q 0,-3.125 -1.12305,-5.175781 -1.07422,-2.050781 -3.125,-3.222656 -1.95313,-1.123047 -4.6875,-1.513672 -2.73438,-0.390625 -5.71289,-0.390625 -3.61328,0 -8.05664,0.976562 -4.44336,0.927735 -9.17969,2.734375 h -0.48828 v -9.326172 q 2.68555,-0.732421 7.76367,-1.611328 5.07813,-0.878906 10.00977,-0.878906 5.76172,0 10.00976,0.976563 4.29688,0.927734 7.42188,3.222656 3.07617,2.246094 4.6875,5.810547 1.61133,3.564453 1.61133,8.83789 z m -9.13086,-13.427734 v -15.185547 q -4.19922,0.24414 -9.91211,0.732422 -5.66407,0.488281 -8.98438,1.416015 -3.95508,1.123047 -6.39648,3.515625 -2.44141,2.34375 -2.44141,6.494141 0,4.6875 2.83203,7.080078 2.83203,2.34375 8.64258,2.34375 4.83398,0 8.83789,-1.8554688 4.00391,-1.9042972 7.42188,-4.5410152 z" /><path
     id="path918"
     style="font-size:100px;font-family:Ubuntu-Medium"
     d="m 394.0918,0 h -9.17969 v -75.976562 h 9.17969 z" /><path
     id="path920"
     style="font-size:100px;font-family:Ubuntu-Medium"
     d="m 491.94336,0 h -9.17969 v -31.054687 q 0,-3.515625 -0.3418,-6.78711 -0.29296,-3.271484 -1.31835,-5.224609 -1.12305,-2.09961 -3.22266,-3.173828 -2.09961,-1.074219 -6.05469,-1.074219 -3.85742,0 -7.71484,1.953125 -3.85742,1.904297 -7.71485,4.882812 0.14649,1.123047 0.24414,2.636719 0.0977,1.464844 0.0977,2.929688 V 0 h -9.17969 v -31.054687 q 0,-3.613282 -0.34179,-6.835938 -0.29297,-3.271484 -1.31836,-5.224609 -1.12305,-2.09961 -3.22266,-3.125 -2.09961,-1.074219 -6.05469,-1.074219 -3.75976,0 -7.56836,1.855469 -3.75976,1.855468 -7.51953,4.736328 V 0 h -9.17968 v -54.541016 h 9.17968 v 6.054688 q 4.29688,-3.564453 8.54492,-5.566406 4.29688,-2.001953 9.13086,-2.001953 5.56641,0 9.42383,2.34375 3.90625,2.34375 5.81055,6.49414 5.56641,-4.6875 10.15625,-6.738281 4.58984,-2.099609 9.81445,-2.099609 8.98438,0 13.23242,5.46875 4.29688,5.419921 4.29688,15.185546 z" /><path
     id="path922"
     style="font-size:100px;font-family:Ubuntu-Medium"
     d="m 571.14258,0 h -28.71094 v -7.421875 h 9.52148 v -57.861328 h -9.52148 v -7.421875 h 28.71094 v 7.421875 h -9.52149 v 57.861328 h 9.52149 z" /><path
     id="path924"
     style="font-size:100px;font-family:Ubuntu-Medium"
     d="m 632.56836,0 h -9.17969 v -31.054687 q 0,-3.759766 -0.43945,-7.03125 -0.43945,-3.320313 -1.61133,-5.175782 -1.2207,-2.050781 -3.51562,-3.027343 -2.29493,-1.025391 -5.95704,-1.025391 -3.75976,0 -7.86132,1.855469 -4.10157,1.855468 -7.86133,4.736328 V 0 h -9.17969 v -54.541016 h 9.17969 v 6.054688 q 4.29687,-3.564453 8.88672,-5.566406 4.58984,-2.001953 9.42382,-2.001953 8.8379,0 13.47657,5.322265 4.63867,5.322266 4.63867,15.332031 z" /><path
     id="path926"
     style="font-size:100px;font-family:Ubuntu-Medium"
     d="m 742.28516,-5.2734375 q -2.68555,1.171875 -4.88282,2.1972656 -2.14843,1.0253906 -5.66406,2.14843752 -2.97851,0.92773438 -6.49414,1.5625 -3.4668,0.68359378 -7.66602,0.68359378 -7.91015,0 -14.40429,-2.19726565 Q 696.72852,-3.125 691.94336,-7.8613281 687.25586,-12.5 684.61914,-19.628906 q -2.63672,-7.177735 -2.63672,-16.650391 0,-8.984375 2.53906,-16.064453 2.53907,-7.080078 7.32422,-11.962891 4.63867,-4.736328 11.18164,-7.226562 6.5918,-2.490234 14.59961,-2.490234 5.85938,0 11.66992,1.416015 5.85938,1.416016 12.98829,4.980469 v 11.474609 h -0.73243 q -6.00586,-5.029297 -11.91406,-7.324218 -5.9082,-2.294922 -12.64648,-2.294922 -5.51758,0 -9.96094,1.80664 -4.39453,1.757813 -7.86133,5.517578 -3.36914,3.66211 -5.27344,9.277344 -1.85546,5.566406 -1.85546,12.890625 0,7.666016 2.05078,13.183594 2.09961,5.517578 5.37109,8.984375 3.41797,3.613281 7.95898,5.3710936 4.58985,1.7089844 9.66797,1.7089844 6.98243,0 13.08594,-2.3925781 6.10352,-2.3925779 11.42578,-7.1777339 h 0.6836 z" /><path
     id="path928"
     style="font-size:100px;font-family:Ubuntu-Medium"
     d="m 800.92773,0 h -9.17968 v -31.054687 q 0,-3.759766 -0.43946,-7.03125 -0.43945,-3.320313 -1.61132,-5.175782 -1.22071,-2.050781 -3.51563,-3.027343 -2.29492,-1.025391 -5.95703,-1.025391 -3.75977,0 -7.86133,1.855469 -4.10156,1.855468 -7.86133,4.736328 V 0 h -9.17968 v -75.976562 h 9.17968 v 27.490234 q 4.29688,-3.564453 8.88672,-5.566406 4.58985,-2.001953 9.42383,-2.001953 8.83789,0 13.47656,5.322265 4.63867,5.322266 4.63867,15.332031 z" /><path
     id="path930"
     style="font-size:100px;font-family:Ubuntu-Medium"
     d="m 860.98633,0 h -9.13086 v -5.8105469 q -1.2207,0.8300782 -3.32031,2.34375 -2.05079,1.4648438 -4.00391,2.34375 Q 842.23633,0 839.25781,0.73242187 836.2793,1.5136719 832.27539,1.5136719 q -7.37305,0 -12.5,-4.8828125 -5.12695,-4.8828125 -5.12695,-12.4511724 0,-6.201171 2.63672,-10.009765 2.68554,-3.857422 7.61718,-6.054688 4.98047,-2.197265 11.96289,-2.978515 6.98243,-0.78125 14.99024,-1.171875 v -1.416016 q 0,-3.125 -1.12305,-5.175781 -1.07422,-2.050781 -3.125,-3.222656 -1.95312,-1.123047 -4.6875,-1.513672 -2.73437,-0.390625 -5.71289,-0.390625 -3.61328,0 -8.05664,0.976562 -4.44336,0.927735 -9.17969,2.734375 h -0.48828 v -9.326172 q 2.68555,-0.732421 7.76367,-1.611328 5.07813,-0.878906 10.00977,-0.878906 5.76172,0 10.00976,0.976563 4.29688,0.927734 7.42188,3.222656 3.07617,2.246094 4.6875,5.810547 1.61133,3.564453 1.61133,8.83789 z m -9.13086,-13.427734 v -15.185547 q -4.19922,0.24414 -9.91211,0.732422 -5.66406,0.488281 -8.98438,1.416015 -3.95507,1.123047 -6.39648,3.515625 -2.44141,2.34375 -2.44141,6.494141 0,4.6875 2.83203,7.080078 2.83204,2.34375 8.64258,2.34375 4.83399,0 8.83789,-1.8554688 4.00391,-1.9042972 7.42188,-4.5410152 z" /><path
     id="path932"
     style="font-size:100px;font-family:Ubuntu-Medium"
     d="m 925.24414,-27.246094 q 0,13.330078 -6.83594,21.0449221 -6.83593,7.7148438 -18.31054,7.7148438 -11.57227,0 -18.40821,-7.7148438 -6.78711,-7.7148441 -6.78711,-21.0449221 0,-13.330078 6.78711,-21.044922 6.83594,-7.763671 18.40821,-7.763671 11.47461,0 18.31054,7.763671 6.83594,7.714844 6.83594,21.044922 z m -9.47266,0 q 0,-10.595703 -4.15039,-15.722656 -4.15039,-5.175781 -11.52343,-5.175781 -7.47071,0 -11.6211,5.175781 -4.10156,5.126953 -4.10156,15.722656 0,10.253907 4.15039,15.576172 4.15039,5.2734376 11.57227,5.2734376 7.32421,0 11.47461,-5.2246096 4.19921,-5.273437 4.19921,-15.625 z" /><path
     id="path934"
     style="font-size:100px;font-family:Ubuntu-Medium"
     d="m 978.4668,-15.722656 q 0,7.4707029 -6.20118,12.2558591 -6.15234,4.7851563 -16.8457,4.7851563 -6.05469,0 -11.13281,-1.41601565 Q 939.25781,-1.5625 935.83984,-3.2714844 V -13.574219 h 0.48828 q 4.34571,3.271485 9.66797,5.2246096 5.32227,1.9042969 10.20508,1.9042969 6.05469,0 9.47266,-1.953125 3.41797,-1.9531255 3.41797,-6.1523435 0,-3.222656 -1.85547,-4.882813 -1.85547,-1.660156 -7.12891,-2.832031 -1.95312,-0.439453 -5.12695,-1.025391 -3.125,-0.585937 -5.71289,-1.269531 -7.17774,-1.904297 -10.20508,-5.566406 -2.97852,-3.710938 -2.97852,-9.082031 0,-3.369141 1.36719,-6.347657 1.41602,-2.978515 4.24805,-5.322265 2.73437,-2.294922 6.93359,-3.613281 4.24805,-1.367188 9.47266,-1.367188 4.88281,0 9.86328,1.220703 5.0293,1.171875 8.34961,2.88086 v 9.814453 h -0.48828 q -3.51563,-2.587891 -8.54492,-4.345703 -5.0293,-1.806641 -9.86329,-1.806641 -5.02929,0 -8.49609,1.953125 -3.4668,1.904297 -3.4668,5.712891 0,3.36914 2.09961,5.078125 2.05078,1.708984 6.64063,2.783203 2.53906,0.585937 5.66406,1.171875 3.17383,0.585937 5.27344,1.074218 6.39648,1.464844 9.86328,5.029297 3.4668,3.613282 3.4668,9.570313 z" /></g>
<path
   id="path864"
   d="M1711.1,642.2H349.4c-7.8,0-14.2-6.3-14.2-14.2v0c0-7.8,6.3-14.2,14.2-14.2h1361.8c7.8,0,14.2,6.3,14.2,14.2v0  C1725.3,635.9,1719,642.2,1711.1,642.2z" />
<path
   id="path866"
   d="M1698.6,627.6H336.9c-7.8,0-14.2-6.3-14.2-14.2v0c0-7.8,6.3-14.2,14.2-14.2h1361.8c7.8,0,14.2,6.3,14.2,14.2v0  C1712.8,621.2,1706.5,627.6,1698.6,627.6z"
   class="st0" />
<g
   class="st0 st4 st5"
   style="font-size:100px;font-family:Ubuntu-Medium;fill:#ffffff"
   id="text868"
   transform="matrix(1 0 0 1 591.5389 793.2368)"
   aria-label="Find Calm In Chaos"><path
     id="path875"
     style="font-size:100px;font-family:Ubuntu-Medium;fill:#ffffff"
     d="M 56.201172,-64.111328 H 19.433594 v 20.507812 h 31.591797 v 8.59375 H 19.433594 V 0 H 9.765625 v -72.705078 h 46.435547 z" /><path
     id="path877"
     style="font-size:100px;font-family:Ubuntu-Medium;fill:#ffffff"
     d="M 76.318359,-63.671875 H 65.966797 v -9.521484 H 76.318359 Z M 75.732422,0 h -9.179688 v -54.541016 h 9.179688 z" /><path
     id="path879"
     style="font-size:100px;font-family:Ubuntu-Medium;fill:#ffffff"
     d="m 139.59961,0 h -9.17969 v -31.054687 q 0,-3.759766 -0.43945,-7.03125 -0.43945,-3.320313 -1.61133,-5.175782 -1.2207,-2.050781 -3.51562,-3.027343 -2.29493,-1.025391 -5.95704,-1.025391 -3.75976,0 -7.86132,1.855469 -4.10157,1.855468 -7.86133,4.736328 V 0 h -9.179689 v -54.541016 h 9.179689 v 6.054688 q 4.29687,-3.564453 8.88672,-5.566406 4.58984,-2.001953 9.42383,-2.001953 8.83789,0 13.47656,5.322265 4.63867,5.322266 4.63867,15.332031 z" /><path
     id="path881"
     style="font-size:100px;font-family:Ubuntu-Medium;fill:#ffffff"
     d="m 201.51367,0 h -9.17969 v -5.7128906 q -3.95507,3.4179687 -8.25195,5.3222656 -4.29687,1.9042969 -9.32617,1.9042969 -9.76563,0 -15.52734,-7.5195313 -5.7129,-7.5195316 -5.7129,-20.8496096 0,-6.933593 1.95313,-12.353515 2.00195,-5.419922 5.37109,-9.228516 3.32032,-3.710937 7.71485,-5.664062 4.44336,-1.953125 9.17968,-1.953125 4.29688,0 7.61719,0.927734 3.32031,0.878906 6.98242,2.783203 v -23.632812 h 9.17969 z m -9.17969,-13.427734 v -31.298828 q -3.71093,-1.660157 -6.64062,-2.294922 -2.92969,-0.634766 -6.39649,-0.634766 -7.71484,0 -12.01171,5.371094 -4.29688,5.371094 -4.29688,15.234375 0,9.716797 3.32031,14.794922 3.32032,5.0292965 10.64453,5.0292965 3.90625,0 7.91016,-1.7089844 4.00391,-1.7578121 7.4707,-4.4921871 z" /><path
     id="path883"
     style="font-size:100px;font-family:Ubuntu-Medium;fill:#ffffff"
     d="m 311.62109,-5.2734375 q -2.68554,1.171875 -4.88281,2.1972656 -2.14844,1.0253906 -5.66406,2.14843752 -2.97852,0.92773438 -6.49414,1.5625 -3.4668,0.68359378 -7.66602,0.68359378 -7.91015,0 -14.40429,-2.19726565 Q 266.06445,-3.125 261.2793,-7.8613281 256.5918,-12.5 253.95508,-19.628906 q -2.63672,-7.177735 -2.63672,-16.650391 0,-8.984375 2.53906,-16.064453 2.53906,-7.080078 7.32422,-11.962891 4.63867,-4.736328 11.18164,-7.226562 6.5918,-2.490234 14.59961,-2.490234 5.85938,0 11.66992,1.416015 5.85938,1.416016 12.98828,4.980469 v 11.474609 h -0.73242 q -6.00586,-5.029297 -11.91406,-7.324218 -5.9082,-2.294922 -12.64649,-2.294922 -5.51757,0 -9.96093,1.80664 -4.39453,1.757813 -7.86133,5.517578 -3.36914,3.66211 -5.27344,9.277344 -1.85547,5.566406 -1.85547,12.890625 0,7.666016 2.05078,13.183594 2.09961,5.517578 5.3711,8.984375 3.41797,3.613281 7.95898,5.3710936 4.58985,1.7089844 9.66797,1.7089844 6.98242,0 13.08594,-2.3925781 6.10351,-2.3925779 11.42578,-7.1777339 h 0.68359 z" /><path
     id="path885"
     style="font-size:100px;font-family:Ubuntu-Medium;fill:#ffffff"
     d="m 367.04102,0 h -9.13086 v -5.8105469 q -1.22071,0.8300782 -3.32032,2.34375 -2.05078,1.4648438 -4.0039,2.34375 Q 348.29102,0 345.3125,0.73242187 q -2.97852,0.78125003 -6.98242,0.78125003 -7.37305,0 -12.5,-4.8828125 -5.12696,-4.8828125 -5.12696,-12.4511724 0,-6.201171 2.63672,-10.009765 2.68555,-3.857422 7.61719,-6.054688 4.98047,-2.197265 11.96289,-2.978515 6.98242,-0.78125 14.99024,-1.171875 v -1.416016 q 0,-3.125 -1.12305,-5.175781 -1.07422,-2.050781 -3.125,-3.222656 -1.95313,-1.123047 -4.6875,-1.513672 -2.73438,-0.390625 -5.71289,-0.390625 -3.61328,0 -8.05664,0.976562 -4.44336,0.927735 -9.17969,2.734375 h -0.48828 v -9.326172 q 2.68555,-0.732421 7.76367,-1.611328 5.07813,-0.878906 10.00977,-0.878906 5.76172,0 10.00976,0.976563 4.29688,0.927734 7.42188,3.222656 3.07617,2.246094 4.6875,5.810547 1.61133,3.564453 1.61133,8.83789 z m -9.13086,-13.427734 v -15.185547 q -4.19922,0.24414 -9.91211,0.732422 -5.66407,0.488281 -8.98438,1.416015 -3.95508,1.123047 -6.39648,3.515625 -2.44141,2.34375 -2.44141,6.494141 0,4.6875 2.83203,7.080078 2.83203,2.34375 8.64258,2.34375 4.83398,0 8.83789,-1.8554688 4.00391,-1.9042972 7.42188,-4.5410152 z" /><path
     id="path887"
     style="font-size:100px;font-family:Ubuntu-Medium;fill:#ffffff"
     d="m 394.0918,0 h -9.17969 v -75.976562 h 9.17969 z" /><path
     id="path889"
     style="font-size:100px;font-family:Ubuntu-Medium;fill:#ffffff"
     d="m 491.94336,0 h -9.17969 v -31.054687 q 0,-3.515625 -0.3418,-6.78711 -0.29296,-3.271484 -1.31835,-5.224609 -1.12305,-2.09961 -3.22266,-3.173828 -2.09961,-1.074219 -6.05469,-1.074219 -3.85742,0 -7.71484,1.953125 -3.85742,1.904297 -7.71485,4.882812 0.14649,1.123047 0.24414,2.636719 0.0977,1.464844 0.0977,2.929688 V 0 h -9.17969 v -31.054687 q 0,-3.613282 -0.34179,-6.835938 -0.29297,-3.271484 -1.31836,-5.224609 -1.12305,-2.09961 -3.22266,-3.125 -2.09961,-1.074219 -6.05469,-1.074219 -3.75976,0 -7.56836,1.855469 -3.75976,1.855468 -7.51953,4.736328 V 0 h -9.17968 v -54.541016 h 9.17968 v 6.054688 q 4.29688,-3.564453 8.54492,-5.566406 4.29688,-2.001953 9.13086,-2.001953 5.56641,0 9.42383,2.34375 3.90625,2.34375 5.81055,6.49414 5.56641,-4.6875 10.15625,-6.738281 4.58984,-2.099609 9.81445,-2.099609 8.98438,0 13.23242,5.46875 4.29688,5.419921 4.29688,15.185546 z" /><path
     id="path891"
     style="font-size:100px;font-family:Ubuntu-Medium;fill:#ffffff"
     d="m 571.14258,0 h -28.71094 v -7.421875 h 9.52148 v -57.861328 h -9.52148 v -7.421875 h 28.71094 v 7.421875 h -9.52149 v 57.861328 h 9.52149 z" /><path
     id="path893"
     style="font-size:100px;font-family:Ubuntu-Medium;fill:#ffffff"
     d="m 632.56836,0 h -9.17969 v -31.054687 q 0,-3.759766 -0.43945,-7.03125 -0.43945,-3.320313 -1.61133,-5.175782 -1.2207,-2.050781 -3.51562,-3.027343 -2.29493,-1.025391 -5.95704,-1.025391 -3.75976,0 -7.86132,1.855469 -4.10157,1.855468 -7.86133,4.736328 V 0 h -9.17969 v -54.541016 h 9.17969 v 6.054688 q 4.29687,-3.564453 8.88672,-5.566406 4.58984,-2.001953 9.42382,-2.001953 8.8379,0 13.47657,5.322265 4.63867,5.322266 4.63867,15.332031 z" /><path
     id="path895"
     style="font-size:100px;font-family:Ubuntu-Medium;fill:#ffffff"
     d="m 742.28516,-5.2734375 q -2.68555,1.171875 -4.88282,2.1972656 -2.14843,1.0253906 -5.66406,2.14843752 -2.97851,0.92773438 -6.49414,1.5625 -3.4668,0.68359378 -7.66602,0.68359378 -7.91015,0 -14.40429,-2.19726565 Q 696.72852,-3.125 691.94336,-7.8613281 687.25586,-12.5 684.61914,-19.628906 q -2.63672,-7.177735 -2.63672,-16.650391 0,-8.984375 2.53906,-16.064453 2.53907,-7.080078 7.32422,-11.962891 4.63867,-4.736328 11.18164,-7.226562 6.5918,-2.490234 14.59961,-2.490234 5.85938,0 11.66992,1.416015 5.85938,1.416016 12.98829,4.980469 v 11.474609 h -0.73243 q -6.00586,-5.029297 -11.91406,-7.324218 -5.9082,-2.294922 -12.64648,-2.294922 -5.51758,0 -9.96094,1.80664 -4.39453,1.757813 -7.86133,5.517578 -3.36914,3.66211 -5.27344,9.277344 -1.85546,5.566406 -1.85546,12.890625 0,7.666016 2.05078,13.183594 2.09961,5.517578 5.37109,8.984375 3.41797,3.613281 7.95898,5.3710936 4.58985,1.7089844 9.66797,1.7089844 6.98243,0 13.08594,-2.3925781 6.10352,-2.3925779 11.42578,-7.1777339 h 0.6836 z" /><path
     id="path897"
     style="font-size:100px;font-family:Ubuntu-Medium;fill:#ffffff"
     d="m 800.92773,0 h -9.17968 v -31.054687 q 0,-3.759766 -0.43946,-7.03125 -0.43945,-3.320313 -1.61132,-5.175782 -1.22071,-2.050781 -3.51563,-3.027343 -2.29492,-1.025391 -5.95703,-1.025391 -3.75977,0 -7.86133,1.855469 -4.10156,1.855468 -7.86133,4.736328 V 0 h -9.17968 v -75.976562 h 9.17968 v 27.490234 q 4.29688,-3.564453 8.88672,-5.566406 4.58985,-2.001953 9.42383,-2.001953 8.83789,0 13.47656,5.322265 4.63867,5.322266 4.63867,15.332031 z" /><path
     id="path899"
     style="font-size:100px;font-family:Ubuntu-Medium;fill:#ffffff"
     d="m 860.98633,0 h -9.13086 v -5.8105469 q -1.2207,0.8300782 -3.32031,2.34375 -2.05079,1.4648438 -4.00391,2.34375 Q 842.23633,0 839.25781,0.73242187 836.2793,1.5136719 832.27539,1.5136719 q -7.37305,0 -12.5,-4.8828125 -5.12695,-4.8828125 -5.12695,-12.4511724 0,-6.201171 2.63672,-10.009765 2.68554,-3.857422 7.61718,-6.054688 4.98047,-2.197265 11.96289,-2.978515 6.98243,-0.78125 14.99024,-1.171875 v -1.416016 q 0,-3.125 -1.12305,-5.175781 -1.07422,-2.050781 -3.125,-3.222656 -1.95312,-1.123047 -4.6875,-1.513672 -2.73437,-0.390625 -5.71289,-0.390625 -3.61328,0 -8.05664,0.976562 -4.44336,0.927735 -9.17969,2.734375 h -0.48828 v -9.326172 q 2.68555,-0.732421 7.76367,-1.611328 5.07813,-0.878906 10.00977,-0.878906 5.76172,0 10.00976,0.976563 4.29688,0.927734 7.42188,3.222656 3.07617,2.246094 4.6875,5.810547 1.61133,3.564453 1.61133,8.83789 z m -9.13086,-13.427734 v -15.185547 q -4.19922,0.24414 -9.91211,0.732422 -5.66406,0.488281 -8.98438,1.416015 -3.95507,1.123047 -6.39648,3.515625 -2.44141,2.34375 -2.44141,6.494141 0,4.6875 2.83203,7.080078 2.83204,2.34375 8.64258,2.34375 4.83399,0 8.83789,-1.8554688 4.00391,-1.9042972 7.42188,-4.5410152 z" /><path
     id="path901"
     style="font-size:100px;font-family:Ubuntu-Medium;fill:#ffffff"
     d="m 925.24414,-27.246094 q 0,13.330078 -6.83594,21.0449221 -6.83593,7.7148438 -18.31054,7.7148438 -11.57227,0 -18.40821,-7.7148438 -6.78711,-7.7148441 -6.78711,-21.0449221 0,-13.330078 6.78711,-21.044922 6.83594,-7.763671 18.40821,-7.763671 11.47461,0 18.31054,7.763671 6.83594,7.714844 6.83594,21.044922 z m -9.47266,0 q 0,-10.595703 -4.15039,-15.722656 -4.15039,-5.175781 -11.52343,-5.175781 -7.47071,0 -11.6211,5.175781 -4.10156,5.126953 -4.10156,15.722656 0,10.253907 4.15039,15.576172 4.15039,5.2734376 11.57227,5.2734376 7.32421,0 11.47461,-5.2246096 4.19921,-5.273437 4.19921,-15.625 z" /><path
     id="path903"
     style="font-size:100px;font-family:Ubuntu-Medium;fill:#ffffff"
     d="m 978.4668,-15.722656 q 0,7.4707029 -6.20118,12.2558591 -6.15234,4.7851563 -16.8457,4.7851563 -6.05469,0 -11.13281,-1.41601565 Q 939.25781,-1.5625 935.83984,-3.2714844 V -13.574219 h 0.48828 q 4.34571,3.271485 9.66797,5.2246096 5.32227,1.9042969 10.20508,1.9042969 6.05469,0 9.47266,-1.953125 3.41797,-1.9531255 3.41797,-6.1523435 0,-3.222656 -1.85547,-4.882813 -1.85547,-1.660156 -7.12891,-2.832031 -1.95312,-0.439453 -5.12695,-1.025391 -3.125,-0.585937 -5.71289,-1.269531 -7.17774,-1.904297 -10.20508,-5.566406 -2.97852,-3.710938 -2.97852,-9.082031 0,-3.369141 1.36719,-6.347657 1.41602,-2.978515 4.24805,-5.322265 2.73437,-2.294922 6.93359,-3.613281 4.24805,-1.367188 9.47266,-1.367188 4.88281,0 9.86328,1.220703 5.0293,1.171875 8.34961,2.88086 v 9.814453 h -0.48828 q -3.51563,-2.587891 -8.54492,-4.345703 -5.0293,-1.806641 -9.86329,-1.806641 -5.02929,0 -8.49609,1.953125 -3.4668,1.904297 -3.4668,5.712891 0,3.36914 2.09961,5.078125 2.05078,1.708984 6.64063,2.783203 2.53906,0.585937 5.66406,1.171875 3.17383,0.585937 5.27344,1.074218 6.39648,1.464844 9.86328,5.029297 3.4668,3.613282 3.4668,9.570313 z" /></g>
</svg>
