<?xml version="1.0" encoding="utf-8"?>
<!-- Generator: Adobe Illustrator 24.0.2, SVG Export Plug-In . SVG Version: 6.00 Build 0)  -->
<svg version="1.1"
	 id="svg8" xmlns:cc="http://creativecommons.org/ns#" xmlns:dc="http://purl.org/dc/elements/1.1/" xmlns:inkscape="http://www.inkscape.org/namespaces/inkscape" xmlns:rdf="http://www.w3.org/1999/02/22-rdf-syntax-ns#" xmlns:sodipodi="http://sodipodi.sourceforge.net/DTD/sodipodi-0.dtd" xmlns:svg="http://www.w3.org/2000/svg"
	 xmlns="http://www.w3.org/2000/svg" xmlns:xlink="http://www.w3.org/1999/xlink" x="0px" y="0px" viewBox="0 0 1384.9 644"
	 style="enable-background:new 0 0 1384.9 644;" xml:space="preserve">
<style type="text/css">
	.st0{fill:#FFFFFF;}
	.st1{fill:#050505;}
	.st2{font-family:'Ubuntu-Bold';}
	.st3{font-size:200px;}
</style>
<sodipodi:namedview  bordercolor="#666666" borderopacity="1.0" id="base" inkscape:current-layer="layer1" inkscape:cx="1026.25" inkscape:cy="767.5" inkscape:document-rotation="0" inkscape:document-units="mm" inkscape:pageopacity="0" inkscape:pageshadow="2" inkscape:window-height="1075" inkscape:window-maximized="1" inkscape:window-width="1741" inkscape:window-x="0" inkscape:window-y="23" inkscape:zoom="0.81839864" pagecolor="#ff28ff" showgrid="false" units="px">
	</sodipodi:namedview>
<path id="path878" d="M345.6,52.4c-62.2,0-112.9,50.6-112.9,112.9s50.6,112.9,112.9,112.9s113.6-50.6,113.6-112.9
	S407.8,52.4,345.6,52.4z M379.5,120.1c6.2,0,11.3,5.1,11.3,11.3c0,6.2-5,11.3-11.3,11.3c-6.2,0-11.3-5.1-11.3-11.3
	C368.2,125.1,373.2,120.1,379.5,120.1z M311.8,120.1c6.2,0,11.3,5.1,11.3,11.3c0,6.2-5.1,11.3-11.3,11.3s-11.3-5.1-11.3-11.3
	C300.5,125.1,305.5,120.1,311.8,120.1z M399.7,183.3c-12.8,17-33,27.1-54.1,27.1s-41.4-10.1-54.1-27.1c-3.8-5-2.8-12.1,2.2-15.8
	c5-3.8,12.1-2.7,15.8,2.2c17.3,23,54.9,23,72.2,0c3.7-5,10.8-6,15.8-2.2C402.5,171.3,403.5,178.3,399.7,183.3z"/>
<path d="M344.9,299.5c-74.2,0-134.3-60.1-134.3-134.3c0-11.3,1.4-22.3,4-32.8c0-0.1,0-0.2,0.1-0.2c1-4,2.2-7.9,3.6-11.8H80.6
	c-17.4,0-31.5,14.1-31.5,31.5V498c0,53.1,43.1,96.2,96.2,96.2h195.3c17.4,0,31.5-14.1,31.5-31.5v-11.7c-2.5-4.9-3.9-10.5-3.9-16.4
	V354.8c0-5.9,1.4-11.4,3.9-16.3v-38.9H344.9z M91.2,291c2.7-2.7,6.5-4.4,10.7-4.4h138c8.4,0,15.2,6.8,15.2,15.2
	c0,4.2-1.7,8-4.5,10.7c-2.7,2.8-6.5,4.5-10.7,4.5h-138c-8.4,0-15.2-6.8-15.2-15.2C86.7,297.6,88.4,293.8,91.2,291z M318.6,508.9
	c-2.8,2.7-6.5,4.4-10.7,4.4h-206c-8.4,0-15.2-6.8-15.2-15.2c0-4.2,1.7-8,4.5-10.7c2.7-2.7,6.5-4.4,10.7-4.4h206
	c8.4,0,15.2,6.8,15.2,15.2C323,502.4,321.3,506.2,318.6,508.9z M318.6,440.3c-2.8,2.7-6.5,4.4-10.7,4.4h-206
	c-8.4,0-15.2-6.8-15.2-15.2c0-4.2,1.7-8,4.5-10.7c2.7-2.7,6.5-4.4,10.7-4.4h206c8.4,0,15.2,6.8,15.2,15.2
	C323,433.8,321.3,437.6,318.6,440.3z M318.6,380.3c-2.8,2.7-6.5,4.4-10.7,4.4h-206c-8.4,0-15.2-6.8-15.2-15.2c0-4.2,1.7-8,4.5-10.7
	c2.7-2.7,6.5-4.4,10.7-4.4h206c8.4,0,15.2,6.8,15.2,15.2C323,373.8,321.3,377.6,318.6,380.3z"/>
<path d="M409.2,300.5L409.2,300.5c-0.3,0-0.6-0.1-0.9-0.2c0,0,0,0,0,0c0,0,0,0,0,0c0,0,0,0,0,0c0,0,0,0,0,0c-0.1,0-0.2,0-0.3,0
	c-0.2,0-0.3-0.1-0.5-0.1c-0.4-0.1-0.7-0.1-1.1-0.2c-0.3,0-0.6-0.1-0.9-0.1c-0.3,0-0.6-0.1-0.8-0.1c-0.7-0.1-1.5-0.1-2.2-0.2
	c-0.3,0-0.6,0-0.9-0.1c-0.4,0-0.8,0-1.1-0.1c-0.9,0-1.8,0-2.7,0h-95.4c-32.7,0-59.8,23.8-65.1,54.9h70.6c8.4,0,15.2,6.8,15.2,15.2
	c0,4.2-1.7,8-4.5,10.7c-2.8,2.7-6.5,4.4-10.7,4.4h-71.5v29.6h71.5c8.4,0,15.2,6.8,15.2,15.2c0,4.2-1.7,8-4.5,10.7
	c-2.8,2.7-6.5,4.4-10.7,4.4h-71.5V483h71.5c8.4,0,15.2,6.8,15.2,15.2c0,4.2-1.7,8-4.5,10.7c-2.8,2.7-6.5,4.4-10.7,4.4h-71.5v15
	c0,36.4,29.5,66,66,66h95.4c36.4,0,66-29.5,66-66V365.5C463.7,333,440.2,305.9,409.2,300.5z M439.8,534.7c0,19.8-16,35.8-35.8,35.8
	c-9.9,0-18.8-4-25.3-10.5c-2.6-2.6-4.8-5.6-6.5-9c-2.5-4.9-3.9-10.5-3.9-16.4V354.8c0-5.9,1.4-11.4,3.9-16.3
	c5.9-11.5,18-19.4,31.8-19.4c9.9,0,18.8,4,25.3,10.5c6.5,6.5,10.5,15.4,10.5,25.3V534.7z"/>
<path d="M463.7,351.3v34.2c0,10.8-10.2,19.8-23.9,22.1v-52.8c0-9.9-4-18.8-10.5-25.3C422.8,323,413.9,319,404,319
	c-13.9,0-25.9,7.9-31.8,19.4c-2.5,4.9-3.9,10.5-3.9,16.3v-32.6c0-3.1,0.8-6,2.3-8.7c0.5-0.4,1.1-0.9,1.6-1.3
	c8.5-6.6,19-10.9,30.5-11.8c1.4-0.1,2.9-0.2,4.4-0.2c0.4,0,0.8,0,1.2,0c0,0,0,0,0,0c0,0,0,0,0,0c0,0,0,0,0,0c0,0,0,0,0,0
	C437.1,301,460.7,323.1,463.7,351.3z"/>
<path d="M214.7,132.4c-2.6,10.5-4,21.5-4,32.8v-3.4C210.6,151.7,212,141.8,214.7,132.4z"/>
<path d="M372.1,299.5h25.6c3.9,0,7.7,0.3,11.5,1h-37h-53c-5,0-9.9-0.3-14.7-1c-53-7.2-93.8-52.6-93.8-107.5v-26.8
	c0,74.2,60.1,134.3,134.3,134.3H372.1z"/>
<path id="path878_1_" class="st0" d="M333.6,34.6c-62.2,0-112.9,50.6-112.9,112.9s50.6,112.9,112.9,112.9s113.6-50.6,113.6-112.9
	S395.8,34.6,333.6,34.6z M367.4,102.3c6.2,0,11.3,5.1,11.3,11.3s-5,11.3-11.3,11.3c-6.2,0-11.3-5.1-11.3-11.3
	S361.2,102.3,367.4,102.3z M299.7,102.3c6.2,0,11.3,5.1,11.3,11.3s-5.1,11.3-11.3,11.3s-11.3-5.1-11.3-11.3S293.5,102.3,299.7,102.3
	z M387.7,165.6c-12.8,17-33,27.1-54.1,27.1s-41.4-10.1-54.1-27.1c-3.8-5-2.8-12.1,2.2-15.8c5-3.8,12.1-2.7,15.8,2.2
	c17.3,23,54.9,23,72.2,0c3.7-5,10.8-6,15.8-2.2C390.4,153.5,391.4,160.6,387.7,165.6z"/>
<path class="st0" d="M332.8,281.8c-74.2,0-134.3-60.1-134.3-134.3c0-11.3,1.4-22.3,4-32.8c0-0.1,0-0.2,0.1-0.2c1-4,2.2-7.9,3.6-11.8
	H68.6c-17.4,0-31.5,14.1-31.5,31.5v346.2c0,53.1,43.1,96.2,96.2,96.2h195.3c17.4,0,31.5-14.1,31.5-31.5v-11.7
	c-2.5-4.9-3.9-10.5-3.9-16.4V337c0-5.9,1.4-11.4,3.9-16.3v-38.9H332.8z M79.1,273.3c2.7-2.7,6.5-4.4,10.7-4.4h138
	c8.4,0,15.2,6.8,15.2,15.2c0,4.2-1.7,8-4.5,10.7c-2.7,2.8-6.5,4.5-10.7,4.5h-138c-8.4,0-15.2-6.8-15.2-15.2
	C74.7,279.8,76.4,276,79.1,273.3z M306.5,491.2c-2.8,2.7-6.5,4.4-10.7,4.4h-206c-8.4,0-15.2-6.8-15.2-15.2c0-4.2,1.7-8,4.5-10.7
	c2.7-2.7,6.5-4.4,10.7-4.4h206c8.4,0,15.2,6.8,15.2,15.2C311,484.6,309.3,488.4,306.5,491.2z M306.5,422.6
	c-2.8,2.7-6.5,4.4-10.7,4.4h-206c-8.4,0-15.2-6.8-15.2-15.2c0-4.2,1.7-8,4.5-10.7c2.7-2.7,6.5-4.4,10.7-4.4h206
	c8.4,0,15.2,6.8,15.2,15.2C311,416,309.3,419.8,306.5,422.6z M306.5,362.6c-2.8,2.7-6.5,4.4-10.7,4.4h-206
	c-8.4,0-15.2-6.8-15.2-15.2c0-4.2,1.7-8,4.5-10.7c2.7-2.7,6.5-4.4,10.7-4.4h206c8.4,0,15.2,6.8,15.2,15.2
	C311,356.1,309.3,359.8,306.5,362.6z"/>
<path class="st0" d="M397.1,282.8L397.1,282.8c-0.3,0-0.6-0.1-0.9-0.2c0,0,0,0,0,0c0,0,0,0,0,0c0,0,0,0,0,0c0,0,0,0,0,0
	c-0.1,0-0.2,0-0.3,0c-0.2,0-0.3-0.1-0.5-0.1c-0.4-0.1-0.7-0.1-1.1-0.2c-0.3,0-0.6-0.1-0.9-0.1c-0.3,0-0.6-0.1-0.8-0.1
	c-0.7-0.1-1.5-0.1-2.2-0.2c-0.3,0-0.6,0-0.9-0.1c-0.4,0-0.8,0-1.1-0.1c-0.9,0-1.8,0-2.7,0h-95.4c-32.7,0-59.8,23.8-65,54.9h70.6
	c8.4,0,15.2,6.8,15.2,15.2c0,4.2-1.7,8-4.5,10.7c-2.8,2.7-6.5,4.4-10.7,4.4h-71.5v29.6h71.5c8.4,0,15.2,6.8,15.2,15.2
	c0,4.2-1.7,8-4.5,10.7c-2.8,2.7-6.5,4.4-10.7,4.4h-71.5v38.2h71.5c8.4,0,15.2,6.8,15.2,15.2c0,4.2-1.7,8-4.5,10.7
	c-2.8,2.7-6.5,4.4-10.7,4.4h-71.5v15c0,36.4,29.5,66,66,66h95.4c36.4,0,66-29.5,66-66V347.7C451.6,315.2,428.1,288.2,397.1,282.8z
	 M427.7,517c0,19.8-16,35.8-35.8,35.8c-9.9,0-18.8-4-25.3-10.5c-2.6-2.6-4.8-5.6-6.5-9c-2.5-4.9-3.9-10.5-3.9-16.4V337
	c0-5.9,1.4-11.4,3.9-16.3c5.9-11.5,18-19.4,31.8-19.4c9.9,0,18.8,4,25.3,10.5c6.5,6.5,10.5,15.4,10.5,25.3V517z"/>
<path class="st0" d="M451.6,333.6v34.2c0,10.8-10.2,19.8-23.9,22.1V337c0-9.9-4-18.8-10.5-25.3c-6.5-6.5-15.4-10.5-25.3-10.5
	c-13.9,0-25.9,7.9-31.8,19.4c-2.5,4.9-3.9,10.5-3.9,16.3v-32.6c0-3.1,0.8-6,2.3-8.7c0.5-0.4,1.1-0.9,1.6-1.3
	c8.5-6.6,19-10.9,30.5-11.8c1.4-0.1,2.9-0.2,4.4-0.2c0.4,0,0.8,0,1.2,0c0,0,0,0,0,0c0,0,0,0,0,0c0,0,0,0,0,0c0,0,0,0,0,0
	C425.1,283.2,448.7,305.3,451.6,333.6z"/>
<path class="st0" d="M202.6,114.7c-2.6,10.5-4,21.5-4,32.8v-3.4C198.6,133.9,200,124,202.6,114.7z"/>
<path class="st0" d="M360.1,281.8h25.6c3.9,0,7.7,0.3,11.5,1h-37.1h-53c-5,0-9.9-0.3-14.7-1c-52.9-7.2-93.8-52.6-93.8-107.5v-26.8
	c0,74.2,60.1,134.3,134.3,134.3H360.1z"/>
<text transform="matrix(1 0 0 1 517.5013 433.3069)" class="st1 st2 st3">Newsent</text>
<text transform="matrix(1 0 0 1 504.2664 420.7094)" class="st0 st2 st3">Newsent</text>
</svg>
