<?xml version="1.0" encoding="utf-8"?>
<!-- Generator: Adobe Illustrator 24.0.2, SVG Export Plug-In . SVG Version: 6.00 Build 0)  -->
<svg version="1.1"
	 id="svg8" xmlns:cc="http://creativecommons.org/ns#" xmlns:dc="http://purl.org/dc/elements/1.1/" xmlns:inkscape="http://www.inkscape.org/namespaces/inkscape" xmlns:rdf="http://www.w3.org/1999/02/22-rdf-syntax-ns#" xmlns:sodipodi="http://sodipodi.sourceforge.net/DTD/sodipodi-0.dtd" xmlns:svg="http://www.w3.org/2000/svg"
	 xmlns="http://www.w3.org/2000/svg" xmlns:xlink="http://www.w3.org/1999/xlink" x="0px" y="0px" viewBox="0 0 2048 850"
	 style="enable-background:new 0 0 2048 850;" xml:space="preserve">
<style type="text/css">
	.st0{fill:#FFFFFF;}
</style>
<sodipodi:namedview  bordercolor="#666666" borderopacity="1.0" id="base" inkscape:current-layer="svg8" inkscape:cx="1334.5114" inkscape:cy="772.52259" inkscape:document-rotation="0" inkscape:document-units="mm" inkscape:pageopacity="0" inkscape:pageshadow="2" inkscape:window-height="1075" inkscape:window-maximized="1" inkscape:window-width="1743" inkscape:window-x="0" inkscape:window-y="23" inkscape:zoom="0.63197503" pagecolor="#ff28ff" showgrid="false" units="px">
	</sodipodi:namedview>
<path id="path878" d="M665.5,35.9c-62.2,0-112.9,50.6-112.9,112.9c0,62.2,50.6,112.9,112.9,112.9S779.1,211,779.1,148.8
	C779.1,86.5,727.7,35.9,665.5,35.9z M699.4,103.6c6.2,0,11.3,5.1,11.3,11.3s-5,11.3-11.3,11.3c-6.2,0-11.3-5.1-11.3-11.3
	S693.1,103.6,699.4,103.6z M631.6,103.6c6.2,0,11.3,5.1,11.3,11.3s-5.1,11.3-11.3,11.3s-11.3-5.1-11.3-11.3S625.4,103.6,631.6,103.6
	z M719.6,166.8c-12.8,17-33,27.1-54.1,27.1s-41.4-10.1-54.1-27.1c-3.8-5-2.8-12.1,2.2-15.8c5-3.8,12.1-2.7,15.8,2.2
	c17.3,23,54.9,23,72.2,0c3.7-5,10.8-6,15.8-2.2S723.4,161.9,719.6,166.8z"/>
<path id="path837" d="M664.8,283c-74.2,0-134.3-60.1-134.3-134.3c0-11.3,1.4-22.3,4-32.8c0-0.1,0-0.2,0.1-0.2c1-4,2.2-7.9,3.6-11.8
	H400.5c-17.4,0-31.5,14.1-31.5,31.5v346.2c0,53.1,43.1,96.2,96.2,96.2h195.3c17.4,0,31.5-14.1,31.5-31.5v-11.7
	c-2.5-4.9-3.9-10.5-3.9-16.4V338.3c0-5.9,1.4-11.4,3.9-16.3v-39H664.8z M411.1,274.6c2.7-2.7,6.5-4.4,10.7-4.4h138
	c8.4,0,15.2,6.8,15.2,15.2c0,4.2-1.7,8-4.5,10.7c-2.7,2.8-6.5,4.5-10.7,4.5h-138c-8.4,0-15.2-6.8-15.2-15.2
	C406.6,281.1,408.3,277.3,411.1,274.6z M638.5,492.4c-2.8,2.7-6.5,4.4-10.7,4.4h-206c-8.4,0-15.2-6.8-15.2-15.2
	c0-4.2,1.7-8,4.5-10.7c2.7-2.7,6.5-4.4,10.7-4.4h206c8.4,0,15.2,6.8,15.2,15.2C642.9,485.9,641.2,489.7,638.5,492.4z M638.5,423.8
	c-2.8,2.7-6.5,4.4-10.7,4.4h-206c-8.4,0-15.2-6.8-15.2-15.2c0-4.2,1.7-8,4.5-10.7c2.7-2.7,6.5-4.4,10.7-4.4h206
	c8.4,0,15.2,6.8,15.2,15.2C642.9,417.3,641.2,421.1,638.5,423.8z M638.5,363.9c-2.8,2.7-6.5,4.4-10.7,4.4h-206
	c-8.4,0-15.2-6.8-15.2-15.2c0-4.2,1.7-8,4.5-10.7c2.7-2.7,6.5-4.4,10.7-4.4h206c8.4,0,15.2,6.8,15.2,15.2
	C642.9,357.3,641.2,361.1,638.5,363.9z"/>
<path id="path839" d="M729.1,284L729.1,284c-0.3,0-0.6-0.1-0.9-0.2l0,0l0,0l0,0l0,0c-0.1,0-0.2,0-0.3,0c-0.2,0-0.3-0.1-0.5-0.1
	c-0.4-0.1-0.7-0.1-1.1-0.2c-0.3,0-0.6-0.1-0.9-0.1c-0.3,0-0.6-0.1-0.8-0.1c-0.7-0.1-1.5-0.1-2.2-0.2c-0.3,0-0.6,0-0.9-0.1
	c-0.4,0-0.8,0-1.1-0.1c-0.9,0-1.8,0-2.7,0h-95.4c-32.7,0-59.8,23.8-65,54.9h70.6c8.4,0,15.2,6.8,15.2,15.2c0,4.2-1.7,8-4.5,10.7
	s-6.5,4.4-10.7,4.4h-71.5v29.6h71.5c8.4,0,15.2,6.8,15.2,15.2c0,4.2-1.7,8-4.5,10.7s-6.5,4.4-10.7,4.4h-71.5v38.2h71.5
	c8.4,0,15.2,6.8,15.2,15.2c0,4.2-1.7,8-4.5,10.7s-6.5,4.4-10.7,4.4h-71.5v15c0,36.4,29.5,66,66,66h95.4c36.4,0,66-29.5,66-66V349
	C783.6,316.5,760,289.5,729.1,284z M759.6,518.3c0,19.8-16,35.8-35.8,35.8c-9.9,0-18.8-4-25.3-10.5c-2.6-2.6-4.8-5.6-6.5-9
	c-2.5-4.9-3.9-10.5-3.9-16.4V338.3c0-5.9,1.4-11.4,3.9-16.3c5.9-11.5,18-19.4,31.8-19.4c9.9,0,18.8,4,25.3,10.5s10.5,15.4,10.5,25.3
	V518.3z"/>
<path id="path841" d="M783.6,334.8V369c0,10.8-10.2,19.8-23.9,22.1v-52.8c0-9.9-4-18.8-10.5-25.3s-15.4-10.5-25.3-10.5
	c-13.9,0-25.9,7.9-31.8,19.4c-2.5,4.9-3.9,10.5-3.9,16.3v-32.6c0-3.1,0.8-6,2.3-8.7c0.5-0.4,1.1-0.9,1.6-1.3
	c8.5-6.6,19-10.9,30.5-11.8c1.4-0.1,2.9-0.2,4.4-0.2c0.4,0,0.8,0,1.2,0l0,0l0,0l0,0l0,0C757,284.5,780.6,306.6,783.6,334.8z"/>
<path id="path843" d="M534.6,115.9c-2.6,10.5-4,21.5-4,32.8v-3.4C530.5,135.2,531.9,125.3,534.6,115.9z"/>
<path id="path845" d="M692,283h25.6c3.9,0,7.7,0.3,11.5,1h-37h-53c-5,0-9.9-0.3-14.7-1c-53-7.2-93.8-52.6-93.8-107.5v-26.8
	c0,74.2,60.1,134.3,134.3,134.3H692z"/>
<path id="path878_1_" class="st0" d="M653.4,18.1c-62.2,0-112.9,50.6-112.9,112.9s50.6,112.9,112.9,112.9S767.1,193.2,767.1,131
	S715.7,18.1,653.4,18.1z M687.3,85.9c6.2,0,11.3,5.1,11.3,11.3s-5,11.3-11.3,11.3c-6.2,0-11.3-5.1-11.3-11.3S681.1,85.9,687.3,85.9z
	 M619.6,85.9c6.2,0,11.3,5.1,11.3,11.3s-5.1,11.3-11.3,11.3s-11.3-5.1-11.3-11.3S613.3,85.9,619.6,85.9z M707.6,149.1
	c-12.8,17-33,27.1-54.1,27.1s-41.4-10.1-54.1-27.1c-3.8-5-2.8-12.1,2.2-15.8c5-3.8,12.1-2.7,15.8,2.2c17.3,23,54.9,23,72.2,0
	c3.7-5,10.8-6,15.8-2.2C710.3,137,711.3,144.1,707.6,149.1z"/>
<path id="path848" class="st0" d="M652.7,265.3c-74.2,0-134.3-60.1-134.3-134.3c0-11.3,1.4-22.3,4-32.8c0-0.1,0-0.2,0.1-0.2
	c1-4,2.2-7.9,3.6-11.8H388.4c-17.4,0-31.5,14.1-31.5,31.5v346.2c0,53.1,43.1,96.2,96.2,96.2h195.3c17.4,0,31.5-14.1,31.5-31.5v-11.7
	c-2.5-4.9-3.9-10.5-3.9-16.4V320.6c0-5.9,1.4-11.4,3.9-16.3v-38.9h-27.2L652.7,265.3L652.7,265.3z M399,256.8
	c2.7-2.7,6.5-4.4,10.7-4.4h138c8.4,0,15.2,6.8,15.2,15.2c0,4.2-1.7,8-4.5,10.7c-2.7,2.8-6.5,4.5-10.7,4.5h-138
	c-8.4,0-15.2-6.8-15.2-15.2C394.6,263.4,396.3,259.6,399,256.8z M626.4,474.7c-2.8,2.7-6.5,4.4-10.7,4.4h-206
	c-8.4,0-15.2-6.8-15.2-15.2c0-4.2,1.7-8,4.5-10.7c2.7-2.7,6.5-4.4,10.7-4.4h206c8.4,0,15.2,6.8,15.2,15.2
	C630.9,468.1,629.2,471.9,626.4,474.7z M626.4,406.1c-2.8,2.7-6.5,4.4-10.7,4.4h-206c-8.4,0-15.2-6.8-15.2-15.2
	c0-4.2,1.7-8,4.5-10.7c2.7-2.7,6.5-4.4,10.7-4.4h206c8.4,0,15.2,6.8,15.2,15.2C630.9,399.6,629.2,403.3,626.4,406.1z M626.4,346.1
	c-2.8,2.7-6.5,4.4-10.7,4.4h-206c-8.4,0-15.2-6.8-15.2-15.2c0-4.2,1.7-8,4.5-10.7c2.7-2.7,6.5-4.4,10.7-4.4h206
	c8.4,0,15.2,6.8,15.2,15.2C630.9,339.6,629.2,343.4,626.4,346.1z"/>
<path id="path850" class="st0" d="M717,266.3L717,266.3c-0.3,0-0.6-0.1-0.9-0.2l0,0l0,0l0,0l0,0c-0.1,0-0.2,0-0.3,0
	c-0.2,0-0.3-0.1-0.5-0.1c-0.4-0.1-0.7-0.1-1.1-0.2c-0.3,0-0.6-0.1-0.9-0.1c-0.3,0-0.6-0.1-0.8-0.1c-0.7-0.1-1.5-0.1-2.2-0.2
	c-0.3,0-0.6,0-0.9-0.1c-0.4,0-0.8,0-1.1-0.1c-0.9,0-1.8,0-2.7,0h-95.4c-32.7,0-59.8,23.8-65,54.9h70.6c8.4,0,15.2,6.8,15.2,15.2
	c0,4.2-1.7,8-4.5,10.7s-6.5,4.4-10.7,4.4h-71.5V380h71.5c8.4,0,15.2,6.8,15.2,15.2c0,4.2-1.7,8-4.5,10.7s-6.5,4.4-10.7,4.4h-71.5
	v38.2h71.5c8.4,0,15.2,6.8,15.2,15.2c0,4.2-1.7,8-4.5,10.7s-6.5,4.4-10.7,4.4h-71.5v15c0,36.4,29.5,66,66,66h95.4
	c36.4,0,66-29.5,66-66V331.3C771.5,298.7,748,271.7,717,266.3z M747.6,500.5c0,19.8-16,35.8-35.8,35.8c-9.9,0-18.8-4-25.3-10.5
	c-2.6-2.6-4.8-5.6-6.5-9c-2.5-4.9-3.9-10.5-3.9-16.4V320.6c0-5.9,1.4-11.4,3.9-16.3c5.9-11.5,18-19.4,31.8-19.4
	c9.9,0,18.8,4,25.3,10.5s10.5,15.4,10.5,25.3V500.5z"/>
<path id="path852" class="st0" d="M771.5,317.1v34.2c0,10.8-10.2,19.8-23.9,22.1v-52.8c0-9.9-4-18.8-10.5-25.3s-15.4-10.5-25.3-10.5
	c-13.9,0-25.9,7.9-31.8,19.4c-2.5,4.9-3.9,10.5-3.9,16.3V288c0-3.1,0.8-6,2.3-8.7c0.5-0.4,1.1-0.9,1.6-1.3
	c8.5-6.6,19-10.9,30.5-11.8c1.4-0.1,2.9-0.2,4.4-0.2c0.4,0,0.8,0,1.2,0l0,0l0,0l0,0l0,0C745,266.8,768.5,288.9,771.5,317.1z"/>
<path id="path854" class="st0" d="M522.5,98.2c-2.6,10.5-4,21.5-4,32.8v-3.4C518.4,117.4,519.9,107.6,522.5,98.2z"/>
<path id="path856" class="st0" d="M679.9,265.3h25.6c3.9,0,7.7,0.3,11.5,1h-37h-53c-5,0-9.9-0.3-14.7-1
	c-53-7.2-93.8-52.6-93.8-107.5V131c0,74.2,60.1,134.3,134.3,134.3H679.9z"/>
<g id="text862" transform="matrix(1 0 0 1 597.036 797.2371)">
	<path id="path906" d="M56.2-64.1H19.4v20.5H51v8.6H19.4V0H9.8v-72.7h46.4V-64.1z"/>
	<path id="path908" d="M76.3-63.7H66v-9.5h10.4L76.3-63.7L76.3-63.7z M75.7,0h-9.2v-54.5h9.2V0z"/>
	<path id="path910" d="M139.6,0h-9.2v-31.1c0-2.5-0.1-4.9-0.4-7c-0.3-2.2-0.8-3.9-1.6-5.2c-0.8-1.4-2-2.4-3.5-3c-1.5-0.7-3.5-1-6-1
		s-5.1,0.6-7.9,1.9c-2.7,1.2-5.4,2.8-7.9,4.7V0H94v-54.5h9.2v6.1c2.9-2.4,5.8-4.2,8.9-5.6c3.1-1.3,6.2-2,9.4-2
		c5.9,0,10.4,1.8,13.5,5.3s4.6,8.7,4.6,15.3V0z"/>
	<path id="path912" d="M201.5,0h-9.2v-5.7c-2.6,2.3-5.4,4.1-8.3,5.3s-6,1.9-9.3,1.9C168.2,1.5,163-1,159.2-6s-5.7-12-5.7-20.8
		c0-4.6,0.7-8.7,2-12.4c1.3-3.6,3.1-6.7,5.4-9.2c2.2-2.5,4.8-4.4,7.7-5.7c3-1.3,6-2,9.2-2c2.9,0,5.4,0.3,7.6,0.9
		c2.2,0.6,4.5,1.5,7,2.8V-76h9.2L201.5,0z M192.3-13.4v-31.3c-2.5-1.1-4.7-1.9-6.6-2.3s-4.1-0.6-6.4-0.6c-5.1,0-9.1,1.8-12,5.4
		c-2.9,3.6-4.3,8.7-4.3,15.2s1.1,11.4,3.3,14.8s5.8,5,10.6,5c2.6,0,5.2-0.6,7.9-1.7C187.5-10.1,190-11.6,192.3-13.4L192.3-13.4z"/>
	<path id="path914" d="M311.6-5.3c-1.8,0.8-3.4,1.5-4.9,2.2c-1.4,0.7-3.3,1.4-5.7,2.1c-2,0.6-4.2,1.1-6.5,1.6s-4.9,0.7-7.7,0.7
		c-5.3,0-10.1-0.7-14.4-2.2s-8-3.8-11.2-7c-3.1-3.1-5.6-7-7.3-11.8c-1.8-4.8-2.6-10.3-2.6-16.7c0-6,0.8-11.3,2.5-16.1
		s4.1-8.7,7.3-12c3.1-3.2,6.8-5.6,11.2-7.2c4.4-1.7,9.3-2.5,14.6-2.5c3.9,0,7.8,0.5,11.7,1.4c3.9,0.9,8.2,2.6,13,5v11.5h-0.7
		c-4-3.4-8-5.8-11.9-7.3c-3.9-1.5-8.2-2.3-12.6-2.3c-3.7,0-7,0.6-10,1.8c-2.9,1.2-5.6,3-7.9,5.5c-2.2,2.4-4,5.5-5.3,9.3
		c-1.2,3.7-1.9,8-1.9,12.9c0,5.1,0.7,9.5,2.1,13.2s3.2,6.7,5.4,9c2.3,2.4,4.9,4.2,8,5.4c3.1,1.1,6.3,1.7,9.7,1.7
		c4.7,0,9-0.8,13.1-2.4s7.9-4,11.4-7.2h0.7v11.4H311.6z"/>
	<path id="path916" d="M367,0h-9.1v-5.8c-0.8,0.6-1.9,1.3-3.3,2.3s-2.7,1.8-4,2.3c-1.5,0.7-3.3,1.4-5.3,1.9s-4.3,0.8-7,0.8
		c-4.9,0-9.1-1.6-12.5-4.9s-5.1-7.4-5.1-12.5c0-4.1,0.9-7.5,2.6-10c1.8-2.6,4.3-4.6,7.6-6.1c3.3-1.5,7.3-2.5,12-3s9.7-0.9,15-1.2
		v-1.4c0-2.1-0.4-3.8-1.1-5.2s-1.8-2.4-3.1-3.2c-1.3-0.7-2.9-1.3-4.7-1.5s-3.7-0.4-5.7-0.4c-2.4,0-5.1,0.3-8.1,1
		c-3,0.6-6,1.5-9.2,2.7h-0.5v-9.3c1.8-0.5,4.4-1,7.8-1.6s6.7-0.9,10-0.9c3.8,0,7.2,0.3,10,1c2.9,0.6,5.3,1.7,7.4,3.2
		s3.6,3.4,4.7,5.8s1.6,5.3,1.6,8.8L367,0L367,0z M357.9-13.4v-15.2c-2.8,0.2-6.1,0.4-9.9,0.7c-3.8,0.3-6.8,0.8-9,1.4
		c-2.6,0.7-4.8,1.9-6.4,3.5s-2.4,3.7-2.4,6.5c0,3.1,0.9,5.5,2.8,7.1s4.8,2.3,8.6,2.3c3.2,0,6.2-0.6,8.8-1.9
		C353.2-10.2,355.6-11.7,357.9-13.4z"/>
	<path id="path918" d="M394.1,0h-9.2v-76h9.2V0z"/>
	<path id="path920" d="M491.9,0h-9.2v-31.1c0-2.3-0.1-4.6-0.3-6.8c-0.2-2.2-0.6-3.9-1.3-5.2c-0.7-1.4-1.8-2.5-3.2-3.2
		s-3.4-1.1-6.1-1.1c-2.6,0-5.1,0.7-7.7,2s-5.1,2.9-7.7,4.9c0.1,0.7,0.2,1.6,0.2,2.6c0.1,1,0.1,2,0.1,2.9V0h-9.2v-31.1
		c0-2.4-0.1-4.7-0.3-6.8c-0.2-2.2-0.6-3.9-1.3-5.2c-0.7-1.4-1.8-2.4-3.2-3.1c-1.4-0.7-3.4-1.1-6.1-1.1c-2.5,0-5,0.6-7.6,1.9
		c-2.5,1.2-5,2.8-7.5,4.7V0h-9.2v-54.5h9.2v6.1c2.9-2.4,5.7-4.2,8.5-5.6c2.9-1.3,5.9-2,9.1-2c3.7,0,6.9,0.8,9.4,2.3
		c2.6,1.6,4.5,3.7,5.8,6.5c3.7-3.1,7.1-5.4,10.2-6.7c3.1-1.4,6.3-2.1,9.8-2.1c6,0,10.4,1.8,13.2,5.5c2.9,3.6,4.3,8.7,4.3,15.2
		L491.9,0z"/>
	<path id="path922" d="M571.1,0h-28.7v-7.4h9.5v-57.9h-9.5v-7.4h28.7v7.4h-9.5v57.9h9.5V0z"/>
	<path id="path924" d="M632.6,0h-9.2v-31.1c0-2.5-0.1-4.9-0.4-7c-0.3-2.2-0.8-3.9-1.6-5.2c-0.8-1.4-2-2.4-3.5-3c-1.5-0.7-3.5-1-6-1
		s-5.1,0.6-7.9,1.9s-5.4,2.8-7.9,4.7V0H587v-54.5h9.2v6.1c2.9-2.4,5.8-4.2,8.9-5.6s6.2-2,9.4-2c5.9,0,10.4,1.8,13.5,5.3
		s4.6,8.7,4.6,15.3L632.6,0L632.6,0z"/>
	<path id="path926" d="M742.3-5.3c-1.8,0.8-3.4,1.5-4.9,2.2c-1.4,0.7-3.3,1.4-5.7,2.1c-2,0.6-4.2,1.1-6.5,1.6s-4.9,0.7-7.7,0.7
		c-5.3,0-10.1-0.7-14.4-2.2c-4.3-1.5-8-3.8-11.2-7c-3.1-3.1-5.6-7-7.3-11.8c-1.8-4.8-2.6-10.3-2.6-16.7c0-6,0.8-11.3,2.5-16.1
		s4.1-8.7,7.3-12c3.1-3.2,6.8-5.6,11.2-7.2c4.4-1.7,9.3-2.5,14.6-2.5c3.9,0,7.8,0.5,11.7,1.4s8.2,2.6,13,5v11.5h-0.7
		c-4-3.4-8-5.8-11.9-7.3c-3.9-1.5-8.2-2.3-12.6-2.3c-3.7,0-7,0.6-10,1.8c-2.9,1.2-5.6,3-7.9,5.5c-2.2,2.4-4,5.5-5.3,9.3
		c-1.2,3.7-1.9,8-1.9,12.9c0,5.1,0.7,9.5,2.1,13.2c1.4,3.7,3.2,6.7,5.4,9c2.3,2.4,4.9,4.2,8,5.4c3.1,1.1,6.3,1.7,9.7,1.7
		c4.7,0,9-0.8,13.1-2.4s7.9-4,11.4-7.2h0.7L742.3-5.3L742.3-5.3z"/>
	<path id="path928" d="M800.9,0h-9.2v-31.1c0-2.5-0.1-4.9-0.4-7c-0.3-2.2-0.8-3.9-1.6-5.2c-0.8-1.4-2-2.4-3.5-3c-1.5-0.7-3.5-1-6-1
		s-5.1,0.6-7.9,1.9s-5.4,2.8-7.9,4.7V0h-9.2v-76h9.2v27.5c2.9-2.4,5.8-4.2,8.9-5.6s6.2-2,9.4-2c5.9,0,10.4,1.8,13.5,5.3
		s4.6,8.7,4.6,15.3V0H800.9z"/>
	<path id="path930" d="M861,0h-9.1v-5.8c-0.8,0.6-1.9,1.3-3.3,2.3c-1.4,1-2.7,1.8-4,2.3c-1.5,0.7-3.3,1.4-5.3,1.9s-4.3,0.8-7,0.8
		c-4.9,0-9.1-1.6-12.5-4.9s-5.1-7.4-5.1-12.5c0-4.1,0.9-7.5,2.6-10c1.8-2.6,4.3-4.6,7.6-6.1c3.3-1.5,7.3-2.5,12-3s9.7-0.9,15-1.2
		v-1.4c0-2.1-0.4-3.8-1.1-5.2c-0.7-1.4-1.8-2.4-3.1-3.2c-1.3-0.7-2.9-1.3-4.7-1.5s-3.7-0.4-5.7-0.4c-2.4,0-5.1,0.3-8.1,1
		c-3,0.6-6,1.5-9.2,2.7h-0.5v-9.3c1.8-0.5,4.4-1,7.8-1.6s6.7-0.9,10-0.9c3.8,0,7.2,0.3,10,1c2.9,0.6,5.3,1.7,7.4,3.2
		c2.1,1.5,3.6,3.4,4.7,5.8s1.6,5.3,1.6,8.8L861,0L861,0z M851.9-13.4v-15.2c-2.8,0.2-6.1,0.4-9.9,0.7c-3.8,0.3-6.8,0.8-9,1.4
		c-2.6,0.7-4.8,1.9-6.4,3.5c-1.6,1.6-2.4,3.7-2.4,6.5c0,3.1,0.9,5.5,2.8,7.1c1.9,1.6,4.8,2.3,8.6,2.3c3.2,0,6.2-0.6,8.8-1.9
		C847.1-10.2,849.6-11.7,851.9-13.4z"/>
	<path id="path932" d="M925.2-27.2c0,8.9-2.3,15.9-6.8,21s-10.7,7.7-18.3,7.7c-7.7,0-13.9-2.6-18.4-7.7s-6.8-12.2-6.8-21
		s2.3-15.9,6.8-21c4.6-5.2,10.7-7.8,18.4-7.8c7.6,0,13.8,2.6,18.3,7.8C923-43.1,925.2-36.1,925.2-27.2z M915.8-27.2
		c0-7.1-1.4-12.3-4.2-15.7c-2.8-3.5-6.6-5.2-11.5-5.2c-5,0-8.9,1.7-11.6,5.2c-2.7,3.4-4.1,8.7-4.1,15.7c0,6.8,1.4,12,4.2,15.6
		c2.8,3.5,6.6,5.3,11.6,5.3c4.9,0,8.7-1.7,11.5-5.2C914.4-15.1,915.8-20.3,915.8-27.2z"/>
	<path id="path934" d="M978.5-15.7c0,5-2.1,9.1-6.2,12.3c-4.1,3.2-9.7,4.8-16.8,4.8c-4,0-7.7-0.5-11.1-1.4c-3.4-1-6.2-2-8.4-3.2
		v-10.3h0.5c2.9,2.2,6.1,3.9,9.7,5.2c3.5,1.3,6.9,1.9,10.2,1.9c4,0,7.2-0.7,9.5-2s3.4-3.4,3.4-6.2c0-2.1-0.6-3.8-1.9-4.9
		s-3.6-2.1-7.1-2.8c-1.3-0.3-3-0.6-5.1-1s-4-0.8-5.7-1.3c-4.8-1.3-8.2-3.1-10.2-5.6s-3-5.5-3-9.1c0-2.2,0.5-4.4,1.4-6.3
		c0.9-2,2.4-3.8,4.2-5.3s4.1-2.7,6.9-3.6c2.8-0.9,6-1.4,9.5-1.4c3.3,0,6.5,0.4,9.9,1.2s6.1,1.7,8.3,2.9v9.8H976
		c-2.3-1.7-5.2-3.2-8.5-4.3c-3.4-1.2-6.6-1.8-9.9-1.8c-3.4,0-6.2,0.7-8.5,2s-3.5,3.2-3.5,5.7c0,2.2,0.7,3.9,2.1,5.1
		c1.4,1.1,3.6,2.1,6.6,2.8c1.7,0.4,3.6,0.8,5.7,1.2c2.1,0.4,3.9,0.7,5.3,1.1c4.3,1,7.6,2.7,9.9,5C977.3-22.9,978.5-19.7,978.5-15.7z
		"/>
</g>
<path id="path864" d="M1711.1,642.2H349.4c-7.8,0-14.2-6.3-14.2-14.2l0,0c0-7.8,6.3-14.2,14.2-14.2h1361.8c7.8,0,14.2,6.3,14.2,14.2
	l0,0C1725.3,635.9,1719,642.2,1711.1,642.2z"/>
<path id="path866" class="st0" d="M1698.6,627.6H336.9c-7.8,0-14.2-6.3-14.2-14.2l0,0c0-7.8,6.3-14.2,14.2-14.2h1361.8
	c7.8,0,14.2,6.3,14.2,14.2l0,0C1712.8,621.2,1706.5,627.6,1698.6,627.6z"/>
<g id="text868" transform="matrix(1 0 0 1 591.5389 793.2368)">
	<path id="path875" class="st0" d="M56.2-64.1H19.4v20.5H51v8.6H19.4V0H9.8v-72.7h46.4V-64.1z"/>
	<path id="path877" class="st0" d="M76.3-63.7H66v-9.5h10.4L76.3-63.7L76.3-63.7z M75.7,0h-9.2v-54.5h9.2V0z"/>
	<path id="path879" class="st0" d="M139.6,0h-9.2v-31.1c0-2.5-0.1-4.9-0.4-7c-0.3-2.2-0.8-3.9-1.6-5.2c-0.8-1.4-2-2.4-3.5-3
		c-1.5-0.7-3.5-1-6-1s-5.1,0.6-7.9,1.9c-2.7,1.2-5.4,2.8-7.9,4.7V0H94v-54.5h9.2v6.1c2.9-2.4,5.8-4.2,8.9-5.6c3.1-1.3,6.2-2,9.4-2
		c5.9,0,10.4,1.8,13.5,5.3s4.6,8.7,4.6,15.3V0z"/>
	<path id="path881" class="st0" d="M201.5,0h-9.2v-5.7c-2.6,2.3-5.4,4.1-8.3,5.3s-6,1.9-9.3,1.9C168.2,1.5,163-1,159.2-6
		s-5.7-12-5.7-20.8c0-4.6,0.7-8.7,2-12.4c1.3-3.6,3.1-6.7,5.4-9.2c2.2-2.5,4.8-4.4,7.7-5.7c3-1.3,6-2,9.2-2c2.9,0,5.4,0.3,7.6,0.9
		c2.2,0.6,4.5,1.5,7,2.8V-76h9.2L201.5,0z M192.3-13.4v-31.3c-2.5-1.1-4.7-1.9-6.6-2.3s-4.1-0.6-6.4-0.6c-5.1,0-9.1,1.8-12,5.4
		c-2.9,3.6-4.3,8.7-4.3,15.2s1.1,11.4,3.3,14.8s5.8,5,10.6,5c2.6,0,5.2-0.6,7.9-1.7C187.5-10.1,190-11.6,192.3-13.4L192.3-13.4z"/>
	<path id="path883" class="st0" d="M311.6-5.3c-1.8,0.8-3.4,1.5-4.9,2.2c-1.4,0.7-3.3,1.4-5.7,2.1c-2,0.6-4.2,1.1-6.5,1.6
		s-4.9,0.7-7.7,0.7c-5.3,0-10.1-0.7-14.4-2.2s-8-3.8-11.2-7c-3.1-3.1-5.6-7-7.3-11.8c-1.8-4.8-2.6-10.3-2.6-16.7
		c0-6,0.8-11.3,2.5-16.1s4.1-8.7,7.3-12c3.1-3.2,6.8-5.6,11.2-7.2c4.4-1.7,9.3-2.5,14.6-2.5c3.9,0,7.8,0.5,11.7,1.4
		c3.9,0.9,8.2,2.6,13,5v11.5h-0.7c-4-3.4-8-5.8-11.9-7.3c-3.9-1.5-8.2-2.3-12.6-2.3c-3.7,0-7,0.6-10,1.8c-2.9,1.2-5.6,3-7.9,5.5
		c-2.2,2.4-4,5.5-5.3,9.3c-1.2,3.7-1.9,8-1.9,12.9c0,5.1,0.7,9.5,2.1,13.2s3.2,6.7,5.4,9c2.3,2.4,4.9,4.2,8,5.4
		c3.1,1.1,6.3,1.7,9.7,1.7c4.7,0,9-0.8,13.1-2.4s7.9-4,11.4-7.2h0.7v11.4H311.6z"/>
	<path id="path885" class="st0" d="M367,0h-9.1v-5.8c-0.8,0.6-1.9,1.3-3.3,2.3s-2.7,1.8-4,2.3c-1.5,0.7-3.3,1.4-5.3,1.9
		s-4.3,0.8-7,0.8c-4.9,0-9.1-1.6-12.5-4.9s-5.1-7.4-5.1-12.5c0-4.1,0.9-7.5,2.6-10c1.8-2.6,4.3-4.6,7.6-6.1c3.3-1.5,7.3-2.5,12-3
		s9.7-0.9,15-1.2v-1.4c0-2.1-0.4-3.8-1.1-5.2s-1.8-2.4-3.1-3.2c-1.3-0.7-2.9-1.3-4.7-1.5s-3.7-0.4-5.7-0.4c-2.4,0-5.1,0.3-8.1,1
		c-3,0.6-6,1.5-9.2,2.7h-0.5v-9.3c1.8-0.5,4.4-1,7.8-1.6s6.7-0.9,10-0.9c3.8,0,7.2,0.3,10,1c2.9,0.6,5.3,1.7,7.4,3.2
		s3.6,3.4,4.7,5.8s1.6,5.3,1.6,8.8L367,0L367,0z M357.9-13.4v-15.2c-2.8,0.2-6.1,0.4-9.9,0.7c-3.8,0.3-6.8,0.8-9,1.4
		c-2.6,0.7-4.8,1.9-6.4,3.5s-2.4,3.7-2.4,6.5c0,3.1,0.9,5.5,2.8,7.1s4.8,2.3,8.6,2.3c3.2,0,6.2-0.6,8.8-1.9
		C353.2-10.2,355.6-11.7,357.9-13.4z"/>
	<path id="path887" class="st0" d="M394.1,0h-9.2v-76h9.2V0z"/>
	<path id="path889" class="st0" d="M491.9,0h-9.2v-31.1c0-2.3-0.1-4.6-0.3-6.8c-0.2-2.2-0.6-3.9-1.3-5.2c-0.7-1.4-1.8-2.5-3.2-3.2
		s-3.4-1.1-6.1-1.1c-2.6,0-5.1,0.7-7.7,2s-5.1,2.9-7.7,4.9c0.1,0.7,0.2,1.6,0.2,2.6c0.1,1,0.1,2,0.1,2.9V0h-9.2v-31.1
		c0-2.4-0.1-4.7-0.3-6.8c-0.2-2.2-0.6-3.9-1.3-5.2c-0.7-1.4-1.8-2.4-3.2-3.1c-1.4-0.7-3.4-1.1-6.1-1.1c-2.5,0-5,0.6-7.6,1.9
		c-2.5,1.2-5,2.8-7.5,4.7V0h-9.2v-54.5h9.2v6.1c2.9-2.4,5.7-4.2,8.5-5.6c2.9-1.3,5.9-2,9.1-2c3.7,0,6.9,0.8,9.4,2.3
		c2.6,1.6,4.5,3.7,5.8,6.5c3.7-3.1,7.1-5.4,10.2-6.7c3.1-1.4,6.3-2.1,9.8-2.1c6,0,10.4,1.8,13.2,5.5c2.9,3.6,4.3,8.7,4.3,15.2
		L491.9,0z"/>
	<path id="path891" class="st0" d="M571.1,0h-28.7v-7.4h9.5v-57.9h-9.5v-7.4h28.7v7.4h-9.5v57.9h9.5V0z"/>
	<path id="path893" class="st0" d="M632.6,0h-9.2v-31.1c0-2.5-0.1-4.9-0.4-7c-0.3-2.2-0.8-3.9-1.6-5.2c-0.8-1.4-2-2.4-3.5-3
		c-1.5-0.7-3.5-1-6-1s-5.1,0.6-7.9,1.9s-5.4,2.8-7.9,4.7V0H587v-54.5h9.2v6.1c2.9-2.4,5.8-4.2,8.9-5.6s6.2-2,9.4-2
		c5.9,0,10.4,1.8,13.5,5.3s4.6,8.7,4.6,15.3L632.6,0L632.6,0z"/>
	<path id="path895" class="st0" d="M742.3-5.3c-1.8,0.8-3.4,1.5-4.9,2.2c-1.4,0.7-3.3,1.4-5.7,2.1c-2,0.6-4.2,1.1-6.5,1.6
		s-4.9,0.7-7.7,0.7c-5.3,0-10.1-0.7-14.4-2.2c-4.3-1.5-8-3.8-11.2-7c-3.1-3.1-5.6-7-7.3-11.8c-1.8-4.8-2.6-10.3-2.6-16.7
		c0-6,0.8-11.3,2.5-16.1s4.1-8.7,7.3-12c3.1-3.2,6.8-5.6,11.2-7.2c4.4-1.7,9.3-2.5,14.6-2.5c3.9,0,7.8,0.5,11.7,1.4s8.2,2.6,13,5
		v11.5h-0.7c-4-3.4-8-5.8-11.9-7.3c-3.9-1.5-8.2-2.3-12.6-2.3c-3.7,0-7,0.6-10,1.8c-2.9,1.2-5.6,3-7.9,5.5c-2.2,2.4-4,5.5-5.3,9.3
		c-1.2,3.7-1.9,8-1.9,12.9c0,5.1,0.7,9.5,2.1,13.2c1.4,3.7,3.2,6.7,5.4,9c2.3,2.4,4.9,4.2,8,5.4c3.1,1.1,6.3,1.7,9.7,1.7
		c4.7,0,9-0.8,13.1-2.4s7.9-4,11.4-7.2h0.7L742.3-5.3L742.3-5.3z"/>
	<path id="path897" class="st0" d="M800.9,0h-9.2v-31.1c0-2.5-0.1-4.9-0.4-7c-0.3-2.2-0.8-3.9-1.6-5.2c-0.8-1.4-2-2.4-3.5-3
		c-1.5-0.7-3.5-1-6-1s-5.1,0.6-7.9,1.9s-5.4,2.8-7.9,4.7V0h-9.2v-76h9.2v27.5c2.9-2.4,5.8-4.2,8.9-5.6s6.2-2,9.4-2
		c5.9,0,10.4,1.8,13.5,5.3s4.6,8.7,4.6,15.3V0H800.9z"/>
	<path id="path899" class="st0" d="M861,0h-9.1v-5.8c-0.8,0.6-1.9,1.3-3.3,2.3c-1.4,1-2.7,1.8-4,2.3c-1.5,0.7-3.3,1.4-5.3,1.9
		s-4.3,0.8-7,0.8c-4.9,0-9.1-1.6-12.5-4.9s-5.1-7.4-5.1-12.5c0-4.1,0.9-7.5,2.6-10c1.8-2.6,4.3-4.6,7.6-6.1s7.3-2.5,12-3
		s9.7-0.9,15-1.2v-1.4c0-2.1-0.4-3.8-1.1-5.2c-0.7-1.4-1.8-2.4-3.1-3.2c-1.3-0.7-2.9-1.3-4.7-1.5s-3.7-0.4-5.7-0.4
		c-2.4,0-5.1,0.3-8.1,1c-3,0.6-6,1.5-9.2,2.7h-0.5v-9.3c1.8-0.5,4.4-1,7.8-1.6s6.7-0.9,10-0.9c3.8,0,7.2,0.3,10,1
		c2.9,0.6,5.3,1.7,7.4,3.2c2.1,1.5,3.6,3.4,4.7,5.8s1.6,5.3,1.6,8.8L861,0L861,0z M851.9-13.4v-15.2c-2.8,0.2-6.1,0.4-9.9,0.7
		c-3.8,0.3-6.8,0.8-9,1.4c-2.6,0.7-4.8,1.9-6.4,3.5c-1.6,1.6-2.4,3.7-2.4,6.5c0,3.1,0.9,5.5,2.8,7.1c1.9,1.6,4.8,2.3,8.6,2.3
		c3.2,0,6.2-0.6,8.8-1.9C847.1-10.2,849.6-11.7,851.9-13.4z"/>
	<path id="path901" class="st0" d="M925.2-27.2c0,8.9-2.3,15.9-6.8,21s-10.7,7.7-18.3,7.7c-7.7,0-13.9-2.6-18.4-7.7
		s-6.8-12.2-6.8-21s2.3-15.9,6.8-21c4.6-5.2,10.7-7.8,18.4-7.8c7.6,0,13.8,2.6,18.3,7.8C923-43.1,925.2-36.1,925.2-27.2z
		 M915.8-27.2c0-7.1-1.4-12.3-4.2-15.7c-2.8-3.5-6.6-5.2-11.5-5.2c-5,0-8.9,1.7-11.6,5.2c-2.7,3.4-4.1,8.7-4.1,15.7
		c0,6.8,1.4,12,4.2,15.6c2.8,3.5,6.6,5.3,11.6,5.3c4.9,0,8.7-1.7,11.5-5.2C914.4-15.1,915.8-20.3,915.8-27.2z"/>
	<path id="path903" class="st0" d="M978.5-15.7c0,5-2.1,9.1-6.2,12.3c-4.1,3.2-9.7,4.8-16.8,4.8c-4,0-7.7-0.5-11.1-1.4
		c-3.4-1-6.2-2-8.4-3.2v-10.3h0.5c2.9,2.2,6.1,3.9,9.7,5.2c3.5,1.3,6.9,1.9,10.2,1.9c4,0,7.2-0.7,9.5-2s3.4-3.4,3.4-6.2
		c0-2.1-0.6-3.8-1.9-4.9s-3.6-2.1-7.1-2.8c-1.3-0.3-3-0.6-5.1-1s-4-0.8-5.7-1.3c-4.8-1.3-8.2-3.1-10.2-5.6s-3-5.5-3-9.1
		c0-2.2,0.5-4.4,1.4-6.3c0.9-2,2.4-3.8,4.2-5.3s4.1-2.7,6.9-3.6c2.8-0.9,6-1.4,9.5-1.4c3.3,0,6.5,0.4,9.9,1.2s6.1,1.7,8.3,2.9v9.8
		H976c-2.3-1.7-5.2-3.2-8.5-4.3c-3.4-1.2-6.6-1.8-9.9-1.8c-3.4,0-6.2,0.7-8.5,2s-3.5,3.2-3.5,5.7c0,2.2,0.7,3.9,2.1,5.1
		c1.4,1.1,3.6,2.1,6.6,2.8c1.7,0.4,3.6,0.8,5.7,1.2c2.1,0.4,3.9,0.7,5.3,1.1c4.3,1,7.6,2.7,9.9,5C977.3-22.9,978.5-19.7,978.5-15.7z
		"/>
</g>
<g id="text882" transform="matrix(1 0 0 1 848.3544 413.05)">
	<path id="path907" d="M130.5,0h-23.9L37.6-130.1V0H19.5v-145.4h30l62.9,118.7v-118.7h18.1V0z"/>
	<path id="path909" d="M259-52.6h-80.4c0,6.7,1,12.6,3,17.6c2,4.9,4.8,9,8.3,12.2c3.4,3.1,7.4,5.5,12,7c4.7,1.6,9.8,2.3,15.4,2.3
		c7.4,0,14.9-1.5,22.4-4.4c7.6-3,12.9-5.9,16.1-8.8h1v20c-6.2,2.6-12.5,4.8-18.9,6.5s-13.2,2.6-20.3,2.6c-18.1,0-32.2-4.9-42.4-14.6
		C165-21.9,160-35.9,160-53.9c0-17.8,4.9-32,14.6-42.5c9.8-10.5,22.6-15.7,38.5-15.7c14.7,0,26,4.3,34,12.9c8,8.6,12,20.8,12,36.6
		V-52.6z M241.1-66.7c-0.1-9.6-2.5-17.1-7.3-22.4c-4.8-5.3-12-7.9-21.8-7.9c-9.8,0-17.7,2.9-23.5,8.7c-5.8,5.8-9.1,13-9.9,21.6
		H241.1z"/>
	<path id="path911" d="M424-109.1L395.6,0h-17l-28-84.1L322.8,0h-16.9l-28.7-109.1h19.1l20,84.5l27.2-84.5h15.1l27.9,84.5l18.9-84.5
		H424z"/>
	<path id="path913" d="M528.4-31.4c0,10-4.1,18.1-12.4,24.5c-8.2,6.4-19.4,9.6-33.7,9.6c-8.1,0-15.5-0.9-22.3-2.8
		c-6.7-2-12.3-4.1-16.9-6.3v-20.6h1c5.8,4.4,12.2,7.8,19.3,10.4c7.1,2.5,13.9,3.8,20.4,3.8c8.1,0,14.4-1.3,18.9-3.9
		s6.8-6.7,6.8-12.3c0-4.3-1.2-7.6-3.7-9.8s-7.2-4.1-14.3-5.7c-2.6-0.6-6-1.3-10.3-2.1c-4.2-0.8-8-1.6-11.4-2.5
		c-9.6-2.5-16.4-6.2-20.4-11.1c-4-4.9-6-11-6-18.2c0-4.5,0.9-8.7,2.7-12.7c1.9-4,4.7-7.5,8.5-10.6c3.6-3.1,8.3-5.5,13.9-7.2
		c5.7-1.8,12-2.7,18.9-2.7c6.5,0,13.1,0.8,19.7,2.4c6.7,1.6,12.3,3.5,16.7,5.8v19.6h-1c-4.7-3.5-10.4-6.3-17.1-8.7
		c-6.7-2.4-13.3-3.6-19.7-3.6c-6.7,0-12.4,1.3-17,3.9c-4.6,2.5-6.9,6.3-6.9,11.4c0,4.5,1.4,7.9,4.2,10.2c2.7,2.3,7.2,4.1,13.3,5.6
		c3.4,0.8,7.2,1.6,11.3,2.3c4.2,0.8,7.7,1.5,10.5,2.1c8.5,2,15.1,5.3,19.7,10.1C526.1-45.8,528.4-39.4,528.4-31.4z"/>
	<path id="path915" d="M646.1-52.6h-80.4c0,6.7,1,12.6,3,17.6c2,4.9,4.8,9,8.3,12.2c3.4,3.1,7.4,5.5,12,7c4.7,1.6,9.8,2.3,15.4,2.3
		c7.4,0,14.9-1.5,22.4-4.4c7.6-3,12.9-5.9,16.1-8.8h1v20C637.8-4,631.4-1.9,625-0.1s-13.2,2.6-20.3,2.6c-18.1,0-32.2-4.9-42.4-14.6
		c-10.2-9.8-15.2-23.8-15.2-41.8c0-17.8,4.9-32,14.6-42.5c9.8-10.5,22.6-15.7,38.5-15.7c14.7,0,26,4.3,34,12.9
		c8,8.6,12,20.8,12,36.6V-52.6z M628.2-66.7c-0.1-9.6-2.5-17.1-7.3-22.4c-4.8-5.3-12-7.9-21.8-7.9c-9.8,0-17.7,2.9-23.5,8.7
		c-5.8,5.8-9.1,13-9.9,21.6H628.2z"/>
	<path id="path917" d="M765.1,0h-18.4v-62.1c0-5-0.3-9.7-0.9-14.1c-0.6-4.4-1.7-7.9-3.2-10.4c-1.6-2.7-4-4.8-7-6.1
		c-3.1-1.4-7-2.1-11.9-2.1c-5,0-10.3,1.2-15.7,3.7s-10.7,5.6-15.7,9.5V0h-18.4v-109.1h18.4V-97c5.7-4.8,11.7-8.5,17.8-11.1
		s12.4-4,18.8-4c11.8,0,20.8,3.5,27,10.6s9.3,17.3,9.3,30.7V0z"/>
	<path id="path919" d="M857.1-1c-3.5,0.9-7.2,1.7-11.3,2.2c-4,0.6-7.6,0.9-10.8,0.9c-11.1,0-19.6-3-25.4-9s-8.7-15.6-8.7-28.8v-58
		h-12.4v-15.4h12.4v-31.3h18.4v31.3h37.9v15.4h-37.9v49.7c0,5.7,0.1,10.2,0.4,13.5c0.3,3.2,1.2,6.2,2.7,9c1.4,2.6,3.4,4.5,5.9,5.8
		c2.5,1.2,6.4,1.8,11.5,1.8c3,0,6.1-0.4,9.4-1.3c3.3-0.9,5.6-1.7,7-2.2h1V-1z"/>
</g>
<g id="text884" transform="matrix(1 0 0 1 835.163 403.9843)">
	<path id="path892" class="st0" d="M130.5,0h-23.9L37.6-130.1V0H19.5v-145.4h30l62.9,118.7v-118.7h18.1V0z"/>
	<path id="path894" class="st0" d="M259-52.6h-80.4c0,6.7,1,12.6,3,17.6c2,4.9,4.8,9,8.3,12.2c3.4,3.1,7.4,5.5,12,7
		c4.7,1.6,9.8,2.3,15.4,2.3c7.4,0,14.9-1.5,22.4-4.4c7.6-3,12.9-5.9,16.1-8.8h1v20c-6.2,2.6-12.5,4.8-18.9,6.5s-13.2,2.6-20.3,2.6
		c-18.1,0-32.2-4.9-42.4-14.6C165-21.9,160-35.9,160-53.9c0-17.8,4.9-32,14.6-42.5c9.8-10.5,22.6-15.7,38.5-15.7
		c14.7,0,26,4.3,34,12.9c8,8.6,12,20.8,12,36.6V-52.6z M241.1-66.7c-0.1-9.6-2.5-17.1-7.3-22.4c-4.8-5.3-12-7.9-21.8-7.9
		c-9.8,0-17.7,2.9-23.5,8.7c-5.8,5.8-9.1,13-9.9,21.6H241.1z"/>
	<path id="path896" class="st0" d="M424-109.1L395.6,0h-17l-28-84.1L322.8,0h-16.9l-28.7-109.1h19.1l20,84.5l27.2-84.5h15.1
		l27.9,84.5l18.9-84.5H424z"/>
	<path id="path898" class="st0" d="M528.4-31.4c0,10-4.1,18.1-12.4,24.5c-8.2,6.4-19.4,9.6-33.7,9.6c-8.1,0-15.5-0.9-22.3-2.8
		c-6.7-2-12.3-4.1-16.9-6.3v-20.6h1c5.8,4.4,12.2,7.8,19.3,10.4c7.1,2.5,13.9,3.8,20.4,3.8c8.1,0,14.4-1.3,18.9-3.9
		s6.8-6.7,6.8-12.3c0-4.3-1.2-7.6-3.7-9.8s-7.2-4.1-14.3-5.7c-2.6-0.6-6-1.3-10.3-2.1c-4.2-0.8-8-1.6-11.4-2.5
		c-9.6-2.5-16.4-6.2-20.4-11.1c-4-4.9-6-11-6-18.2c0-4.5,0.9-8.7,2.7-12.7c1.9-4,4.7-7.5,8.5-10.6c3.6-3.1,8.3-5.5,13.9-7.2
		c5.7-1.8,12-2.7,18.9-2.7c6.5,0,13.1,0.8,19.7,2.4c6.7,1.6,12.3,3.5,16.7,5.8v19.6h-1c-4.7-3.5-10.4-6.3-17.1-8.7
		c-6.7-2.4-13.3-3.6-19.7-3.6c-6.7,0-12.4,1.3-17,3.9c-4.6,2.5-6.9,6.3-6.9,11.4c0,4.5,1.4,7.9,4.2,10.2c2.7,2.3,7.2,4.1,13.3,5.6
		c3.4,0.8,7.2,1.6,11.3,2.3c4.2,0.8,7.7,1.5,10.5,2.1c8.5,2,15.1,5.3,19.7,10.1C526.1-45.8,528.4-39.4,528.4-31.4z"/>
	<path id="path900" class="st0" d="M646.1-52.6h-80.4c0,6.7,1,12.6,3,17.6c2,4.9,4.8,9,8.3,12.2c3.4,3.1,7.4,5.5,12,7
		c4.7,1.6,9.8,2.3,15.4,2.3c7.4,0,14.9-1.5,22.4-4.4c7.6-3,12.9-5.9,16.1-8.8h1v20C637.8-4,631.4-1.9,625-0.1s-13.2,2.6-20.3,2.6
		c-18.1,0-32.2-4.9-42.4-14.6c-10.2-9.8-15.2-23.8-15.2-41.8c0-17.8,4.9-32,14.6-42.5c9.8-10.5,22.6-15.7,38.5-15.7
		c14.7,0,26,4.3,34,12.9c8,8.6,12,20.8,12,36.6V-52.6z M628.2-66.7c-0.1-9.6-2.5-17.1-7.3-22.4c-4.8-5.3-12-7.9-21.8-7.9
		c-9.8,0-17.7,2.9-23.5,8.7c-5.8,5.8-9.1,13-9.9,21.6H628.2z"/>
	<path id="path902" class="st0" d="M765.1,0h-18.4v-62.1c0-5-0.3-9.7-0.9-14.1c-0.6-4.4-1.7-7.9-3.2-10.4c-1.6-2.7-4-4.8-7-6.1
		c-3.1-1.4-7-2.1-11.9-2.1c-5,0-10.3,1.2-15.7,3.7s-10.7,5.6-15.7,9.5V0h-18.4v-109.1h18.4V-97c5.7-4.8,11.7-8.5,17.8-11.1
		s12.4-4,18.8-4c11.8,0,20.8,3.5,27,10.6s9.3,17.3,9.3,30.7V0z"/>
	<path id="path904" class="st0" d="M857.1-1c-3.5,0.9-7.2,1.7-11.3,2.2c-4,0.6-7.6,0.9-10.8,0.9c-11.1,0-19.6-3-25.4-9
		s-8.7-15.6-8.7-28.8v-58h-12.4v-15.4h12.4v-31.3h18.4v31.3h37.9v15.4h-37.9v49.7c0,5.7,0.1,10.2,0.4,13.5c0.3,3.2,1.2,6.2,2.7,9
		c1.4,2.6,3.4,4.5,5.9,5.8c2.5,1.2,6.4,1.8,11.5,1.8c3,0,6.1-0.4,9.4-1.3c3.3-0.9,5.6-1.7,7-2.2h1V-1z"/>
</g>
</svg>
