<?xml version="1.0" encoding="utf-8"?>
<!-- Generator: Adobe Illustrator 24.0.2, SVG Export Plug-In . SVG Version: 6.00 Build 0)  -->
<svg version="1.1"
	 id="svg8" inkscape:export-filename="/Applications/MAMP/htdocs/Newsent/app__/resources/android/icon.png" xmlns:cc="http://creativecommons.org/ns#" xmlns:dc="http://purl.org/dc/elements/1.1/" xmlns:inkscape="http://www.inkscape.org/namespaces/inkscape" xmlns:rdf="http://www.w3.org/1999/02/22-rdf-syntax-ns#" xmlns:sodipodi="http://sodipodi.sourceforge.net/DTD/sodipodi-0.dtd" xmlns:svg="http://www.w3.org/2000/svg"
	 xmlns="http://www.w3.org/2000/svg" xmlns:xlink="http://www.w3.org/1999/xlink" x="0px" y="0px" viewBox="0 0 1024 1024"
	 style="enable-background:new 0 0 1024 1024;" xml:space="preserve">
<style type="text/css">
	.st0{display:none;}
	.st1{fill:#EC1B32;}
	.st2{fill:#FFFFFF;}
</style>
<defs>
	
		<inkscape:perspective  id="perspective2422" inkscape:persp3d-origin="135.46667 : 90.31111 : 1" inkscape:vp_x="0 : 135.46667 : 1" inkscape:vp_y="0 : 1000 : 0" inkscape:vp_z="270.93333 : 135.46667 : 1" sodipodi:type="inkscape:persp3d">
		</inkscape:perspective>
</defs>
<sodipodi:namedview  bordercolor="#666666" borderopacity="1.0" id="base" inkscape:current-layer="layer5" inkscape:cx="1246.6416" inkscape:cy="862.26664" inkscape:document-rotation="0" inkscape:document-units="mm" inkscape:guide-bbox="true" inkscape:pageopacity="0.0" inkscape:pageshadow="2" inkscape:window-height="1075" inkscape:window-maximized="1" inkscape:window-width="1740" inkscape:window-x="0" inkscape:window-y="23" inkscape:zoom="0.4" pagecolor="#ffffff" showgrid="false" showguides="true" units="px">
	<sodipodi:guide  id="guide1690" orientation="0,-1" position="-10.869369,136.42489"></sodipodi:guide>
	<sodipodi:guide  id="guide2258" orientation="1,0" position="136.54645,136.42489"></sodipodi:guide>
</sodipodi:namedview>
<g id="layer1" inkscape:groupmode="layer" inkscape:label="Layer 1">
</g>
<g id="layer4" inkscape:groupmode="layer" inkscape:label="Layer 4" sodipodi:insensitive="true" class="st0">
	
		<image style="display:inline;overflow:visible;opacity:0.82;enable-background:new    ;" width="1024" height="1024" id="image2252" xlink:href="9AE83D49F3704CE3.png"  transform="matrix(1 0 0 1 4.6585 -3.9214)">
	</image>
</g>
<g id="layer3" inkscape:groupmode="layer" inkscape:label="Layer 3">
</g>
<g id="Layer_1_1_">
	<g id="Layer_2_1_">
	</g>
	<path id="path836" class="st1" d="M819.5,1022.9h-617C90.1,1022.9-1,931.8-1,819.4v-617C-1,90,90.1-1.1,202.5-1.1h617
		C931.9-1.1,1023,90,1023,202.4v617C1023,931.8,931.9,1022.9,819.5,1022.9z"/>
</g>
<path id="path878" d="M629.2,147.7c-83.2,0-150.8,67.7-150.8,150.8s67.7,150.8,150.8,150.8S781,381.7,781,298.5
	S712.4,147.7,629.2,147.7z M674.5,238.2c8.3,0,15.1,6.8,15.1,15.1s-6.7,15.1-15.1,15.1c-8.3,0-15.1-6.8-15.1-15.1
	S666.1,238.2,674.5,238.2z M584,238.2c8.3,0,15.1,6.8,15.1,15.1s-6.8,15.1-15.1,15.1c-8.3,0-15.1-6.8-15.1-15.1
	S575.6,238.2,584,238.2z M701.6,322.7c-17,22.7-44.1,36.2-72.3,36.2s-55.3-13.5-72.3-36.2c-5-6.7-3.7-16.1,3-21.1
	c6.7-5,16.2-3.6,21.1,3c23.1,30.7,73.4,30.7,96.5,0c5-6.7,14.4-8,21.1-3C705.2,306.6,706.6,316,701.6,322.7z"/>
<path d="M628.3,477.9c-99.1,0-179.4-80.3-179.4-179.4c0-15.1,1.9-29.8,5.4-43.9c0-0.1,0.1-0.2,0.1-0.3c1.3-5.4,2.9-10.6,4.8-15.8
	h-184c-23.3,0-42.1,18.8-42.1,42.1v462.6c0,71,57.6,128.6,128.6,128.6h260.9c23.3,0,42.1-18.8,42.1-42.1v-15.6
	c-3.4-6.5-5.3-14-5.3-21.8V551.8c0-7.9,1.9-15.3,5.3-21.8v-52H628.3z M289.2,466.6c3.7-3.7,8.7-5.9,14.3-5.9h184.4
	c11.2,0,20.3,9.1,20.3,20.3c0,5.6-2.3,10.7-5.9,14.3c-3.7,3.7-8.7,5.9-14.3,5.9H303.6c-11.2,0-20.3-9.1-20.3-20.3
	C283.3,475.4,285.6,470.3,289.2,466.6z M593.1,757.8c-3.7,3.7-8.7,5.9-14.3,5.9H303.6c-11.2,0-20.3-9.1-20.3-20.3
	c0-5.6,2.3-10.7,5.9-14.3c3.7-3.7,8.7-5.9,14.3-5.9h275.2c11.2,0,20.3,9.1,20.3,20.3C599.1,749,596.8,754.1,593.1,757.8z
	 M593.1,666.1c-3.7,3.7-8.7,5.9-14.3,5.9H303.6c-11.2,0-20.3-9.1-20.3-20.3c0-5.6,2.3-10.7,5.9-14.3c3.7-3.7,8.7-5.9,14.3-5.9h275.2
	c11.2,0,20.3,9.1,20.3,20.3C599.1,657.4,596.8,662.4,593.1,666.1z M593.1,586c-3.7,3.7-8.7,5.9-14.3,5.9H303.6
	c-11.2,0-20.3-9.1-20.3-20.3c0-5.6,2.3-10.7,5.9-14.3c3.7-3.7,8.7-5.9,14.3-5.9h275.2c11.2,0,20.3,9.1,20.3,20.3
	C599.1,577.2,596.8,582.3,593.1,586z"/>
<path d="M714.2,479.3L714.2,479.3c-0.4-0.1-0.9-0.1-1.3-0.2c0,0,0,0,0,0c0,0,0,0,0,0c0,0,0,0,0,0c0,0,0,0,0,0c-0.1,0-0.2,0-0.3-0.1
	c-0.2,0-0.4-0.1-0.7-0.1c-0.5-0.1-1-0.2-1.5-0.2c-0.4-0.1-0.8-0.1-1.2-0.1c-0.4-0.1-0.7-0.1-1.1-0.1c-1-0.1-2-0.2-3-0.3
	c-0.4,0-0.8-0.1-1.2-0.1c-0.5,0-1-0.1-1.5-0.1c-1.2,0-2.4-0.1-3.6-0.1H571.3c-43.7,0-79.9,31.8-86.9,73.4h94.4
	c11.2,0,20.3,9.1,20.3,20.3c0,5.6-2.3,10.7-5.9,14.3c-3.7,3.7-8.7,5.9-14.3,5.9h-95.6v39.6h95.6c11.2,0,20.3,9.1,20.3,20.3
	c0,5.6-2.3,10.7-5.9,14.3c-3.7,3.7-8.7,5.9-14.3,5.9h-95.6v51.1h95.6c11.2,0,20.3,9.1,20.3,20.3c0,5.6-2.3,10.7-5.9,14.3
	c-3.7,3.7-8.7,5.9-14.3,5.9h-95.6v20c0,48.7,39.5,88.1,88.2,88.1h127.5c48.7,0,88.2-39.5,88.2-88.1V566.1
	C787,522.7,755.6,486.6,714.2,479.3z M755,792.3c0,26.4-21.4,47.8-47.8,47.8c-13.2,0-25.2-5.4-33.8-14c-3.5-3.5-6.5-7.5-8.7-12
	c-3.4-6.5-5.3-14-5.3-21.8V551.8c0-7.9,1.9-15.3,5.3-21.8c7.9-15.4,24-26,42.6-26c13.2,0,25.2,5.4,33.8,14c8.7,8.7,14,20.6,14,33.8
	V792.3z"/>
<path d="M787,547.2v45.6c0,14.4-13.7,26.5-32,29.6v-70.6c0-13.2-5.3-25.2-14-33.8c-8.7-8.6-20.6-14-33.8-14
	c-18.5,0-34.6,10.5-42.6,26c-3.4,6.5-5.3,14-5.3,21.8v-43.5c0-4.1,1.1-8,3.1-11.6c0.7-0.6,1.4-1.2,2.2-1.7
	c11.4-8.9,25.5-14.5,40.7-15.7c1.9-0.1,3.9-0.2,5.9-0.2c0.5,0,1.1,0,1.6,0c0,0,0,0,0,0c0,0,0,0,0,0c0,0,0,0,0,0c0,0,0,0,0,0
	C751.5,479.9,783,509.4,787,547.2z"/>
<path d="M454.2,254.7c-3.5,14-5.4,28.7-5.4,43.9V294C448.8,280.4,450.7,267.2,454.2,254.7z"/>
<path d="M664.6,477.9h34.2c5.2,0,10.3,0.5,15.3,1.3h-49.5h-70.8c-6.7,0-13.3-0.5-19.7-1.3c-70.8-9.6-125.3-70.2-125.3-143.6v-35.8
	c0,99.1,80.3,179.4,179.4,179.4H664.6z"/>
<path id="path878_1_" class="st2" d="M613.8,134.2C530.7,134.2,463,201.8,463,285c0,83.2,67.7,150.8,150.8,150.8
	S765.6,368.1,765.6,285C765.6,201.8,697,134.2,613.8,134.2z M659.1,224.7c8.3,0,15.1,6.8,15.1,15.1s-6.7,15.1-15.1,15.1
	c-8.3,0-15.1-6.8-15.1-15.1S650.7,224.7,659.1,224.7z M568.6,224.7c8.3,0,15.1,6.8,15.1,15.1s-6.8,15.1-15.1,15.1
	c-8.3,0-15.1-6.8-15.1-15.1S560.2,224.7,568.6,224.7z M686.2,309.1c-17,22.7-44.1,36.2-72.3,36.2s-55.3-13.5-72.3-36.2
	c-5-6.7-3.7-16.1,3-21.1c6.7-5,16.2-3.6,21.1,3c23.1,30.7,73.4,30.7,96.5,0c5-6.7,14.4-8,21.1-3C689.8,293,691.2,302.5,686.2,309.1z
	"/>
<path class="st2" d="M612.9,464.4c-99.1,0-179.4-80.3-179.4-179.4c0-15.1,1.9-29.8,5.4-43.9c0-0.1,0.1-0.2,0.1-0.3
	c1.3-5.4,2.9-10.6,4.8-15.8h-184c-23.3,0-42.1,18.8-42.1,42.1v462.6c0,71,57.6,128.6,128.6,128.6h260.9c23.3,0,42.1-18.8,42.1-42.1
	v-15.6c-3.4-6.5-5.3-14-5.3-21.8V538.3c0-7.9,1.9-15.3,5.3-21.8v-52H612.9z M273.8,453.1c3.7-3.7,8.7-5.9,14.3-5.9h184.4
	c11.2,0,20.3,9.1,20.3,20.3c0,5.6-2.3,10.7-5.9,14.3c-3.7,3.7-8.7,5.9-14.3,5.9H288.2c-11.2,0-20.3-9.1-20.3-20.3
	C267.9,461.8,270.2,456.8,273.8,453.1z M577.7,744.2c-3.7,3.7-8.7,5.9-14.3,5.9H288.2c-11.2,0-20.3-9.1-20.3-20.3
	c0-5.6,2.3-10.7,5.9-14.3c3.7-3.7,8.7-5.9,14.3-5.9h275.2c11.2,0,20.3,9.1,20.3,20.3C583.7,735.5,581.4,740.6,577.7,744.2z
	 M577.7,652.6c-3.7,3.7-8.7,5.9-14.3,5.9H288.2c-11.2,0-20.3-9.1-20.3-20.3c0-5.6,2.3-10.7,5.9-14.3c3.7-3.7,8.7-5.9,14.3-5.9h275.2
	c11.2,0,20.3,9.1,20.3,20.3C583.7,643.8,581.4,648.9,577.7,652.6z M577.7,572.4c-3.7,3.7-8.7,5.9-14.3,5.9H288.2
	c-11.2,0-20.3-9.1-20.3-20.3c0-5.6,2.3-10.7,5.9-14.3c3.7-3.7,8.7-5.9,14.3-5.9h275.2c11.2,0,20.3,9.1,20.3,20.3
	C583.7,563.7,581.4,568.8,577.7,572.4z"/>
<path class="st2" d="M698.8,465.7L698.8,465.7c-0.4-0.1-0.9-0.1-1.3-0.2c0,0,0,0,0,0c0,0,0,0,0,0c0,0,0,0,0,0c0,0,0,0,0,0
	c-0.1,0-0.2,0-0.3-0.1c-0.2,0-0.4-0.1-0.7-0.1c-0.5-0.1-1-0.2-1.5-0.2c-0.4-0.1-0.8-0.1-1.2-0.1c-0.4-0.1-0.7-0.1-1.1-0.1
	c-1-0.1-2-0.2-3-0.3c-0.4,0-0.8-0.1-1.2-0.1c-0.5,0-1-0.1-1.5-0.1c-1.2,0-2.4-0.1-3.6-0.1H555.9c-43.7,0-79.9,31.8-86.9,73.4h94.4
	c11.2,0,20.3,9.1,20.3,20.3c0,5.6-2.3,10.7-5.9,14.3c-3.7,3.7-8.7,5.9-14.3,5.9h-95.6V618h95.6c11.2,0,20.3,9.1,20.3,20.3
	c0,5.6-2.3,10.7-5.9,14.3c-3.7,3.7-8.7,5.9-14.3,5.9h-95.6v51.1h95.6c11.2,0,20.3,9.1,20.3,20.3c0,5.6-2.3,10.7-5.9,14.3
	c-3.7,3.7-8.7,5.9-14.3,5.9h-95.6v20c0,48.7,39.5,88.1,88.2,88.1h127.5c48.7,0,88.2-39.5,88.2-88.1V552.6
	C771.6,509.1,740.2,473,698.8,465.7z M739.6,778.7c0,26.4-21.4,47.8-47.8,47.8c-13.2,0-25.2-5.4-33.8-14c-3.5-3.5-6.5-7.5-8.7-12
	c-3.4-6.5-5.3-14-5.3-21.8V538.3c0-7.9,1.9-15.3,5.3-21.8c7.9-15.4,24-26,42.6-26c13.2,0,25.2,5.4,33.8,14c8.7,8.7,14,20.6,14,33.8
	V778.7z"/>
<path class="st2" d="M771.6,533.6v45.6c0,14.4-13.7,26.5-32,29.6v-70.6c0-13.2-5.3-25.2-14-33.8c-8.7-8.6-20.6-14-33.8-14
	c-18.5,0-34.6,10.5-42.6,26c-3.4,6.5-5.3,14-5.3,21.8v-43.5c0-4.1,1.1-8,3.1-11.6c0.7-0.6,1.4-1.2,2.2-1.7
	c11.4-8.9,25.5-14.5,40.7-15.7c1.9-0.1,3.9-0.2,5.9-0.2c0.5,0,1.1,0,1.6,0c0,0,0,0,0,0c0,0,0,0,0,0c0,0,0,0,0,0c0,0,0,0,0,0
	C736.1,466.4,767.6,495.9,771.6,533.6z"/>
<path class="st2" d="M438.8,241.1c-3.5,14-5.4,28.7-5.4,43.9v-4.5C433.4,266.8,435.3,253.6,438.8,241.1z"/>
<path class="st2" d="M649.2,464.4h34.2c5.2,0,10.3,0.5,15.3,1.3h-49.5h-70.8c-6.7,0-13.3-0.5-19.7-1.3
	c-70.8-9.6-125.3-70.2-125.3-143.6V285c0,99.1,80.3,179.4,179.4,179.4H649.2z"/>
</svg>
