<?xml version="1.0" encoding="UTF-8" standalone="no"?>
<svg
   xmlns:dc="http://purl.org/dc/elements/1.1/"
   xmlns:cc="http://creativecommons.org/ns#"
   xmlns:rdf="http://www.w3.org/1999/02/22-rdf-syntax-ns#"
   xmlns:svg="http://www.w3.org/2000/svg"
   xmlns="http://www.w3.org/2000/svg"
   xmlns:sodipodi="http://sodipodi.sourceforge.net/DTD/sodipodi-0.dtd"
   xmlns:inkscape="http://www.inkscape.org/namespaces/inkscape"
   inkscape:version="1.0 (4035a4f, 2020-05-01)"
   sodipodi:docname="intro_slide_3.svg"
   version="1.1"
   width="512"
   viewBox="0 0 512 512"
   height="512"
   enable-background="new 0 0 512 512"
   id="Capa_1">
  <metadata
     id="metadata887">
    <rdf:RDF>
      <cc:Work
         rdf:about="">
        <dc:format>image/svg+xml</dc:format>
        <dc:type
           rdf:resource="http://purl.org/dc/dcmitype/StillImage" />
      </cc:Work>
    </rdf:RDF>
  </metadata>
  <defs
     id="defs885" />
  <sodipodi:namedview
     inkscape:current-layer="Capa_1"
     inkscape:window-maximized="1"
     inkscape:window-y="23"
     inkscape:window-x="0"
     inkscape:cy="256"
     inkscape:cx="256"
     inkscape:zoom="1.4355469"
     showgrid="false"
     id="namedview883"
     inkscape:window-height="1075"
     inkscape:window-width="1740"
     inkscape:pageshadow="2"
     inkscape:pageopacity="0"
     guidetolerance="10"
     gridtolerance="10"
     objecttolerance="10"
     borderopacity="1"
     bordercolor="#666666"
     pagecolor="#ffffff" />
  <g
     id="g880">
    <path
       style="fill:#f20b2e;fill-opacity:1"
       id="path876"
       d="m151 481c76.401 0 138.759-57.33 148.105-131.195-67.894-24.979-116.669-89.606-117.951-165.765-9.741-1.989-19.825-3.04-30.154-3.04-82.842 0-151 67.158-151 150s68.158 150 151 150zm45-210c8.284 0 15 6.716 15 15s-6.716 15-15 15-15-6.716-15-15 6.716-15 15-15zm-90 0c8.284 0 15 6.716 15 15s-6.716 15-15 15-15-6.716-15-15 6.716-15 15-15zm-26.938 95.977c16.948-22.53 43.842-35.977 71.938-35.977s54.99 13.447 71.938 35.977c4.98 6.621 3.662 16.025-2.959 21.006-6.678 5.017-16.062 3.607-21.006-2.959-22.969-30.527-72.979-30.527-95.947 0-4.98 6.606-14.355 7.969-21.006 2.959-6.621-4.981-7.939-14.385-2.958-21.006z" />
    <path
       style="fill:#f20b2e;fill-opacity:1"
       id="path878"
       d="m361 31c-82.705 0-150 67.295-150 150s67.295 150 150 150 151-67.295 151-150-68.295-150-151-150zm45 90c8.284 0 15 6.716 15 15s-6.716 15-15 15-15-6.716-15-15 6.716-15 15-15zm-90 0c8.284 0 15 6.716 15 15s-6.716 15-15 15-15-6.716-15-15 6.716-15 15-15zm116.938 84.023c-16.948 22.53-43.842 35.977-71.938 35.977s-54.99-13.447-71.938-35.977c-4.98-6.621-3.662-16.025 2.959-21.006 6.68-4.98 16.069-3.633 21.006 2.959 22.969 30.527 72.979 30.527 95.947 0 4.966-6.621 14.37-7.954 21.006-2.959 6.621 4.981 7.939 14.385 2.958 21.006z" />
  </g>
</svg>
