<?xml version="1.0" encoding="utf-8"?>
<!-- Generator: Adobe Illustrator 24.0.2, SVG Export Plug-In . SVG Version: 6.00 Build 0)  -->
<svg version="1.1"
	 id="svg1456" xmlns:cc="http://creativecommons.org/ns#" xmlns:dc="http://purl.org/dc/elements/1.1/" xmlns:inkscape="http://www.inkscape.org/namespaces/inkscape" xmlns:rdf="http://www.w3.org/1999/02/22-rdf-syntax-ns#" xmlns:sodipodi="http://sodipodi.sourceforge.net/DTD/sodipodi-0.dtd" xmlns:svg="http://www.w3.org/2000/svg"
	 xmlns="http://www.w3.org/2000/svg" xmlns:xlink="http://www.w3.org/1999/xlink" x="0px" y="0px" viewBox="0 0 512 512"
	 style="enable-background:new 0 0 512 512;" xml:space="preserve">
<style type="text/css">
	.st0{fill:#F20B2E;}
	.st1{fill:#FFFFFF;}
</style>
<sodipodi:namedview  bordercolor="#666666" borderopacity="1" gridtolerance="10" guidetolerance="10" id="namedview1458" inkscape:current-layer="svg1456" inkscape:cx="341.33333" inkscape:cy="341.33333" inkscape:pageopacity="0" inkscape:pageshadow="2" inkscape:window-height="1075" inkscape:window-maximized="1" inkscape:window-width="1740" inkscape:window-x="0" inkscape:window-y="23" inkscape:zoom="1.0766602" objecttolerance="10" pagecolor="#ffffff" showgrid="false">
	</sodipodi:namedview>
<g id="_x35_694G3_1_">
	<g>
		<path class="st0" d="M163.7,120.7c-8.3,7.4-17.2,10.3-27.9,6.6c-1.3-0.5-3.5,0.6-4.9,1.6c-16,11.4-32,22.8-47.8,34.4
			c-1.2,0.9-2,3.4-1.8,5c1.4,13.9-6.3,25.3-19.1,28c-13.4,2.8-25.7-4.4-29.8-17.3c-3.8-12.1,2.6-25.6,15-30.6
			c6.6-2.7,13.4-2.7,19.8,0.9c2.7,1.5,4.6,1.3,7.1-0.6c14.2-10.4,28.5-20.7,43-30.9c3.2-2.2,4.5-3.9,3.1-8.4
			c-4-13.2,5.3-27.4,18.9-30.2c14.4-3,28.2,6.2,30,20.5c0.5,4.3,2.4,6.3,5.9,8.2c14.3,8.1,28.6,16.4,42.7,24.8c2.9,1.7,5,1.9,8,0
			c9.7-6.2,22.4-4.2,30.6,4.2c1.2,1.2,3.9,2.1,5.4,1.7c20-5.6,39.9-11.6,59.9-17.4c3.2-0.9,4.8-2.2,5.5-5.8
			c2.7-12.6,15-20.9,27.6-19.2c13.1,1.8,22.5,12.9,21.7,26.1c-0.3,4,0.8,6.2,4.2,8.4c16.5,10.9,32.9,22.1,49.2,33.3
			c2.2,1.5,3.8,1.7,6.2,0.3c9.7-5.5,22.3-3.4,29.8,4.6c7.9,8.4,9.1,22.1,2.9,31.5c-6.3,9.4-18.9,13.6-29.5,9.7
			c-10.9-4-17.9-14.5-16.5-25.7c0.4-3.4-0.4-5.1-3.1-6.8c-17-11.4-33.9-23-50.9-34.3c-1.4-0.9-4.4-1-5.7-0.1
			c-8.2,5.5-22.5,3.3-30.2-5c-1-1.1-3.5-1.8-5-1.4c-20.5,5.8-40.9,11.8-61.3,18c-1.6,0.5-3.4,2.6-3.8,4.2c-3.6,14-14.4,21.7-28.4,20
			c-12.6-1.6-21.4-12.4-21.4-26c0-1.6-0.7-3.9-1.8-4.5C195.7,139.1,179.7,130,163.7,120.7z"/>
		<path class="st0" d="M316,318.9c0-35,0-70,0-104.9c0-8.2,1.7-10,9.9-10c13.7,0,27.3,0,41,0c7.8,0,9.7,1.9,9.7,9.8
			c0,69.8,0,139.6,0,209.4c0,8.1-1.9,9.9-10.1,10c-13.8,0-27.7,0-41.5,0c-7.3,0-9.1-1.9-9.1-9.3C316,388.9,316,353.9,316,318.9z"/>
		<path class="st0" d="M175,318.8c0,34.8,0,69.6,0,104.4c0,8.3-1.6,9.9-9.9,9.9c-13.5,0-27,0-40.5,0c-8.3,0-10.1-1.8-10.1-9.9
			c0-69.8,0-139.6,0-209.3c0-8.2,1.9-10,10.1-10c13.7,0,27.3,0,41,0c7.7,0,9.4,1.8,9.4,9.4C175,248.5,175,283.7,175,318.8z"/>
		<path class="st0" d="M213.4,342.4c0-26.7,0-53.3,0-80c0-8.8,1.7-10.6,10.4-10.6c13.5,0,27,0,40.5,0c7.5,0,9.6,2,9.6,9.4
			c0,54.1,0,108.3,0,162.4c0,7.7-1.8,9.5-9.4,9.5c-14,0-28,0.1-42,0c-7.2,0-9.1-2-9.1-9.3C213.3,396.7,213.4,369.5,213.4,342.4z"/>
		<path class="st0" d="M86.9,357.9c0,21.7,0,43.3,0,65c0,8.8-1.5,10.3-10,10.3c-13.7,0-27.3,0-41,0c-7.5,0-9.5-2-9.5-9.5
			c0-43.8,0-87.6,0-131.5c0-7.5,2-9.5,9.5-9.5c14,0,28,0,42,0c7.3,0,9.1,1.8,9.1,9.2C86.9,313.9,86.9,335.9,86.9,357.9z"/>
		<path class="st0" d="M418,357.9c0-21.8,0-43.6,0-65.4c0-8.2,1.6-9.7,9.5-9.7c14.2,0,28.3,0,42.5,0c6.2,0,8.1,1.9,8.1,8
			c0,44.8,0,89.6,0,134.4c0,6.1-2,8-8.2,8c-14.5,0.1-29,0.1-43.5,0c-6.7,0-8.5-1.9-8.5-8.8C418,402.2,418,380,418,357.9z"/>
	</g>
</g>
<circle class="st1" cx="144.8" cy="103.5" r="24.9"/>
<path class="st0" d="M144.7,75.2c15.7-0.1,28.3,12.4,28.4,28.1c0.1,15.7-12.4,28.4-28.1,28.6c-15.4,0.2-28.3-12.6-28.6-28.3
	C116.2,88.2,129,75.3,144.7,75.2z M151.3,120.6c4,0,7.8-2.7,8.6-6.4c0.2-1.1-0.1-3-0.8-3.4c-1.8-0.9-1.8,1.1-2.6,2.1
	c-1.1,1.6-2.8,3.5-4.4,3.7c-1.5,0.3-3.5-1.3-5-2.4c-0.9-0.6-1.2-2-1.9-2.9c-2.1-2.6-4.8-4-8.3-3.5c-3.7,0.6-6.2,2.7-7.2,6.3
	c-0.3,1,0.2,3,0.9,3.4c1.6,0.8,2.2-0.6,2.6-2.2c0.8-2.9,3.7-4.9,6.2-3.7c1.7,0.8,3.2,2.4,4.2,4C145.5,118.6,148.1,120.2,151.3,120.6
	z M156.2,88.9c-0.5,0-1,0-1.5,0c-0.9,1.3-2.2,2.5-2.5,3.9c-0.4,2,1,3.3,3.2,3.4c2.3,0,3.8-1.3,3.4-3.5
	C158.6,91.3,157.1,90.1,156.2,88.9z M135,88.9c-0.5,0-1,0-1.5,0c-0.9,1.3-2.4,2.5-2.6,3.8c-0.3,1.9,0.9,3.4,3.1,3.5
	c2.3,0.1,3.8-1.3,3.5-3.4C137.3,91.4,135.9,90.2,135,88.9z"/>
<circle class="st1" cx="56.6" cy="172.2" r="24.9"/>
<circle class="st1" cx="238.3" cy="154.5" r="24.9"/>
<circle class="st1" cx="351.8" cy="121.2" r="24.9"/>
<circle class="st1" cx="448.1" cy="185.7" r="24.9"/>
<path class="st0" d="M380.1,120.5c0,15.7-12.7,28.4-28.3,28.4c-15.5,0-28.4-12.9-28.4-28.4c0-15.5,12.8-28.3,28.4-28.3
	C367.5,92.2,380.1,104.8,380.1,120.5z M337,132.4c3.5,3.1,3.5,3.1,6.3,0.5c4.8-4.5,11.9-4.6,16.9-0.2c3.1,2.8,3.5,2.8,6.4-0.5
	c-3.6-5.4-8.6-8.1-15.1-8C345.4,124.3,340.5,127,337,132.4z M366.4,110.7c0-0.5,0-1,0-1.5c-1.3-0.9-2.4-2.3-3.8-2.6
	c-2-0.4-3.4,0.9-3.5,3.1c-0.1,2.3,1.2,3.8,3.4,3.5C363.9,113,365.1,111.5,366.4,110.7z M340.4,113.8c0.5,0,1,0,1.5,0
	c0.9-1.3,2.4-2.5,2.6-3.9c0.3-1.9-1-3.4-3.1-3.5c-2.3-0.1-3.8,1.3-3.5,3.4C338,111.3,339.5,112.5,340.4,113.8z"/>
<path class="st0" d="M84.9,172.1c0.1,15.7-12.5,28.4-28.2,28.5c-15.4,0.1-28.4-12.7-28.5-28.3c-0.2-15.5,12.7-28.3,28.3-28.4
	C72.2,143.8,84.9,156.3,84.9,172.1z M42,181.7c3.3,5.4,8.3,8.1,14.6,8.1c6.4,0,11.5-2.7,14.9-8.2c-3.4-3.2-3.4-3.2-6.4-0.5
	c-4.9,4.5-12,4.5-16.9,0C45.3,178.4,45.1,178.4,42,181.7z M71.2,162.3c0-0.5,0-1,0-1.5c-1.3-0.9-2.4-2.3-3.8-2.6
	c-2-0.4-3.4,0.9-3.5,3.1c-0.1,2.3,1.2,3.8,3.4,3.5C68.7,164.6,69.9,163.2,71.2,162.3z M45.4,165.4c0.5,0,1,0,1.5,0
	c0.9-1.3,2.3-2.6,2.5-3.9c0.2-2.1-1.2-3.5-3.6-3.3c-2.2,0.1-3.4,1.6-3.1,3.5C43,163,44.5,164.2,45.4,165.4z"/>
<path class="st0" d="M266.7,155.7c0,15.7-12.8,28.5-28.3,28.4c-15.5-0.1-28.4-13-28.4-28.5c0-15.6,12.8-28.3,28.5-28.2
	C254.2,127.4,266.7,140,266.7,155.7z M220.9,159.6c0.6,6.5,3.3,11.1,8.1,14.4c6,4,12.3,4.1,18.4,0.3c5.1-3.2,8-8,8.5-14.6
	C244.2,165.3,232.8,165.3,220.9,159.6z M245.6,146.9c0.2,0.9,0.3,1.9,0.7,2.8c0.8,1.6,1.9,2.9,4,1.9c2.2-1,3.1-5.2,1.7-7.9
	c-0.8-1.6-2.1-2.8-4-1.9c-0.8,0.4-1.5,1.5-1.9,2.3C245.7,145,245.7,145.9,245.6,146.9z M231.3,147c-0.4-2.2-0.4-4.7-3.3-5.3
	c-2-0.4-3.7,1.9-3.8,4.8c-0.1,2.9,1.6,5.7,3.5,5.4C230.6,151.6,230.9,149.3,231.3,147z"/>
<g id="lB8yMe.tif">
	<g>
		<path class="st0" d="M476.4,185.7c0,15.7-12.6,28.4-28.3,28.4c-15.5,0-28.4-12.9-28.4-28.4c0-15.5,12.8-28.3,28.4-28.3
			C463.9,157.3,476.4,169.9,476.4,185.7z M433.3,197.6c3.5,3.1,3.5,3.2,6.3,0.5c4.8-4.5,11.9-4.6,16.9-0.2c3.1,2.8,3.4,2.8,6.4-0.5
			c-3.5-5.4-8.6-8.1-15.1-8C441.7,189.5,436.8,192.1,433.3,197.6z M451.8,179.4c0.7,0.6,1.9,2.1,3.3,2.4c2,0.5,3.6-0.9,3.5-3
			c-0.1-2,0.2-3.4,2.4-4.1c0.5-0.2,0.9-1.3,1-2c0-0.3-0.8-1-1.3-1.1C457.8,171,451.9,175.5,451.8,179.4z M444.4,179.7
			c0.1-4.1-5.8-8.8-8.8-8c-0.5,0.1-1.3,0.8-1.2,1.1c0.1,0.7,0.5,1.8,1.1,1.9c1.9,0.7,2.3,1.8,2.2,3.8c-0.1,2,1.4,3.6,3.3,3.3
			C442.4,181.7,443.7,180.2,444.4,179.7z"/>
	</g>
</g>
</svg>
