<?xml version="1.0" encoding="UTF-8" standalone="no"?>
<svg
   xmlns:dc="http://purl.org/dc/elements/1.1/"
   xmlns:cc="http://creativecommons.org/ns#"
   xmlns:rdf="http://www.w3.org/1999/02/22-rdf-syntax-ns#"
   xmlns:svg="http://www.w3.org/2000/svg"
   xmlns="http://www.w3.org/2000/svg"
   xmlns:sodipodi="http://sodipodi.sourceforge.net/DTD/sodipodi-0.dtd"
   xmlns:inkscape="http://www.inkscape.org/namespaces/inkscape"
   inkscape:version="1.0 (4035a4f, 2020-05-01)"
   sodipodi:docname="intro_slide_2.svg"
   xml:space="preserve"
   style="enable-background:new 0 0 477.867 477.867;"
   viewBox="0 0 477.867 477.867"
   y="0px"
   x="0px"
   id="Capa_1"
   version="1.1"><metadata
   id="metadata874"><rdf:RDF><cc:Work
       rdf:about=""><dc:format>image/svg+xml</dc:format><dc:type
         rdf:resource="http://purl.org/dc/dcmitype/StillImage" /></cc:Work></rdf:RDF></metadata><defs
   id="defs872" /><sodipodi:namedview
   inkscape:current-layer="Capa_1"
   inkscape:window-maximized="1"
   inkscape:window-y="23"
   inkscape:window-x="0"
   inkscape:cy="238.9335"
   inkscape:cx="238.9335"
   inkscape:zoom="1.4899543"
   showgrid="false"
   id="namedview870"
   inkscape:window-height="1075"
   inkscape:window-width="1740"
   inkscape:pageshadow="2"
   inkscape:pageopacity="0"
   guidetolerance="10"
   gridtolerance="10"
   objecttolerance="10"
   borderopacity="1"
   bordercolor="#666666"
   pagecolor="#ffffff" />
<g
   id="g837">
	<g
   id="g835">
		<path
   style="fill:#f20b2e;fill-opacity:1"
   id="path833"
   d="M460.8,119.467h-85.333v-102.4C375.467,7.641,367.826,0,358.4,0H17.067C7.641,0,0,7.641,0,17.067V409.6    c0,37.703,30.564,68.267,68.267,68.267H409.6c37.703,0,68.267-30.564,68.267-68.267V136.533    C477.867,127.108,470.226,119.467,460.8,119.467z M136.533,85.333h102.4c9.426,0,17.067,7.641,17.067,17.067    s-7.641,17.067-17.067,17.067h-102.4c-9.426,0-17.067-7.641-17.067-17.067S127.108,85.333,136.533,85.333z M290.133,409.6h-204.8    c-9.426,0-17.067-7.641-17.067-17.067s7.641-17.067,17.067-17.067h204.8c9.426,0,17.067,7.641,17.067,17.067    S299.559,409.6,290.133,409.6z M290.133,341.333h-204.8c-9.426,0-17.067-7.641-17.067-17.067c0-9.426,7.641-17.067,17.067-17.067    h204.8c9.426,0,17.067,7.641,17.067,17.067C307.2,333.692,299.559,341.333,290.133,341.333z M290.133,273.067h-204.8    c-9.426,0-17.067-7.641-17.067-17.067c0-9.426,7.641-17.067,17.067-17.067h204.8c9.426,0,17.067,7.641,17.067,17.067    C307.2,265.426,299.559,273.067,290.133,273.067z M290.133,204.8h-204.8c-9.426,0-17.067-7.641-17.067-17.067    c0-9.426,7.641-17.067,17.067-17.067h204.8c9.426,0,17.067,7.641,17.067,17.067C307.2,197.159,299.559,204.8,290.133,204.8z     M443.733,409.6c0,18.851-15.282,34.133-34.133,34.133s-34.133-15.282-34.133-34.133v-256h68.267V409.6z" />
	</g>
</g>
<g
   id="g839">
</g>
<g
   id="g841">
</g>
<g
   id="g843">
</g>
<g
   id="g845">
</g>
<g
   id="g847">
</g>
<g
   id="g849">
</g>
<g
   id="g851">
</g>
<g
   id="g853">
</g>
<g
   id="g855">
</g>
<g
   id="g857">
</g>
<g
   id="g859">
</g>
<g
   id="g861">
</g>
<g
   id="g863">
</g>
<g
   id="g865">
</g>
<g
   id="g867">
</g>
</svg>
