<?xml version="1.0" encoding="utf-8"?>
<!-- Generator: Adobe Illustrator 24.0.2, SVG Export Plug-In . SVG Version: 6.00 Build 0)  -->
<svg version="1.1" id="Layer_1" xmlns="http://www.w3.org/2000/svg" xmlns:xlink="http://www.w3.org/1999/xlink" x="0px" y="0px"
	 viewBox="0 0 2688 1242" style="enable-background:new 0 0 2688 1242;" xml:space="preserve">
<style type="text/css">
	.st0{fill:#E82335;}
	.st1{fill:#010101;}
	.st2{fill:#FFFFFF;}
	.st3{fill:#070707;}
	.st4{font-family:'Ubuntu-Bold';}
	.st5{font-size:200px;}
	.st6{font-family:'Ubuntu-Medium';}
	.st7{font-size:100px;}
</style>
<rect class="st0" width="2688" height="1242"/>
<path id="path878" class="st1" d="M985.5,196.9c-62.2,0-112.9,50.6-112.9,112.9s50.6,112.9,112.9,112.9s113.6-50.6,113.6-112.9
	S1047.7,196.9,985.5,196.9z M1019.4,264.6c6.2,0,11.3,5.1,11.3,11.3s-5.1,11.3-11.3,11.3c-6.2,0-11.3-5.1-11.3-11.3
	S1013.1,264.6,1019.4,264.6z M951.6,264.6c6.2,0,11.3,5.1,11.3,11.3s-5.1,11.3-11.3,11.3s-11.3-5.1-11.3-11.3
	S945.4,264.6,951.6,264.6z M1039.6,327.8c-12.8,17-33,27.1-54.1,27.1s-41.4-10.1-54.1-27.1c-3.8-5-2.8-12.1,2.2-15.8
	c5-3.8,12.1-2.7,15.8,2.2c17.3,23,54.9,23,72.2,0c3.7-5,10.8-6,15.8-2.2C1042.4,315.8,1043.4,322.9,1039.6,327.8z"/>
<path class="st1" d="M984.8,444c-74.2,0-134.3-60.1-134.3-134.3c0-11.3,1.4-22.3,4-32.8c0-0.1,0-0.2,0.1-0.2c1-4,2.2-7.9,3.6-11.8
	H720.5c-17.4,0-31.5,14.1-31.5,31.5v346.2c0,53.2,43.1,96.2,96.2,96.2h195.3c17.4,0,31.5-14.1,31.5-31.5v-11.7
	c-2.5-4.9-3.9-10.5-3.9-16.4V499.3c0-5.9,1.4-11.4,3.9-16.3V444H984.8z M731.1,435.6c2.7-2.7,6.5-4.4,10.7-4.4h138
	c8.4,0,15.2,6.8,15.2,15.2c0,4.2-1.7,8-4.5,10.7c-2.7,2.8-6.5,4.5-10.7,4.5h-138c-8.4,0-15.2-6.8-15.2-15.2
	C726.6,442.1,728.3,438.3,731.1,435.6z M958.5,653.4c-2.8,2.7-6.5,4.4-10.7,4.4h-206c-8.4,0-15.2-6.8-15.2-15.2
	c0-4.2,1.7-8,4.5-10.7c2.7-2.7,6.5-4.4,10.7-4.4h206c8.4,0,15.2,6.8,15.2,15.2C962.9,646.9,961.2,650.7,958.5,653.4z M958.5,584.8
	c-2.8,2.7-6.5,4.4-10.7,4.4h-206c-8.4,0-15.2-6.8-15.2-15.2c0-4.2,1.7-8,4.5-10.7c2.7-2.7,6.5-4.4,10.7-4.4h206
	c8.4,0,15.2,6.8,15.2,15.2C962.9,578.3,961.2,582.1,958.5,584.8z M958.5,524.9c-2.8,2.7-6.5,4.4-10.7,4.4h-206
	c-8.4,0-15.2-6.8-15.2-15.2c0-4.2,1.7-8,4.5-10.7c2.7-2.7,6.5-4.4,10.7-4.4h206c8.4,0,15.2,6.8,15.2,15.2
	C962.9,518.3,961.2,522.1,958.5,524.9z"/>
<path class="st1" d="M1049.1,445L1049.1,445c-0.3,0-0.6-0.1-0.9-0.2c0,0,0,0,0,0c0,0,0,0,0,0c0,0,0,0,0,0c0,0,0,0,0,0
	c-0.1,0-0.2,0-0.3,0c-0.2,0-0.3-0.1-0.5-0.1c-0.4-0.1-0.7-0.1-1.1-0.2c-0.3,0-0.6-0.1-0.9-0.1c-0.3,0-0.6-0.1-0.8-0.1
	c-0.7-0.1-1.5-0.1-2.2-0.2c-0.3,0-0.6,0-0.9-0.1c-0.4,0-0.8,0-1.1-0.1c-0.9,0-1.8,0-2.7,0h-95.4c-32.7,0-59.8,23.8-65,54.9h70.6
	c8.4,0,15.2,6.8,15.2,15.2c0,4.2-1.7,8-4.5,10.7c-2.8,2.7-6.5,4.4-10.7,4.4h-71.5v29.6h71.5c8.4,0,15.2,6.8,15.2,15.2
	c0,4.2-1.7,8-4.5,10.7c-2.8,2.7-6.5,4.4-10.7,4.4h-71.5v38.2h71.5c8.4,0,15.2,6.8,15.2,15.2c0,4.2-1.7,8-4.5,10.7
	c-2.8,2.7-6.5,4.4-10.7,4.4h-71.5v15c0,36.4,29.5,66,66,66h95.4c36.4,0,66-29.5,66-66V510C1103.6,477.5,1080,450.5,1049.1,445z
	 M1079.6,679.3c0,19.8-16,35.8-35.8,35.8c-9.9,0-18.8-4-25.3-10.5c-2.6-2.6-4.8-5.6-6.5-9c-2.5-4.9-3.9-10.5-3.9-16.4V499.3
	c0-5.9,1.4-11.4,3.9-16.3c5.9-11.5,18-19.4,31.9-19.4c9.9,0,18.8,4,25.3,10.5c6.5,6.5,10.5,15.4,10.5,25.3V679.3z"/>
<path class="st1" d="M1103.6,495.8V530c0,10.8-10.2,19.8-23.9,22.1v-52.8c0-9.9-4-18.8-10.5-25.3c-6.5-6.5-15.4-10.5-25.3-10.5
	c-13.9,0-25.9,7.9-31.9,19.4c-2.5,4.9-3.9,10.5-3.9,16.3v-32.6c0-3.1,0.8-6,2.3-8.7c0.5-0.4,1.1-0.9,1.6-1.3
	c8.5-6.6,19-10.9,30.5-11.8c1.4-0.1,2.9-0.2,4.4-0.2c0.4,0,0.8,0,1.2,0c0,0,0,0,0,0c0,0,0,0,0,0c0,0,0,0,0,0c0,0,0,0,0,0
	C1077,445.5,1100.6,467.6,1103.6,495.8z"/>
<path class="st1" d="M854.6,276.9c-2.6,10.5-4,21.5-4,32.8v-3.4C850.5,296.2,851.9,286.3,854.6,276.9z"/>
<path class="st1" d="M1012,444h25.6c3.9,0,7.7,0.3,11.5,1h-37h-53c-5,0-9.9-0.3-14.7-1c-53-7.2-93.8-52.6-93.8-107.5v-26.8
	c0,74.2,60.1,134.3,134.3,134.3H1012z"/>
<path id="path878_1_" class="st2" d="M973.4,179.2c-62.2,0-112.9,50.6-112.9,112.9s50.6,112.9,112.9,112.9s113.6-50.6,113.6-112.9
	S1035.7,179.2,973.4,179.2z M1007.3,246.9c6.2,0,11.3,5.1,11.3,11.3s-5,11.3-11.3,11.3c-6.2,0-11.3-5.1-11.3-11.3
	S1001.1,246.9,1007.3,246.9z M939.6,246.9c6.2,0,11.3,5.1,11.3,11.3s-5.1,11.3-11.3,11.3s-11.3-5.1-11.3-11.3
	S933.3,246.9,939.6,246.9z M1027.6,310.1c-12.7,17-33,27.1-54.1,27.1s-41.4-10.1-54.1-27.1c-3.8-5-2.8-12.1,2.2-15.8
	c5-3.8,12.1-2.7,15.8,2.2c17.3,23,54.9,23,72.2,0c3.7-5,10.8-6,15.8-2.2C1030.3,298,1031.3,305.1,1027.6,310.1z"/>
<path class="st2" d="M972.7,426.3c-74.2,0-134.3-60.1-134.3-134.3c0-11.3,1.4-22.3,4-32.8c0-0.1,0-0.2,0.1-0.2c1-4,2.2-7.9,3.6-11.8
	H708.4c-17.4,0-31.5,14.1-31.5,31.5v346.2c0,53.2,43.1,96.2,96.2,96.2h195.3c17.4,0,31.5-14.1,31.5-31.5v-11.7
	c-2.5-4.9-3.9-10.5-3.9-16.4V481.6c0-5.9,1.4-11.4,3.9-16.3v-38.9H972.7z M719,417.8c2.7-2.7,6.5-4.4,10.7-4.4h138
	c8.4,0,15.2,6.8,15.2,15.2c0,4.2-1.7,8-4.5,10.7c-2.7,2.8-6.5,4.5-10.7,4.5h-138c-8.4,0-15.2-6.8-15.2-15.2
	C714.6,424.4,716.3,420.6,719,417.8z M946.4,635.7c-2.8,2.7-6.5,4.4-10.7,4.4h-206c-8.4,0-15.2-6.8-15.2-15.2c0-4.2,1.7-8,4.5-10.7
	c2.7-2.7,6.5-4.4,10.7-4.4h206c8.4,0,15.2,6.8,15.2,15.2C950.9,629.2,949.2,632.9,946.4,635.7z M946.4,567.1
	c-2.8,2.7-6.5,4.4-10.7,4.4h-206c-8.4,0-15.2-6.8-15.2-15.2c0-4.2,1.7-8,4.5-10.7c2.7-2.7,6.5-4.4,10.7-4.4h206
	c8.4,0,15.2,6.8,15.2,15.2C950.9,560.6,949.2,564.4,946.4,567.1z M946.4,507.1c-2.8,2.7-6.5,4.4-10.7,4.4h-206
	c-8.4,0-15.2-6.8-15.2-15.2c0-4.2,1.7-8,4.5-10.7c2.7-2.7,6.5-4.4,10.7-4.4h206c8.4,0,15.2,6.8,15.2,15.2
	C950.9,500.6,949.2,504.4,946.4,507.1z"/>
<path class="st2" d="M1037,427.3L1037,427.3c-0.3,0-0.6-0.1-0.9-0.2c0,0,0,0,0,0c0,0,0,0,0,0c0,0,0,0,0,0c0,0,0,0,0,0
	c-0.1,0-0.2,0-0.3,0c-0.2,0-0.3-0.1-0.5-0.1c-0.4-0.1-0.7-0.1-1.1-0.2c-0.3,0-0.6-0.1-0.9-0.1c-0.3,0-0.6-0.1-0.8-0.1
	c-0.7-0.1-1.5-0.1-2.2-0.2c-0.3,0-0.6,0-0.9-0.1c-0.4,0-0.8,0-1.1-0.1c-0.9,0-1.8,0-2.7,0h-95.4c-32.7,0-59.8,23.8-65,54.9h70.6
	c8.4,0,15.2,6.8,15.2,15.2c0,4.2-1.7,8-4.5,10.7c-2.8,2.7-6.5,4.4-10.7,4.4h-71.5v29.6h71.5c8.4,0,15.2,6.8,15.2,15.2
	c0,4.2-1.7,8-4.5,10.7c-2.8,2.7-6.5,4.4-10.7,4.4h-71.5v38.2h71.5c8.4,0,15.2,6.8,15.2,15.2c0,4.2-1.7,8-4.5,10.7
	c-2.8,2.7-6.5,4.4-10.7,4.4h-71.5v15c0,36.4,29.5,66,66,66h95.4c36.4,0,66-29.5,66-66V492.3C1091.5,459.8,1068,432.7,1037,427.3z
	 M1067.6,661.5c0,19.8-16,35.8-35.8,35.8c-9.9,0-18.8-4-25.3-10.5c-2.6-2.6-4.8-5.6-6.5-9c-2.5-4.9-3.9-10.5-3.9-16.4V481.6
	c0-5.9,1.4-11.4,3.9-16.3c5.9-11.5,18-19.4,31.8-19.4c9.9,0,18.8,4,25.3,10.5c6.5,6.5,10.5,15.4,10.5,25.3V661.5z"/>
<path class="st2" d="M1091.5,478.1v34.2c0,10.8-10.2,19.8-23.9,22.1v-52.8c0-9.9-4-18.8-10.5-25.3c-6.5-6.5-15.4-10.5-25.3-10.5
	c-13.9,0-25.9,7.9-31.8,19.4c-2.5,4.9-3.9,10.5-3.9,16.3V449c0-3.1,0.8-6,2.3-8.7c0.5-0.4,1.1-0.9,1.6-1.3
	c8.5-6.6,19-10.9,30.5-11.8c1.4-0.1,2.9-0.2,4.4-0.2c0.4,0,0.8,0,1.2,0c0,0,0,0,0,0c0,0,0,0,0,0c0,0,0,0,0,0c0,0,0,0,0,0
	C1065,427.8,1088.5,449.9,1091.5,478.1z"/>
<path class="st2" d="M842.5,259.2c-2.6,10.5-4,21.5-4,32.8v-3.4C838.4,278.4,839.9,268.6,842.5,259.2z"/>
<path class="st2" d="M999.9,426.3h25.6c3.9,0,7.7,0.3,11.5,1h-37h-53c-5,0-9.9-0.3-14.7-1c-53-7.2-93.8-52.6-93.8-107.5V292
	c0,74.2,60.1,134.3,134.3,134.3H999.9z"/>
<text transform="matrix(1 0 0 1 1135.2937 727.3713)" class="st3 st4 st5">Newsent</text>
<text transform="matrix(1 0 0 1 1122.0587 714.7736)" class="st2 st4 st5">Newsent</text>
<text transform="matrix(1 0 0 1 917.0359 958.2416)" class="st1 st6 st7">Find Calm In Chaos</text>
<path class="st1" d="M2031.1,803.2H669.4c-7.8,0-14.2-6.3-14.2-14.2l0,0c0-7.8,6.3-14.2,14.2-14.2h1361.8c7.8,0,14.2,6.3,14.2,14.2
	l0,0C2045.3,796.9,2039,803.2,2031.1,803.2z"/>
<path class="st2" d="M2018.6,788.6H656.9c-7.8,0-14.2-6.3-14.2-14.2l0,0c0-7.8,6.3-14.2,14.2-14.2h1361.8c7.8,0,14.2,6.3,14.2,14.2
	l0,0C2032.8,782.2,2026.5,788.6,2018.6,788.6z"/>
<text transform="matrix(1 0 0 1 911.5389 954.2414)" class="st2 st6 st7">Find Calm In Chaos</text>
</svg>
