<?xml version="1.0" encoding="utf-8"?>
<!-- Generator: Adobe Illustrator 24.0.2, SVG Export Plug-In . SVG Version: 6.00 Build 0)  -->
<svg version="1.1"
	 id="Layer_1" xmlns:cc="http://creativecommons.org/ns#" xmlns:dc="http://purl.org/dc/elements/1.1/" xmlns:inkscape="http://www.inkscape.org/namespaces/inkscape" xmlns:rdf="http://www.w3.org/1999/02/22-rdf-syntax-ns#" xmlns:sodipodi="http://sodipodi.sourceforge.net/DTD/sodipodi-0.dtd" xmlns:svg="http://www.w3.org/2000/svg"
	 xmlns="http://www.w3.org/2000/svg" xmlns:xlink="http://www.w3.org/1999/xlink" x="0px" y="0px" viewBox="0 0 1024 1024"
	 style="enable-background:new 0 0 1024 1024;" xml:space="preserve">
<style type="text/css">
	.st0{fill:#EC1B32;}
	.st1{fill:#FFFFFF;}
</style>
<sodipodi:namedview  bordercolor="#666666" borderopacity="1" gridtolerance="10" guidetolerance="10" id="namedview850" inkscape:current-layer="Layer_1" inkscape:cx="512" inkscape:cy="512" inkscape:pageopacity="0" inkscape:pageshadow="2" inkscape:window-height="968" inkscape:window-maximized="0" inkscape:window-width="1630" inkscape:window-x="0" inkscape:window-y="23" inkscape:zoom="0.6953125" objecttolerance="10" pagecolor="#ffffff" showgrid="false">
	</sodipodi:namedview>
<g id="Layer_1_1_">
	<g id="Layer_2_1_">
	</g>
	<path id="path836" class="st0" d="M820.5,1024h-617C91.1,1024,0,932.9,0,820.5v-617C0,91.1,91.1,0,203.5,0h617
		C932.9,0,1024,91.1,1024,203.5v617C1024,932.9,932.9,1024,820.5,1024z"/>
</g>
<g id="Layer_2_2_">
</g>
<path id="path878" d="M630.2,148.8c-83.2,0-150.8,67.7-150.8,150.8s67.7,150.8,150.8,150.8S782,382.8,782,299.6
	S713.4,148.8,630.2,148.8z M675.5,239.3c8.3,0,15.1,6.8,15.1,15.1s-6.7,15.1-15.1,15.1c-8.3,0-15.1-6.8-15.1-15.1
	S667.1,239.3,675.5,239.3z M585,239.3c8.3,0,15.1,6.8,15.1,15.1s-6.8,15.1-15.1,15.1c-8.3,0-15.1-6.8-15.1-15.1
	S576.6,239.3,585,239.3z M702.6,323.8c-17,22.7-44.1,36.2-72.3,36.2s-55.3-13.5-72.3-36.2c-5-6.7-3.7-16.1,3-21.1
	c6.7-5,16.2-3.6,21.1,3c23.1,30.7,73.4,30.7,96.5,0c5-6.7,14.4-8,21.1-3C706.2,307.7,707.6,317.1,702.6,323.8z"/>
<path d="M629.3,479.1c-99.1,0-179.4-80.3-179.4-179.4c0-15.1,1.9-29.8,5.4-43.9c0-0.1,0.1-0.2,0.1-0.3c1.3-5.4,2.9-10.6,4.8-15.8
	h-184c-23.3,0-42.1,18.8-42.1,42.1v462.6c0,71,57.6,128.6,128.6,128.6h260.9c23.3,0,42.1-18.8,42.1-42.1v-15.6
	c-3.4-6.5-5.3-14-5.3-21.8V552.9c0-7.9,1.9-15.3,5.3-21.8v-52H629.3z M290.2,467.7c3.7-3.7,8.7-5.9,14.3-5.9h184.4
	c11.2,0,20.3,9.1,20.3,20.3c0,5.6-2.3,10.7-5.9,14.3c-3.7,3.7-8.7,5.9-14.3,5.9H304.6c-11.2,0-20.3-9.1-20.3-20.3
	C284.3,476.5,286.6,471.4,290.2,467.7z M594.1,758.9c-3.7,3.7-8.7,5.9-14.3,5.9H304.6c-11.2,0-20.3-9.1-20.3-20.3
	c0-5.6,2.3-10.7,5.9-14.3c3.7-3.7,8.7-5.9,14.3-5.9h275.2c11.2,0,20.3,9.1,20.3,20.3C600.1,750.1,597.8,755.2,594.1,758.9z
	 M594.1,667.2c-3.7,3.7-8.7,5.9-14.3,5.9H304.6c-11.2,0-20.3-9.1-20.3-20.3c0-5.6,2.3-10.7,5.9-14.3c3.7-3.7,8.7-5.9,14.3-5.9h275.2
	c11.2,0,20.3,9.1,20.3,20.3C600.1,658.5,597.8,663.5,594.1,667.2z M594.1,587.1c-3.7,3.7-8.7,5.9-14.3,5.9H304.6
	c-11.2,0-20.3-9.1-20.3-20.3c0-5.6,2.3-10.7,5.9-14.3c3.7-3.7,8.7-5.9,14.3-5.9h275.2c11.2,0,20.3,9.1,20.3,20.3
	C600.1,578.3,597.8,583.4,594.1,587.1z"/>
<path d="M715.2,480.4L715.2,480.4c-0.4-0.1-0.9-0.1-1.3-0.2c0,0,0,0,0,0c0,0,0,0,0,0c0,0,0,0,0,0c0,0,0,0,0,0c-0.1,0-0.2,0-0.3-0.1
	c-0.2,0-0.4-0.1-0.7-0.1c-0.5-0.1-1-0.2-1.5-0.2c-0.4-0.1-0.8-0.1-1.2-0.1c-0.4-0.1-0.7-0.1-1.1-0.1c-1-0.1-2-0.2-3-0.3
	c-0.4,0-0.8-0.1-1.2-0.1c-0.5,0-1-0.1-1.5-0.1c-1.2,0-2.4-0.1-3.6-0.1H572.3c-43.7,0-79.9,31.8-86.9,73.4h94.4
	c11.2,0,20.3,9.1,20.3,20.3c0,5.6-2.3,10.7-5.9,14.3c-3.7,3.7-8.7,5.9-14.3,5.9h-95.6v39.6h95.6c11.2,0,20.3,9.1,20.3,20.3
	c0,5.6-2.3,10.7-5.9,14.3c-3.7,3.7-8.7,5.9-14.3,5.9h-95.6v51.1h95.6c11.2,0,20.3,9.1,20.3,20.3c0,5.6-2.3,10.7-5.9,14.3
	c-3.7,3.7-8.7,5.9-14.3,5.9h-95.6v20c0,48.7,39.5,88.1,88.2,88.1h127.5c48.7,0,88.2-39.5,88.2-88.1V567.2
	C788,523.8,756.6,487.7,715.2,480.4z M756,793.4c0,26.4-21.4,47.8-47.8,47.8c-13.2,0-25.2-5.4-33.8-14c-3.5-3.5-6.5-7.5-8.7-12
	c-3.4-6.5-5.3-14-5.3-21.8V552.9c0-7.9,1.9-15.3,5.3-21.8c7.9-15.4,24-26,42.6-26c13.2,0,25.2,5.4,33.8,14c8.7,8.7,14,20.6,14,33.8
	V793.4z"/>
<path d="M788,548.3v45.6c0,14.4-13.7,26.5-32,29.6v-70.6c0-13.2-5.3-25.2-14-33.8c-8.7-8.6-20.6-14-33.8-14
	c-18.5,0-34.6,10.5-42.6,26c-3.4,6.5-5.3,14-5.3,21.8v-43.5c0-4.1,1.1-8,3.1-11.6c0.7-0.6,1.4-1.2,2.2-1.7
	c11.4-8.9,25.5-14.5,40.7-15.7c1.9-0.1,3.9-0.2,5.9-0.2c0.5,0,1.1,0,1.6,0c0,0,0,0,0,0c0,0,0,0,0,0c0,0,0,0,0,0c0,0,0,0,0,0
	C752.5,481,784,510.6,788,548.3z"/>
<path d="M455.2,255.8c-3.5,14-5.4,28.7-5.4,43.9v-4.5C449.8,281.5,451.7,268.3,455.2,255.8z"/>
<path d="M665.6,479.1h34.2c5.2,0,10.3,0.5,15.3,1.3h-49.5h-70.8c-6.7,0-13.3-0.5-19.7-1.3c-70.8-9.6-125.3-70.2-125.3-143.6v-35.8
	c0,99.1,80.3,179.4,179.4,179.4H665.6z"/>
<path id="path878_1_" class="st1" d="M614.8,135.3c-83.2,0-150.8,67.7-150.8,150.8c0,83.2,67.7,150.8,150.8,150.8
	s151.8-67.7,151.8-150.8C766.6,202.9,698,135.3,614.8,135.3z M660.1,225.8c8.3,0,15.1,6.8,15.1,15.1s-6.7,15.1-15.1,15.1
	c-8.3,0-15.1-6.8-15.1-15.1S651.7,225.8,660.1,225.8z M569.6,225.8c8.3,0,15.1,6.8,15.1,15.1s-6.8,15.1-15.1,15.1
	c-8.3,0-15.1-6.8-15.1-15.1S561.2,225.8,569.6,225.8z M687.2,310.3c-17,22.7-44.1,36.2-72.3,36.2s-55.3-13.5-72.3-36.2
	c-5-6.7-3.7-16.1,3-21.1c6.7-5,16.2-3.6,21.1,3c23.1,30.7,73.4,30.7,96.5,0c5-6.7,14.4-8,21.1-3
	C690.8,294.1,692.2,303.6,687.2,310.3z"/>
<path class="st1" d="M613.9,465.5c-99.1,0-179.4-80.3-179.4-179.4c0-15.1,1.9-29.8,5.4-43.9c0-0.1,0.1-0.2,0.1-0.3
	c1.3-5.4,2.9-10.6,4.8-15.8h-184c-23.3,0-42.1,18.8-42.1,42.1v462.6c0,71,57.6,128.6,128.6,128.6h260.9c23.3,0,42.1-18.8,42.1-42.1
	v-15.6c-3.4-6.5-5.3-14-5.3-21.8V539.4c0-7.9,1.9-15.3,5.3-21.8v-52H613.9z M274.8,454.2c3.7-3.7,8.7-5.9,14.3-5.9h184.4
	c11.2,0,20.3,9.1,20.3,20.3c0,5.6-2.3,10.7-5.9,14.3c-3.7,3.7-8.7,5.9-14.3,5.9H289.2c-11.2,0-20.3-9.1-20.3-20.3
	C268.9,462.9,271.2,457.9,274.8,454.2z M578.7,745.3c-3.7,3.7-8.7,5.9-14.3,5.9H289.2c-11.2,0-20.3-9.1-20.3-20.3
	c0-5.6,2.3-10.7,5.9-14.3c3.7-3.7,8.7-5.9,14.3-5.9h275.2c11.2,0,20.3,9.1,20.3,20.3C584.7,736.6,582.4,741.7,578.7,745.3z
	 M578.7,653.7c-3.7,3.7-8.7,5.9-14.3,5.9H289.2c-11.2,0-20.3-9.1-20.3-20.3c0-5.6,2.3-10.7,5.9-14.3c3.7-3.7,8.7-5.9,14.3-5.9h275.2
	c11.2,0,20.3,9.1,20.3,20.3C584.7,644.9,582.4,650,578.7,653.7z M578.7,573.5c-3.7,3.7-8.7,5.9-14.3,5.9H289.2
	c-11.2,0-20.3-9.1-20.3-20.3c0-5.6,2.3-10.7,5.9-14.3c3.7-3.7,8.7-5.9,14.3-5.9h275.2c11.2,0,20.3,9.1,20.3,20.3
	C584.7,564.8,582.4,569.9,578.7,573.5z"/>
<path class="st1" d="M699.8,466.9L699.8,466.9c-0.4-0.1-0.9-0.1-1.3-0.2c0,0,0,0,0,0c0,0,0,0,0,0c0,0,0,0,0,0c0,0,0,0,0,0
	c-0.1,0-0.2,0-0.3-0.1c-0.2,0-0.4-0.1-0.7-0.1c-0.5-0.1-1-0.2-1.5-0.2c-0.4-0.1-0.8-0.1-1.2-0.1c-0.4-0.1-0.7-0.1-1.1-0.1
	c-1-0.1-2-0.2-3-0.3c-0.4,0-0.8-0.1-1.2-0.1c-0.5,0-1-0.1-1.5-0.1c-1.2,0-2.4-0.1-3.6-0.1H556.9c-43.7,0-79.9,31.8-86.9,73.4h94.4
	c11.2,0,20.3,9.1,20.3,20.3c0,5.6-2.3,10.7-5.9,14.3c-3.7,3.7-8.7,5.9-14.3,5.9h-95.6v39.6h95.6c11.2,0,20.3,9.1,20.3,20.3
	c0,5.6-2.3,10.7-5.9,14.3c-3.7,3.7-8.7,5.9-14.3,5.9h-95.6v51.1h95.6c11.2,0,20.3,9.1,20.3,20.3c0,5.6-2.3,10.7-5.9,14.3
	c-3.7,3.7-8.7,5.9-14.3,5.9h-95.6v20c0,48.7,39.5,88.1,88.2,88.1h127.5c48.7,0,88.2-39.5,88.2-88.1V553.7
	C772.6,510.2,741.2,474.1,699.8,466.9z M740.6,779.8c0,26.4-21.4,47.8-47.8,47.8c-13.2,0-25.2-5.4-33.8-14c-3.5-3.5-6.5-7.5-8.7-12
	c-3.4-6.5-5.3-14-5.3-21.8V539.4c0-7.9,1.9-15.3,5.3-21.8c7.9-15.4,24-26,42.6-26c13.2,0,25.2,5.4,33.8,14c8.7,8.7,14,20.6,14,33.8
	V779.8z"/>
<path class="st1" d="M772.6,534.8v45.6c0,14.4-13.7,26.5-32,29.6v-70.6c0-13.2-5.3-25.2-14-33.8c-8.7-8.6-20.6-14-33.8-14
	c-18.5,0-34.6,10.5-42.6,26c-3.4,6.5-5.3,14-5.3,21.8v-43.5c0-4.1,1.1-8,3.1-11.6c0.7-0.6,1.4-1.2,2.2-1.7
	c11.4-8.9,25.5-14.5,40.7-15.7c1.9-0.1,3.9-0.2,5.9-0.2c0.5,0,1.1,0,1.6,0c0,0,0,0,0,0c0,0,0,0,0,0c0,0,0,0,0,0c0,0,0,0,0,0
	C737.1,467.5,768.6,497,772.6,534.8z"/>
<path class="st1" d="M439.8,242.2c-3.5,14-5.4,28.7-5.4,43.9v-4.5C434.4,267.9,436.3,254.7,439.8,242.2z"/>
<path class="st1" d="M650.2,465.5h34.2c5.2,0,10.3,0.5,15.3,1.3h-49.5h-70.8c-6.7,0-13.3-0.5-19.7-1.3
	c-70.8-9.6-125.3-70.2-125.3-143.6v-35.8c0,99.1,80.3,179.4,179.4,179.4H650.2z"/>
</svg>
