<?xml version="1.0" encoding="utf-8"?>
<!-- Generator: Adobe Illustrator 24.0.2, SVG Export Plug-In . SVG Version: 6.00 Build 0)  -->
<svg version="1.1" id="Capa_1" xmlns="http://www.w3.org/2000/svg" xmlns:xlink="http://www.w3.org/1999/xlink" x="0px" y="0px"
	 viewBox="0 0 512 512" style="enable-background:new 0 0 512 512;" xml:space="preserve">
<style type="text/css">
	.st0{fill:#C8C8C8;}
</style>
<g id="lB8yMe.tif">
	<g>
		<path class="st0" d="M511.7,256.4c0.1,141.1-114.1,255.6-255,255.6C116.7,512,0.5,396.1,0.3,256.4C0.2,116.5,115.7,1.5,256.6,1.4
			C398.1,1.3,511.5,114.8,511.7,256.4z M122.9,363.6c31.5,28.3,31.9,28.4,57,4.8c43.6-40.9,107.6-41.5,152.1-1.6
			c28.1,25.2,31.1,25,57.9-4.6c-31.9-49-77.8-73.1-135.8-72.4C198.3,290.5,154.4,314.6,122.9,363.6z M289,200.4
			c6.7,5.2,16.9,18.7,29.6,21.7c18,4.3,32.5-8.3,31.8-27.1c-0.6-18.4,2.2-30.3,21.4-36.6c4.7-1.5,8.3-11.4,9.2-17.9
			c0.4-2.8-6.9-8.6-11.5-9.7C343.5,124.3,289.9,164.7,289,200.4z M222.8,202.9c1.2-37.3-52.6-79.6-79.4-71.9
			c-4.5,1.3-11.5,7.5-11,10.3c1.1,6.4,4.9,15.8,9.9,17.5c17.5,6.1,21,16.5,20,34.2c-1.1,18.3,12.2,32.2,30.2,29.3
			C205,220.3,216,207.5,222.8,202.9z"/>
	</g>
</g>
</svg>
