<?xml version="1.0" encoding="utf-8"?>
<!-- Generator: Adobe Illustrator 24.0.2, SVG Export Plug-In . SVG Version: 6.00 Build 0)  -->
<svg version="1.1" id="Capa_1" xmlns="http://www.w3.org/2000/svg" xmlns:xlink="http://www.w3.org/1999/xlink" x="0px" y="0px"
	 viewBox="0 0 512 512" style="enable-background:new 0 0 512 512;" xml:space="preserve">
<style type="text/css">
	.st0{fill:#C8C8C8;}
</style>
<path class="st0" d="M512,255.6c-0.1,141.2-115.6,256.7-255.7,255.9C115.9,510.8-0.3,394.5,0,254.9C0.3,114.3,115.6-0.1,257,0.2
	C399,0.4,512.1,113.8,512,255.6z M98.4,290.5c5.6,58.7,29.7,100.4,73.3,129.6c53.9,36.1,110.9,37.3,165.8,2.7
	c46.1-29.1,72.1-72,77.2-132.1C308.5,342.2,206,342.3,98.4,290.5z M321,176.4c1.8,7.7,2.3,17.5,6.4,25.6
	c7.1,14.1,17.3,25.9,35.8,17.2c19.7-9.3,27.9-47,15.6-70.9c-7.6-14.7-18.7-25.5-36-16.7c-7.5,3.8-13.2,13.1-17.4,21.1
	C322.1,159.1,322.5,167.3,321,176.4z M192.6,177.2c-3.3-19.9-3.3-42.7-29.8-47.9c-18-3.5-33.1,16.8-34.2,43.4
	c-1.1,26.1,14.3,51.1,32,49C186,218.7,188.5,197.3,192.6,177.2z"/>
</svg>
