<?xml version="1.0" encoding="utf-8"?>
<!-- Generator: Adobe Illustrator 24.0.2, SVG Export Plug-In . SVG Version: 6.00 Build 0)  -->
<svg version="1.1"
	 id="Capa_1" xmlns:cc="http://creativecommons.org/ns#" xmlns:dc="http://purl.org/dc/elements/1.1/" xmlns:inkscape="http://www.inkscape.org/namespaces/inkscape" xmlns:rdf="http://www.w3.org/1999/02/22-rdf-syntax-ns#" xmlns:sodipodi="http://sodipodi.sourceforge.net/DTD/sodipodi-0.dtd" xmlns:svg="http://www.w3.org/2000/svg"
	 xmlns="http://www.w3.org/2000/svg" xmlns:xlink="http://www.w3.org/1999/xlink" x="0px" y="0px" viewBox="0 0 512 512"
	 style="enable-background:new 0 0 512 512;" xml:space="preserve">
<style type="text/css">
	.st0{fill:#C8C8C8;}
</style>
<sodipodi:namedview  bordercolor="#666666" borderopacity="1" gridtolerance="10" guidetolerance="10" id="namedview2800" inkscape:current-layer="Capa_1" inkscape:cx="307.5483" inkscape:cy="276.89796" inkscape:pageopacity="0" inkscape:pageshadow="2" inkscape:window-height="1075" inkscape:window-maximized="1" inkscape:window-width="1741" inkscape:window-x="0" inkscape:window-y="23" inkscape:zoom="1.4355469" objecttolerance="10" pagecolor="#ffffff" showgrid="false">
	</sodipodi:namedview>
<path class="st0" d="M512.5,254.7c0.6,141.5-113,256.2-254.9,257.3C117.8,513.1,1,397.4-0.5,256.5C-1.9,116.8,114.2,0.5,255.8-0.2
	C397.6-1,511.9,112.5,512.5,254.7z M123.5,341.3c30.2,49.2,75.3,73.2,132.1,73.4c58,0.3,103.9-24,135.2-73.9
	c-30.4-28.9-30.6-28.9-57.5-4.3c-44.2,40.5-108.8,40.6-152.6,0.3C153.4,311.9,152.1,311.9,123.5,341.3z M388.6,166.5
	c0.1-4.4,0.2-8.9,0.3-13.3c-11.5-8.2-22-20.9-34.6-23.6c-18.1-3.9-30.6,8.3-31.5,27.6c-1,20.5,10.5,34.6,30.4,31.7
	C365.8,187.1,376.8,174.4,388.6,166.5z M154.6,194.8c4.4-0.1,8.8-0.2,13.3-0.3c7.9-11.8,21-23.1,22.4-35.6c2-19-11.2-31.4-32.3-30.1
	c-19.7,1.2-31.1,14.6-27.8,31.7C132.6,173,146.1,183.5,154.6,194.8z"/>
</svg>
