<?xml version="1.0" encoding="utf-8"?>
<!-- Generator: Adobe Illustrator 24.0.2, SVG Export Plug-In . SVG Version: 6.00 Build 0)  -->
<svg version="1.1" id="Capa_1" xmlns="http://www.w3.org/2000/svg" xmlns:xlink="http://www.w3.org/1999/xlink" x="0px" y="0px"
	 viewBox="0 0 512 512" style="enable-background:new 0 0 512 512;" xml:space="preserve">
<style type="text/css">
	.st0{fill:#C8C8C8;}
</style>
<path class="st0" d="M255.3,0.2C397.3-0.5,511.2,112,512,253.8c0.8,141.3-112.1,255.9-253.9,257.7c-139,1.7-255.7-113.6-258-254.8
	C-2.1,117.5,113.9,0.9,255.3,0.2z M314.6,409.4c36.5,0.2,70-24.2,77.6-57.9c2.1-9.6-1-27.3-7.1-30.3c-16.1-7.8-16.3,9.6-23.2,19.1
	c-10.2,14.2-25,31.2-40.1,33.7c-13.5,2.3-31.2-11.9-44.9-21.7c-7.8-5.6-10.5-17.8-17.1-25.9c-19.2-23.6-43.7-36.2-74.8-31.5
	c-33.2,5.1-55.7,24.6-64.6,56.5c-2.5,9.1,1.5,27.3,7.7,30.3c14.7,6.9,19.6-5.8,23.2-19.4c7-26.6,33.7-44,56-33.6
	c15,7,28.7,21.4,37.6,35.8C262.1,392,285.6,405.9,314.6,409.4z M359,123.5c-4.4,0.1-8.9,0.1-13.3,0.2c-7.8,11.7-19.9,22.6-22.3,35.4
	c-3.4,18.3,9.4,30,28.7,30.4c20.6,0.4,34.1-11.7,30.6-31.4C380.4,145.5,367.3,134.9,359,123.5z M167.5,123.7
	c-4.4-0.1-8.8-0.1-13.2-0.2c-8.4,11.5-21.7,22.1-23.9,34.6c-3,17.1,8.5,30.4,28.2,31.3c21.1,0.9,34.1-11.7,31.8-30.5
	C188.9,146.4,175.6,135.4,167.5,123.7z"/>
</svg>
