<?xml version="1.0" encoding="UTF-8" standalone="no"?>
<svg
   xmlns:dc="http://purl.org/dc/elements/1.1/"
   xmlns:cc="http://creativecommons.org/ns#"
   xmlns:rdf="http://www.w3.org/1999/02/22-rdf-syntax-ns#"
   xmlns:svg="http://www.w3.org/2000/svg"
   xmlns="http://www.w3.org/2000/svg"
   xmlns:sodipodi="http://sodipodi.sourceforge.net/DTD/sodipodi-0.dtd"
   xmlns:inkscape="http://www.inkscape.org/namespaces/inkscape"
   inkscape:version="1.0beta2 (2b71d25, 2019-12-03)"
   sodipodi:docname="order-pending.svg"
   version="1.1"
   width="512"
   viewBox="0 0 512 512"
   height="512"
   enable-background="new 0 0 512 512"
   id="Capa_1">
  <metadata
     id="metadata852">
    <rdf:RDF>
      <cc:Work
         rdf:about="">
        <dc:format>image/svg+xml</dc:format>
        <dc:type
           rdf:resource="http://purl.org/dc/dcmitype/StillImage" />
      </cc:Work>
    </rdf:RDF>
  </metadata>
  <defs
     id="defs850" />
  <sodipodi:namedview
     inkscape:current-layer="Capa_1"
     inkscape:window-maximized="1"
     inkscape:window-y="23"
     inkscape:window-x="0"
     inkscape:cy="256"
     inkscape:cx="256"
     inkscape:zoom="0.97070312"
     showgrid="false"
     id="namedview848"
     inkscape:window-height="705"
     inkscape:window-width="1280"
     inkscape:pageshadow="2"
     inkscape:pageopacity="0"
     guidetolerance="10"
     gridtolerance="10"
     objecttolerance="10"
     borderopacity="1"
     inkscape:document-rotation="0"
     bordercolor="#666666"
     pagecolor="#ffffff" />
  <g
     id="g845">
    <path
       id="path833"
       d="m466.949 211.243c8.284 0 15-6.716 15-15v-120.718c0-41.498-33.719-75.524-75.564-75.524-10.613 0-290.797-.001-301.351-.001-41.346 0-74.983 33.638-74.983 74.984v421.746c0 13.433 16.504 20.117 25.834 10.374l19.19-20.04 20.271 20.272c5.858 5.857 15.354 5.857 21.212.002l19.209-19.203 19.406 19.245c5.847 5.797 15.276 5.799 21.124.002l19.712-19.544 19.72 19.545c5.843 5.794 15.262 5.795 21.11.009l25.263-24.999c23.111 18.515 52.412 29.607 84.26 29.607 74.439 0 135-60.561 135-135 0-69.528-52.835-126.941-120.463-134.215v-31.542zm-15-135.718v105.718h-91.05v-105.718c0-25.103 20.422-45.525 45.525-45.525 25.102 0 45.525 20.422 45.525 45.525zm-225.652 400.094-19.73-19.555c-5.848-5.797-15.273-5.794-21.12.001l-19.708 19.541-19.45-19.289c-5.865-5.816-15.327-5.798-21.167.042l-19.165 19.159-20.507-20.506c-6.129-6.129-15.782-5.677-21.441.232l-3.958 4.133v-384.393c0-24.804 20.179-44.984 44.983-44.984h241.176c-9.602 12.668-15.311 28.44-15.311 45.525v167.366c-105.278 12.061-155.901 135.88-90.001 218.281zm225.065-98.619c0 57.897-47.103 105-105 105s-105-47.103-105-105 47.103-105 105-105 105 47.103 105 105z" />
    <path
       id="path835"
       d="m336.362 335.362v30.638h-30.362c-8.284 0-15 6.716-15 15s6.716 15 15 15h45.362c8.284 0 15-6.716 15-15v-45.638c0-8.284-6.716-15-15-15s-15 6.716-15 15z" />
    <path
       id="path839"
       d="m180.999 256.08h-75c-8.284 0-15 6.716-15 15s6.716 15 15 15h75c8.284 0 15-6.716 15-15s-6.716-15-15-15z" />
    <path
       id="path841"
       d="m180.999 316.18h-75.05c-8.284 0-15 6.716-15 15s6.716 15 15 15h75.05c8.284 0 15-6.716 15-15s-6.716-15-15-15z" />
    <path
       id="path843"
       d="m180.999 376.08h-75.1c-8.284 0-15 6.716-15 15s6.716 15 15 15h75.1c8.284 0 15-6.716 15-15s-6.716-15-15-15z" />
    <path
       inkscape:connector-curvature="0"
       d="m 280.999,76.08 h -75 c -8.284,0 -15,6.716 -15,15 0,8.284 6.716,15 15,15 h 75 c 8.284,0 15,-6.716 15,-15 0,-8.284 -6.716,-15 -15,-15 z"
       id="path854" />
    <path
       inkscape:connector-curvature="0"
       d="m 280.999,136.18 h -75.05 c -8.284,0 -15,6.716 -15,15 0,8.284 6.716,15 15,15 h 75.05 c 8.284,0 15,-6.716 15,-15 0,-8.284 -6.716,-15 -15,-15 z"
       id="path856" />
    <path
       inkscape:connector-curvature="0"
       d="m 280.999,196.08 h -75.1 c -8.284,0 -15,6.716 -15,15 0,8.284 6.716,15 15,15 h 75.1 c 8.284,0 15,-6.716 15,-15 0,-8.284 -6.716,-15 -15,-15 z"
       id="path858" />
    <path
       id="path860"
       d="m 200.999,76.08 h -75 c -8.284,0 -15,6.716 -15,15 0,8.284 6.716,15 15,15 h 75 c 8.284,0 15,-6.716 15,-15 0,-8.284 -6.716,-15 -15,-15 z"
       inkscape:connector-curvature="0" />
    <path
       id="path862"
       d="m 200.999,136.18 h -75.05 c -8.284,0 -15,6.716 -15,15 0,8.284 6.716,15 15,15 h 75.05 c 8.284,0 15,-6.716 15,-15 0,-8.284 -6.716,-15 -15,-15 z"
       inkscape:connector-curvature="0" />
    <path
       id="path864"
       d="m 200.999,196.08 h -75.1 c -8.284,0 -15,6.716 -15,15 0,8.284 6.716,15 15,15 h 75.1 c 8.284,0 15,-6.716 15,-15 0,-8.284 -6.716,-15 -15,-15 z"
       inkscape:connector-curvature="0" />
  </g>
</svg>
