<?xml version="1.0" encoding="utf-8"?>
<!-- Generator: Adobe Illustrator 24.0.2, SVG Export Plug-In . SVG Version: 6.00 Build 0)  -->
<svg version="1.1" id="Capa_1" xmlns="http://www.w3.org/2000/svg" xmlns:xlink="http://www.w3.org/1999/xlink" x="0px" y="0px"
	 viewBox="0 0 512 512" style="enable-background:new 0 0 512 512;" xml:space="preserve">
<style type="text/css">
	.st0{fill:#C8C8C8;}
</style>
<path class="st0" d="M512.5,255.6C512.6,397.1,398,512,256.6,512C116.3,512-0.3,395.7-0.5,255.6C-0.6,115.2,115.3-0.1,256.7-0.2
	C398.5-0.3,512.4,113.5,512.5,255.6z M122.4,363.1c31.8,28.4,32,28.4,57.3,4.7c43.7-40.9,108-41.6,152.6-1.5
	c28,25.2,31.3,25,58.1-4.9c-32.4-48.6-78.1-73.4-136.4-72.4C198.1,289.9,154,314,122.4,363.1z M388.6,166.6
	c0.1-4.4,0.2-8.8,0.3-13.3c-11.5-8.2-22-20.9-34.7-23.7c-18.1-3.9-30.6,8.3-31.5,27.6c-1,20.5,10.5,34.6,30.4,31.7
	C365.7,187.2,376.8,174.4,388.6,166.6z M153.2,194.7c4.4,0,8.8,0.1,13.2,0.1c8.3-11.5,21.7-22.2,23.8-34.8
	c2.9-17.1-8.6-30.4-28.4-31.2c-21.1-0.9-34.1,11.8-31.7,30.7C131.7,172,145.1,183,153.2,194.7z"/>
</svg>
